<?xml version="1.0" encoding="utf-8"?>
<!-- Generator: Adobe Illustrator 15.0.2, SVG Export Plug-In . SVG Version: 6.00 Build 0)  -->
<!DOCTYPE svg PUBLIC "-//W3C//DTD SVG 1.1//EN" "http://www.w3.org/Graphics/SVG/1.1/DTD/svg11.dtd" [
	<!ENTITY ns_extend "http://ns.adobe.com/Extensibility/1.0/">
	<!ENTITY ns_ai "http://ns.adobe.com/AdobeIllustrator/10.0/">
	<!ENTITY ns_graphs "http://ns.adobe.com/Graphs/1.0/">
	<!ENTITY ns_vars "http://ns.adobe.com/Variables/1.0/">
	<!ENTITY ns_imrep "http://ns.adobe.com/ImageReplacement/1.0/">
	<!ENTITY ns_sfw "http://ns.adobe.com/SaveForWeb/1.0/">
	<!ENTITY ns_custom "http://ns.adobe.com/GenericCustomNamespace/1.0/">
	<!ENTITY ns_adobe_xpath "http://ns.adobe.com/XPath/1.0/">
]>
<svg version="1.1" id="Layer_1" xmlns:x="&ns_extend;" xmlns:i="&ns_ai;" xmlns:graph="&ns_graphs;"
	 xmlns="http://www.w3.org/2000/svg" xmlns:xlink="http://www.w3.org/1999/xlink" x="0px" y="0px" width="82.334px"
	 height="82.167px" viewBox="0 0 82.334 82.167" enable-background="new 0 0 82.334 82.167" xml:space="preserve">
<metadata>
	<sfw  xmlns="&ns_sfw;">
		<slices></slices>
		<sliceSourceBounds  y="-609.869" x="582.049" width="81.159" height="81.161" bottomLeftOrigin="true"></sliceSourceBounds>
	</sfw>
</metadata>
<g>
	<g>
		<polygon fill="#EAEAEA" points="69.543,20.828 74.327,18.904 78.646,13.096 72.883,7.337 67.066,11.666 65.155,16.437 
			50.801,30.796 55.489,34.883 		"/>
		<path fill="#EAEAEA" d="M77.976,59.906L51.981,37.266l-0.923-0.807l-7.412-6.454c0.9-4.4,2.525-16.198-4.042-22.761
			c-4.317-4.321-10.063-6.703-16.174-6.703c-1.498,0-3,0.149-4.462,0.438c-0.408,0.082-0.735,0.379-0.856,0.775
			c-0.121,0.395-0.014,0.827,0.279,1.116l9.794,9.796l1.962,9.473l-8,7.998l-9.472-1.96l-9.794-9.792
			c-0.295-0.293-0.725-0.401-1.119-0.28c-0.396,0.118-0.694,0.445-0.774,0.854c-1.489,7.515,0.853,15.227,6.262,20.64
			c3.219,3.217,8.235,4.917,14.513,4.917h0.001c2.633,0,5.473-0.301,8.249-0.877l29.849,34.269c2.464,2.467,5.67,3.794,9.081,3.794
			c3.41,0,6.619-1.327,9.032-3.741C82.952,72.984,82.953,64.885,77.976,59.906z"/>
		<path fill="#EAEAEA" d="M28.411,49.843c-1.138-1.137-2.981-1.137-4.119,0L5.201,68.937c-1.138,1.136-1.138,2.98,0,4.119
			l7.448,7.451c1.138,1.137,2.981,1.137,4.12,0l18.528-18.525c1.137-1.138,1.137-2.982,0-4.12L28.411,49.843z"/>
	</g>
</g>
</svg>
