<?xml version="1.0" encoding="utf-8"?>
<!-- Generator: Adobe Illustrator 16.0.0, SVG Export Plug-In . SVG Version: 6.00 Build 0)  -->
<!DOCTYPE svg PUBLIC "-//W3C//DTD SVG 1.1//EN" "http://www.w3.org/Graphics/SVG/1.1/DTD/svg11.dtd">
<svg version="1.1" id="Layer_1" xmlns="http://www.w3.org/2000/svg" xmlns:xlink="http://www.w3.org/1999/xlink" x="0px" y="0px"
	 width="174.375px" height="100.457px" viewBox="3.384 -48.994 174.375 100.457"
	 enable-background="new 3.384 -48.994 174.375 100.457" xml:space="preserve">
<path fill="#EC412E" d="M171.24,8.034c-4.346-4.313-10.533-6.468-18.564-6.468c-7.832,0-13.943,2.194-18.332,6.583
	c-3.305,3.304-5.361,7.598-6.178,12.879c-0.195-1.375-0.455-2.72-0.807-4.025c-0.789-2.94-2.062-5.519-3.817-7.735
	c-1.756-2.216-3.978-3.916-6.665-5.101c-2.688-1.186-6.215-1.778-10.582-1.778h-22.15v5.603c-0.512-0.76-1.116-1.479-1.839-2.146
	c-2.49-2.305-6.061-3.457-10.712-3.457H43.682v5.348c-0.476-0.667-1.032-1.298-1.674-1.893c-2.491-2.305-6.062-3.457-10.713-3.457
	H3.384v48.25h25.739c1.097,0,3.324-0.219,6.681-0.657c2.523-0.33,4.41-0.856,5.661-1.58c0.815-0.471,1.541-1.025,2.217-1.631v3.868
	h25.739c1.097,0,3.324-0.219,6.682-0.657c2.522-0.33,4.409-0.856,5.661-1.58c0.88-0.508,1.663-1.108,2.381-1.773v4.012h22.15
	c2.655,0,5.616-0.438,8.887-1.316c2.394-0.635,4.631-1.913,6.717-3.833c2.082-1.921,3.713-4.3,4.888-7.142
	c0.667-1.617,1.137-3.621,1.426-5.986c0.515,3.136,1.47,5.895,2.875,8.272c2.216,3.752,5.104,6.495,8.673,8.228
	c3.565,1.733,8.068,2.602,13.51,2.602c5.354,0,9.825-1.004,13.412-3.012c3.588-2.01,6.332-4.816,8.229-8.426
	c1.897-3.608,2.848-8.233,2.848-13.874C177.757,18.385,175.584,12.346,171.24,8.034z M18.426,12.164h6.583
	c2.26,0,3.846,0.396,4.756,1.185c0.911,0.791,1.366,1.888,1.366,3.292c0,1.513-0.455,2.672-1.366,3.473
	c-0.911,0.801-2.529,1.201-4.855,1.201h-6.484V12.164z M31.459,38.906c-1.053,0.912-2.863,1.365-5.431,1.365h-7.603v-9.775h7.57
	c2.611,0,4.438,0.436,5.48,1.3c1.042,0.868,1.563,2.015,1.563,3.44C33.04,36.771,32.513,37.997,31.459,38.906z M58.724,12.164h6.583
	c2.259,0,3.845,0.396,4.756,1.185c0.911,0.791,1.366,1.888,1.366,3.292c0,1.513-0.455,2.672-1.366,3.473
	c-0.911,0.801-2.529,1.201-4.855,1.201h-6.484V12.164z M37.877,24.968c2.282-0.79,4.016-1.865,5.2-3.227
	c0.215-0.246,0.416-0.5,0.604-0.758v6.533C42.17,26.39,40.242,25.536,37.877,24.968z M71.757,38.906
	c-1.053,0.912-2.863,1.365-5.431,1.365h-7.603v-9.775h7.57c2.612,0,4.438,0.436,5.48,1.3c1.042,0.868,1.563,2.015,1.563,3.44
	C73.337,36.771,72.811,37.997,71.757,38.906z M78.175,24.968c2.282-0.79,4.016-1.865,5.201-3.227
	c0.281-0.322,0.532-0.659,0.769-1.003v6.9C82.609,26.451,80.626,25.557,78.175,24.968z M112.451,35.021
	c-0.748,1.724-1.779,2.932-3.094,3.621c-1.317,0.691-3.533,1.036-6.65,1.036h-3.652V13.316h3.721c3.859,0,6.625,0.943,8.293,2.83
	c1.666,1.888,2.5,5.387,2.5,10.499C113.568,30.509,113.197,33.3,112.451,35.021z M160.214,37.178
	c-1.756,2.086-4.235,3.129-7.438,3.129c-3.115,0-5.578-1.065-7.389-3.193c-1.811-2.129-2.716-5.627-2.716-10.5
	c0-4.914,0.91-8.437,2.731-10.564c1.82-2.128,4.233-3.192,7.24-3.192c3.137,0,5.623,1.048,7.455,3.144
	c1.831,2.096,2.748,5.415,2.748,9.956C162.848,31.354,161.969,35.094,160.214,37.178z"/>
<path fill="#E9E9E9" d="M166.934-41.923c-4.078-4.048-9.888-6.071-17.426-6.071c-7.351,0-13.086,2.059-17.205,6.179
	c-3.102,3.101-5.033,7.131-5.799,12.088c-0.184-1.291-0.428-2.553-0.756-3.778c-0.742-2.76-1.937-5.18-3.584-7.26
	c-1.648-2.08-3.732-3.676-6.256-4.788c-2.523-1.113-5.833-1.668-9.933-1.668h-20.79v5.259c-0.48-0.713-1.047-1.389-1.726-2.015
	c-2.337-2.163-5.688-3.244-10.055-3.244H47.208v5.02c-0.447-0.626-0.969-1.218-1.571-1.776c-2.338-2.163-5.689-3.244-10.055-3.244
	H9.385v45.287h24.158c1.029,0,3.119-0.206,6.271-0.617c2.368-0.31,4.14-0.804,5.313-1.483c0.765-0.442,1.447-0.963,2.081-1.531
	v3.631h24.158c1.029,0,3.119-0.206,6.271-0.617c2.368-0.31,4.138-0.804,5.313-1.483c0.826-0.476,1.561-1.041,2.235-1.666v3.766
	h20.79c2.492,0,5.271-0.412,8.342-1.236c2.246-0.595,4.345-1.795,6.304-3.598c1.955-1.802,3.484-4.035,4.587-6.703
	c0.626-1.518,1.067-3.399,1.339-5.619c0.481,2.943,1.379,5.533,2.697,7.765c2.08,3.521,4.792,6.097,8.141,7.722
	c3.346,1.627,7.573,2.441,12.681,2.441c5.024,0,9.222-0.942,12.589-2.827c3.366-1.886,5.941-4.521,7.723-7.909
	c1.782-3.387,2.672-7.728,2.672-13.021C173.049-32.208,171.01-37.876,166.934-41.923z M23.503-38.047h6.178
	c2.121,0,3.609,0.371,4.464,1.112c0.855,0.743,1.282,1.772,1.282,3.09c0,1.42-0.427,2.508-1.282,3.26
	c-0.854,0.751-2.374,1.127-4.557,1.127h-6.085V-38.047z M35.736-12.947c-0.988,0.856-2.688,1.282-5.097,1.282h-7.136v-9.175h7.105
	c2.451,0,4.165,0.408,5.144,1.22c0.978,0.815,1.467,1.891,1.467,3.229C37.219-14.949,36.726-13.8,35.736-12.947z M61.326-38.047
	h6.179c2.121,0,3.609,0.371,4.464,1.112c0.854,0.743,1.282,1.772,1.282,3.09c0,1.42-0.427,2.508-1.282,3.26
	c-0.854,0.751-2.374,1.127-4.557,1.127h-6.086V-38.047z M41.76-26.029c2.142-0.741,3.769-1.751,4.881-3.029
	c0.201-0.23,0.39-0.469,0.567-0.711v6.131C45.789-24.695,43.98-25.496,41.76-26.029z M73.56-12.947
	c-0.989,0.856-2.688,1.282-5.098,1.282h-7.136v-9.175h7.105c2.451,0,4.166,0.408,5.144,1.22c0.978,0.815,1.467,1.891,1.467,3.229
	C75.042-14.949,74.549-13.8,73.56-12.947z M79.583-26.029c2.142-0.741,3.77-1.751,4.882-3.029c0.264-0.302,0.5-0.618,0.721-0.941
	v6.478C83.745-24.637,81.884-25.477,79.583-26.029z M111.754-16.592c-0.702,1.617-1.669,2.751-2.903,3.399
	c-1.236,0.649-3.317,0.972-6.243,0.972h-3.427v-24.744h3.491c3.623,0,6.219,0.886,7.784,2.656c1.563,1.771,2.347,5.056,2.347,9.854
	C112.803-20.829,112.454-18.209,111.754-16.592z M156.584-14.569c-1.648,1.958-3.975,2.936-6.981,2.936
	c-2.926,0-5.237-1-6.936-2.998c-1.699-1.997-2.55-5.281-2.55-9.855c0-4.612,0.855-7.917,2.564-9.916
	c1.71-1.998,3.975-2.997,6.797-2.997c2.943,0,5.277,0.984,6.997,2.951c1.719,1.967,2.579,5.082,2.579,9.345
	C159.055-20.036,158.231-16.525,156.584-14.569z"/>
<image display="none" overflow="visible" width="125" height="74" xlink:href="company-bbdo.png"  transform="matrix(1.3981 0 0 1.3981 3.7422 -50.9937)">
</image>
</svg>
