<?xml version="1.0" encoding="utf-8"?>
<!-- Generator: Adobe Illustrator 16.0.0, SVG Export Plug-In . SVG Version: 6.00 Build 0)  -->
<!DOCTYPE svg PUBLIC "-//W3C//DTD SVG 1.1//EN" "http://www.w3.org/Graphics/SVG/1.1/DTD/svg11.dtd">
<svg version="1.1" id="Layer_1" xmlns="http://www.w3.org/2000/svg" xmlns:xlink="http://www.w3.org/1999/xlink" x="0px" y="0px"
	 width="167.031px" height="178.176px" viewBox="1 -87.432 167.031 178.176" enable-background="new 1 -87.432 167.031 178.176"
	 xml:space="preserve">
<g>
	<g>
		<g>
			<path fill="#C82027" d="M65.476,83.261l-0.028,6.663l0.487,0.083c1.529,0.285,3.073,0.483,4.624,0.595
				c1.359,0.125,2.726,0.152,4.087,0.08c1.303-0.095,2.589-0.337,3.836-0.724c1.464-0.414,2.82-1.138,3.979-2.122
				c1.043-0.89,1.841-2.034,2.317-3.322c0.829-2.154,0.812-4.544-0.048-6.688c-0.451-1.111-1.165-2.1-2.078-2.877
				c-0.881-0.797-1.92-1.4-3.047-1.775l-5.023-1.863c-0.602-0.257-1.09-0.721-1.373-1.309c-0.222-0.488-0.201-1.053,0.056-1.523
				c0.09-0.166,0.202-0.317,0.336-0.451c0.153-0.156,0.325-0.293,0.514-0.406c0.074-0.047,0.15-0.089,0.228-0.129
				c0.562-0.277,1.167-0.454,1.791-0.521c1.064-0.154,2.145-0.143,3.205,0.034c1.252,0.136,2.494,0.357,3.715,0.665l0.26,0.057
				v-6.146l-0.479-0.104c-1.245-0.298-2.508-0.522-3.778-0.673c-1.649-0.22-3.319-0.228-4.97-0.021
				c-2.092,0.191-4.08,0.99-5.721,2.301c-1.112,0.873-1.959,2.04-2.444,3.368c-0.729,2.022-0.732,4.237-0.006,6.263
				c0.375,1.008,0.977,1.915,1.757,2.651c0.676,0.653,1.443,1.208,2.275,1.647c1.094,0.588,2.254,1.045,3.457,1.356
				c0.396,0.119,0.792,0.245,1.184,0.377l0.595,0.218c0.058,0.022,0.113,0.047,0.171,0.07c0.587,0.209,1.123,0.54,1.573,0.971
				c0.313,0.293,0.555,0.654,0.705,1.057c0.092,0.366,0.094,0.75,0.004,1.117c-0.188,0.594-0.602,1.09-1.15,1.381
				c-0.598,0.312-1.246,0.515-1.916,0.6c-0.981,0.154-1.979,0.205-2.972,0.148c-1.3-0.099-2.595-0.271-3.875-0.518
				c-0.67-0.137-1.337-0.293-1.999-0.467L65.476,83.261"/>
		</g>
		<g>
			<path fill="#C82027" d="M38.159,89.682v-7.735l-0.152,0.065c-1.744,0.846-3.641,1.325-5.576,1.416
				c-2.011,0.156-4.009-0.433-5.613-1.654c-1.146-0.885-1.998-2.095-2.444-3.472c-0.492-1.499-0.549-3.108-0.164-4.641
				c0.358-1.565,1.235-2.964,2.488-3.968c1.112-0.931,2.47-1.517,3.909-1.688c2.545-0.281,5.115,0.201,7.385,1.387l0.167,0.086
				v-7.78l-0.354-0.095c-2.271-0.729-4.656-1.041-7.04-0.922c-2.171,0.057-4.308,0.545-6.287,1.438
				c-1.998,0.914-3.759,2.274-5.147,3.978c-4.343,5.493-4.458,13.217-0.283,18.838c2.055,2.631,4.94,4.484,8.186,5.265
				c3.42,0.831,7.003,0.706,10.356-0.363L38.159,89.682"/>
		</g>
		<g>
			<polyline fill="#C82027" points="55.558,90.191 55.558,61.178 48.242,61.178 48.242,90.191 55.558,90.191 			"/>
		</g>
		<g>
			<polyline fill="#C82027" points="163.839,86.822 163.839,86.383 160.742,86.383 160.742,86.822 162.031,86.822 162.031,90.191 
				162.551,90.191 162.551,86.822 163.839,86.822 			"/>
		</g>
		<g>
			<polyline fill="#C82027" points="164.141,90.191 164.633,90.191 164.633,87.15 164.698,87.15 165.811,90.191 166.309,90.191 
				167.51,87.004 167.51,90.191 168.031,90.191 168.031,86.383 167.227,86.383 166.1,89.521 164.956,86.383 164.141,86.383 
				164.141,90.191 			"/>
		</g>
		<g>
			<path fill="#2883BA" d="M1,37.858c0.068,0.913,0.479,1.767,1.15,2.39c0.671,0.623,1.553,0.969,2.468,0.969
				c0.916,0,1.797-0.346,2.468-0.969s1.082-1.477,1.15-2.39v-8.041c-0.037-0.936-0.434-1.82-1.108-2.469
				c-0.675-0.647-1.574-1.009-2.51-1.009S2.784,26.7,2.109,27.348C1.434,27.996,1.037,28.881,1,29.817V37.858"/>
		</g>
		<g>
			<path fill="#2883BA" d="M21.029,37.858c0.068,0.913,0.479,1.767,1.149,2.39s1.553,0.969,2.469,0.969s1.797-0.346,2.468-0.969
				s1.082-1.477,1.15-2.39V19.83c-0.037-0.935-0.434-1.818-1.108-2.467c-0.674-0.649-1.574-1.011-2.509-1.011
				c-0.936,0-1.835,0.362-2.509,1.011c-0.675,0.647-1.072,1.532-1.109,2.467L21.029,37.858"/>
		</g>
		<g>
			<path fill="#2883BA" d="M40.951,45.119c0.068,0.912,0.479,1.768,1.15,2.39c0.671,0.623,1.552,0.97,2.468,0.97
				s1.797-0.347,2.468-0.97c0.671-0.622,1.082-1.478,1.149-2.39V6.123c-0.037-0.936-0.434-1.818-1.108-2.467
				c-0.674-0.649-1.574-1.012-2.509-1.012c-0.935,0-1.835,0.362-2.509,1.012c-0.674,0.647-1.072,1.531-1.109,2.467V45.119"/>
		</g>
		<g>
			<path fill="#2883BA" d="M60.977,37.858c0.068,0.913,0.479,1.767,1.149,2.39s1.553,0.969,2.468,0.969
				c0.916,0,1.797-0.346,2.469-0.969c0.672-0.623,1.082-1.477,1.149-2.39V19.83c-0.036-0.935-0.435-1.818-1.108-2.467
				c-0.674-0.648-1.574-1.011-2.51-1.011s-1.835,0.362-2.509,1.011c-0.675,0.647-1.072,1.532-1.109,2.467L60.977,37.858"/>
		</g>
		<g>
			<path fill="#2883BA" d="M80.914,37.858c0.068,0.913,0.479,1.767,1.15,2.39c0.671,0.623,1.553,0.969,2.469,0.969
				c0.915,0,1.797-0.346,2.468-0.969s1.081-1.477,1.149-2.39v-8.041c-0.036-0.936-0.434-1.82-1.108-2.469
				c-0.675-0.647-1.573-1.009-2.509-1.009c-0.938,0-1.836,0.361-2.51,1.009c-0.675,0.648-1.072,1.533-1.109,2.469V37.858"/>
		</g>
		<g>
			<path fill="#2883BA" d="M100.926,37.858c0.067,0.913,0.479,1.767,1.149,2.39c0.67,0.623,1.553,0.969,2.468,0.969
				s1.797-0.346,2.469-0.969s1.082-1.477,1.149-2.39V19.83c-0.036-0.935-0.435-1.818-1.108-2.467
				c-0.674-0.649-1.572-1.011-2.51-1.011s-1.835,0.362-2.51,1.011c-0.676,0.648-1.072,1.532-1.107,2.467V37.858"/>
		</g>
		<g>
			<path fill="#2883BA" d="M120.854,45.119c0.068,0.912,0.479,1.768,1.149,2.39c0.671,0.623,1.552,0.97,2.468,0.97
				s1.799-0.347,2.471-0.97c0.67-0.622,1.08-1.478,1.147-2.39V6.123c-0.036-0.936-0.435-1.818-1.108-2.467
				c-0.674-0.649-1.573-1.012-2.51-1.012c-0.935,0-1.834,0.362-2.509,1.012c-0.675,0.647-1.071,1.531-1.108,2.467V45.119"/>
		</g>
		<g>
			<path fill="#2883BA" d="M140.85,37.858c0.066,0.913,0.478,1.767,1.147,2.39c0.672,0.623,1.553,0.969,2.469,0.969
				s1.798-0.346,2.47-0.969c0.67-0.623,1.08-1.477,1.149-2.39V19.83c-0.038-0.935-0.435-1.818-1.108-2.467
				c-0.674-0.649-1.574-1.011-2.511-1.011c-0.936,0-1.835,0.362-2.509,1.011c-0.674,0.648-1.07,1.532-1.107,2.467V37.858"/>
		</g>
		<g>
			<path fill="#2883BA" d="M160.796,37.858c0.067,0.913,0.478,1.767,1.148,2.39c0.67,0.623,1.553,0.969,2.468,0.969
				c0.916,0,1.797-0.346,2.469-0.969s1.083-1.477,1.15-2.39v-8.041c-0.038-0.936-0.436-1.82-1.108-2.469
				c-0.676-0.647-1.573-1.009-2.511-1.009c-0.934,0-1.835,0.361-2.508,1.009c-0.676,0.648-1.073,1.533-1.108,2.469V37.858"/>
		</g>
		<g>
			<path fill="#C82027" d="M114.602,89.682v-7.735l-0.151,0.065c-1.744,0.846-3.642,1.325-5.576,1.416
				c-2.011,0.156-4.008-0.433-5.612-1.654c-1.146-0.885-1.996-2.095-2.443-3.472c-0.492-1.499-0.551-3.108-0.164-4.641
				c0.357-1.565,1.234-2.964,2.488-3.968c1.111-0.931,2.471-1.517,3.908-1.688c2.545-0.281,5.115,0.201,7.387,1.387l0.166,0.086
				v-7.78l-0.354-0.095c-2.272-0.729-4.655-1.041-7.04-0.922c-2.171,0.057-4.308,0.545-6.287,1.438
				c-1.998,0.915-3.758,2.276-5.146,3.979c-4.344,5.492-4.457,13.217-0.282,18.838c2.055,2.629,4.94,4.483,8.185,5.264
				c3.422,0.831,7.004,0.706,10.357-0.363L114.602,89.682"/>
		</g>
		<g>
			<g>
				<path fill="#C82027" d="M122.311,75.696c0.07,4.588,2.201,8.897,5.799,11.743c3.6,2.844,8.287,3.918,12.766,2.927
					c6.081-1.146,10.821-5.933,11.906-12.024s-1.712-12.22-7.023-15.394c-4.691-2.903-10.578-3.069-15.426-0.433
					C125.486,65.15,122.423,70.182,122.311,75.696 M132.932,69.744c1.582-1.262,3.6-1.846,5.611-1.619
					c2.01,0.227,3.85,1.24,5.111,2.821s1.846,3.6,1.619,5.608c-0.226,2.012-1.239,3.852-2.82,5.113
					c-1.582,1.264-3.6,1.846-5.611,1.62c-2.009-0.226-3.849-1.239-5.111-2.821c-1.262-1.581-1.846-3.599-1.619-5.609
					C130.336,72.848,131.35,71.007,132.932,69.744"/>
			</g>
		</g>
	</g>
</g>
<g>
	<g>
		<path fill="#E9E9E9" d="M66.177-10.171L66.15-3.785l0.467,0.08c1.466,0.273,2.945,0.463,4.431,0.57
			c1.303,0.12,2.612,0.146,3.917,0.077c1.249-0.091,2.481-0.323,3.676-0.693c1.403-0.397,2.703-1.09,3.814-2.034
			c1-0.853,1.764-1.95,2.221-3.184c0.795-2.064,0.778-4.355-0.045-6.41c-0.434-1.065-1.117-2.011-1.993-2.757
			c-0.844-0.763-1.84-1.342-2.92-1.701l-4.814-1.787c-0.576-0.245-1.044-0.689-1.316-1.253c-0.212-0.468-0.193-1.009,0.054-1.461
			c0.086-0.158,0.193-0.304,0.322-0.432c0.147-0.15,0.312-0.281,0.492-0.39c0.071-0.045,0.144-0.085,0.218-0.124
			c0.538-0.266,1.118-0.435,1.716-0.5c1.021-0.147,2.055-0.136,3.072,0.033c1.2,0.129,2.39,0.342,3.56,0.637l0.249,0.054v-5.89
			l-0.459-0.099c-1.193-0.286-2.403-0.502-3.621-0.645c-1.581-0.21-3.181-0.218-4.763-0.021c-2.005,0.184-3.911,0.949-5.483,2.205
			c-1.066,0.836-1.878,1.955-2.342,3.228c-0.699,1.939-0.702,4.062-0.006,6.002c0.359,0.966,0.936,1.835,1.685,2.541
			c0.648,0.626,1.382,1.158,2.18,1.579c1.048,0.564,2.16,1.001,3.313,1.301c0.38,0.114,0.759,0.235,1.134,0.361l0.57,0.208
			c0.055,0.021,0.109,0.045,0.164,0.067c0.562,0.2,1.076,0.518,1.508,0.93c0.299,0.281,0.531,0.627,0.675,1.012
			c0.088,0.352,0.09,0.72,0.004,1.072c-0.18,0.569-0.576,1.043-1.103,1.322c-0.573,0.299-1.194,0.493-1.836,0.575
			c-0.941,0.149-1.896,0.197-2.848,0.144c-1.246-0.095-2.487-0.26-3.713-0.496c-0.643-0.131-1.282-0.281-1.916-0.448L66.177-10.171"
			/>
		<path fill="#E9E9E9" d="M39.997-4.018v-7.414l-0.146,0.063c-1.671,0.81-3.489,1.27-5.344,1.357
			c-1.927,0.149-3.842-0.415-5.379-1.586c-1.099-0.847-1.915-2.007-2.343-3.327c-0.472-1.437-0.526-2.979-0.157-4.447
			c0.343-1.5,1.184-2.84,2.385-3.803c1.066-0.891,2.367-1.453,3.746-1.616c2.439-0.271,4.902,0.193,7.078,1.329l0.16,0.082v-7.457
			l-0.339-0.091c-2.176-0.698-4.462-0.998-6.747-0.883c-2.081,0.054-4.129,0.521-6.025,1.379c-1.915,0.876-3.603,2.181-4.933,3.812
			c-4.162,5.264-4.272,12.667-0.271,18.054c1.969,2.521,4.735,4.298,7.845,5.044c3.278,0.797,6.711,0.677,9.925-0.348L39.997-4.018"
			/>
		<polyline fill="#E9E9E9" points="56.671,-3.528 56.671,-31.335 49.66,-31.335 49.66,-3.528 56.671,-3.528 		"/>
		<polyline fill="#E9E9E9" points="160.445,-6.758 160.445,-7.179 157.478,-7.179 157.478,-6.758 158.713,-6.758 158.713,-3.528 
			159.211,-3.528 159.211,-6.758 160.445,-6.758 		"/>
		<polyline fill="#E9E9E9" points="160.734,-3.528 161.207,-3.528 161.207,-6.442 161.27,-6.442 162.335,-3.528 162.812,-3.528 
			163.964,-6.583 163.964,-3.528 164.464,-3.528 164.464,-7.179 163.692,-7.179 162.611,-4.171 161.517,-7.179 160.734,-7.179 
			160.734,-3.528 		"/>
		<path fill="#E9E9E9" d="M4.384-53.684c0.065,0.875,0.459,1.693,1.102,2.29s1.488,0.928,2.365,0.928
			c0.878,0,1.723-0.331,2.365-0.928c0.643-0.597,1.037-1.415,1.102-2.29v-7.707c-0.035-0.896-0.416-1.745-1.062-2.366
			c-0.647-0.62-1.508-0.967-2.405-0.967s-1.758,0.347-2.404,0.967c-0.647,0.622-1.028,1.47-1.063,2.366V-53.684"/>
		<path fill="#E9E9E9" d="M23.58-53.684c0.065,0.875,0.458,1.693,1.102,2.29s1.489,0.928,2.366,0.928
			c0.878,0,1.722-0.331,2.365-0.928s1.037-1.415,1.102-2.29v-17.278c-0.035-0.896-0.416-1.743-1.062-2.364
			c-0.647-0.621-1.508-0.968-2.405-0.968s-1.758,0.347-2.405,0.968c-0.646,0.622-1.027,1.469-1.062,2.364V-53.684"/>
		<path fill="#E9E9E9" d="M42.672-46.725c0.065,0.874,0.459,1.694,1.102,2.29c0.643,0.597,1.487,0.928,2.365,0.928
			s1.723-0.331,2.365-0.928c0.644-0.596,1.037-1.416,1.103-2.29v-37.373c-0.036-0.897-0.417-1.743-1.063-2.364
			c-0.646-0.623-1.508-0.97-2.405-0.97c-0.896,0-1.758,0.347-2.405,0.97c-0.646,0.622-1.027,1.467-1.062,2.364V-46.725"/>
		<path fill="#E9E9E9" d="M61.865-53.684c0.065,0.875,0.458,1.693,1.102,2.29s1.488,0.928,2.366,0.928s1.722-0.331,2.366-0.928
			c0.643-0.597,1.036-1.415,1.101-2.29v-17.278c-0.035-0.896-0.417-1.743-1.061-2.364c-0.647-0.621-1.509-0.968-2.405-0.968
			c-0.898,0-1.76,0.347-2.405,0.968c-0.646,0.622-1.028,1.469-1.062,2.364V-53.684"/>
		<path fill="#E9E9E9" d="M80.972-53.684c0.065,0.875,0.458,1.693,1.103,2.29c0.643,0.597,1.488,0.928,2.366,0.928
			c0.877,0,1.722-0.331,2.365-0.928s1.036-1.415,1.102-2.29v-7.707c-0.034-0.896-0.415-1.745-1.062-2.366
			c-0.646-0.62-1.508-0.967-2.404-0.967c-0.898,0-1.759,0.347-2.405,0.967c-0.646,0.622-1.027,1.47-1.063,2.366V-53.684"/>
		<path fill="#E9E9E9" d="M100.15-53.684c0.065,0.875,0.458,1.693,1.102,2.29c0.643,0.597,1.488,0.928,2.365,0.928
			s1.723-0.331,2.365-0.928c0.645-0.597,1.037-1.415,1.103-2.29v-17.278c-0.034-0.896-0.415-1.743-1.062-2.364
			c-0.646-0.621-1.508-0.968-2.405-0.968s-1.758,0.347-2.405,0.968c-0.646,0.622-1.027,1.469-1.062,2.364V-53.684"/>
		<path fill="#E9E9E9" d="M119.249-46.725c0.066,0.874,0.46,1.694,1.103,2.29c0.644,0.597,1.487,0.928,2.365,0.928
			c0.877,0,1.723-0.331,2.367-0.928c0.642-0.596,1.036-1.416,1.101-2.29v-37.373c-0.036-0.897-0.417-1.743-1.063-2.364
			c-0.645-0.623-1.508-0.97-2.404-0.97c-0.896,0-1.758,0.347-2.404,0.97c-0.646,0.622-1.027,1.467-1.063,2.364V-46.725"/>
		<path fill="#E9E9E9" d="M138.412-53.684c0.064,0.875,0.458,1.693,1.101,2.29c0.644,0.597,1.488,0.928,2.366,0.928
			s1.723-0.331,2.366-0.928c0.643-0.597,1.036-1.415,1.103-2.29v-17.278c-0.037-0.896-0.417-1.743-1.063-2.364
			c-0.646-0.621-1.509-0.968-2.405-0.968s-1.759,0.347-2.404,0.968c-0.646,0.622-1.027,1.469-1.062,2.364V-53.684"/>
		<path fill="#E9E9E9" d="M157.529-53.684c0.064,0.875,0.457,1.693,1.101,2.29c0.642,0.597,1.488,0.928,2.365,0.928
			c0.878,0,1.722-0.331,2.366-0.928c0.643-0.597,1.037-1.415,1.103-2.29v-7.707c-0.037-0.896-0.417-1.745-1.062-2.366
			c-0.647-0.62-1.509-0.967-2.406-0.967c-0.895,0-1.759,0.347-2.403,0.967c-0.646,0.622-1.029,1.47-1.062,2.366V-53.684"/>
		<path fill="#E9E9E9" d="M113.259-4.018v-7.414l-0.146,0.063c-1.672,0.81-3.489,1.27-5.344,1.357
			c-1.928,0.149-3.841-0.415-5.379-1.586c-1.099-0.847-1.914-2.007-2.343-3.327c-0.472-1.437-0.526-2.979-0.157-4.447
			c0.343-1.5,1.184-2.84,2.386-3.803c1.065-0.891,2.367-1.453,3.745-1.616c2.439-0.271,4.902,0.193,7.079,1.329l0.159,0.082v-7.457
			l-0.339-0.091c-2.178-0.698-4.463-0.998-6.747-0.883c-2.081,0.054-4.129,0.521-6.025,1.378c-1.915,0.877-3.602,2.182-4.934,3.813
			c-4.162,5.264-4.271,12.667-0.271,18.054c1.969,2.521,4.734,4.298,7.844,5.044c3.278,0.797,6.712,0.677,9.927-0.348L113.259-4.018
			"/>
		<path fill="#E9E9E9" d="M120.646-17.421c0.068,4.397,2.11,8.528,5.558,11.255c3.45,2.725,7.943,3.755,12.234,2.805
			c5.828-1.097,10.371-5.685,11.411-11.524c1.039-5.838-1.642-11.711-6.731-14.753c-4.497-2.782-10.139-2.941-14.784-0.415
			C123.689-27.528,120.753-22.706,120.646-17.421 M130.824-23.125c1.517-1.209,3.449-1.768,5.378-1.552
			c1.927,0.216,3.688,1.188,4.899,2.704c1.21,1.516,1.769,3.45,1.553,5.376c-0.217,1.928-1.189,3.69-2.704,4.901
			c-1.517,1.21-3.449,1.769-5.378,1.552c-1.926-0.215-3.688-1.188-4.898-2.704c-1.211-1.515-1.77-3.449-1.553-5.377
			C128.337-20.152,129.31-21.915,130.824-23.125"/>
	</g>
</g>
<image display="none" overflow="visible" width="119" height="128" xlink:href="company-cisco.png"  transform="matrix(1.429 0 0 1.429 -0.6162 -90.4165)">
</image>
</svg>
