<?xml version="1.0" encoding="utf-8"?>
<!-- Generator: Adobe Illustrator 16.0.0, SVG Export Plug-In . SVG Version: 6.00 Build 0)  -->
<!DOCTYPE svg PUBLIC "-//W3C//DTD SVG 1.1//EN" "http://www.w3.org/Graphics/SVG/1.1/DTD/svg11.dtd">
<svg version="1.1" id="Layer_1" xmlns="http://www.w3.org/2000/svg" xmlns:xlink="http://www.w3.org/1999/xlink" x="0px" y="0px"
	 width="215.245px" height="114.3px" viewBox="2.323 -55.349 215.245 114.3" enable-background="new 2.323 -55.349 215.245 114.3"
	 xml:space="preserve">
<path fill="#0779BE" d="M169.951,10.834c-5.37,0-9.614,1.424-12.861,2.073l-1.001,8.16c1.624-0.777,6.743-2.201,10.99-2.332
	c4.246-0.13,6.743,0.776,5.871,4.405c-12.613,0-21.106,2.59-22.854,10.752c-2.5,13.989,12.864,13.602,18.982,7.514l-0.75,3.367
	h11.238l4.873-22.281C186.436,13.035,177.816,10.706,169.951,10.834z M170.699,33.634c-0.623,2.979-2.995,4.275-5.867,4.405
	c-2.497,0.128-4.748-2.074-3.123-4.665c1.251-2.202,4.747-2.72,6.869-2.72c0.873,0,1.876,0,2.747,0
	C171.074,31.691,170.945,32.6,170.699,33.634z"/>
<polygon fill="#0779BE" points="194.055,2.022 184.755,44.775 196.173,44.775 205.586,2.022 194.055,2.022 "/>
<path fill="#0779BE" d="M141.6,2.154h-20.901l-9.265,42.621h12.142l3.131-14.12h8.637c8.511,0,15.521-5.182,17.398-13.991
	C154.866,6.688,147.607,2.154,141.6,2.154z M141.227,16.663c-0.754,3.239-4.008,5.83-7.139,5.83h-5.631l2.504-11.659h6.008
	C140.1,10.834,141.977,13.425,141.227,16.663z"/>
<path fill="#15467A" d="M60.487,10.834c-5.305,0-9.501,1.424-12.584,2.073l-0.987,8.16c1.48-0.777,6.54-2.201,10.732-2.332
	c4.196-0.13,6.663,0.776,5.922,4.405c-12.459,0-20.848,2.59-22.575,10.752c-2.468,13.989,12.706,13.602,18.626,7.514l-0.738,3.367
	h11.226l4.812-22.281C76.894,13.035,68.258,10.706,60.487,10.834z M61.35,33.634c-0.616,2.979-3.084,4.275-5.921,4.405
	c-2.468,0.128-4.564-2.074-2.961-4.665c1.233-2.202,4.687-2.72,6.662-2.72c0.987,0,1.85,0,2.837,0
	C61.721,31.691,61.474,32.6,61.35,33.634z"/>
<polygon fill="#15467A" points="79.812,11.446 91.037,11.446 92.847,31.296 103.83,11.446 115.416,11.446 88.742,58.951 
	76.19,58.951 84.396,44.984 79.812,11.446 "/>
<path fill="#15467A" d="M32.565,2.154H11.609L2.323,44.775h12.299l3.011-14.121h8.783c8.408,0,15.437-5.182,17.318-13.991
	C45.867,6.688,38.714,2.154,32.565,2.154z M32.189,16.663c-0.752,3.239-3.889,5.83-7.027,5.83H19.39l2.635-11.659h6.023
	C31.061,10.834,33.067,13.425,32.189,16.663z"/>
<path fill="#0779BE" d="M208.716,7.699V2.66h-1.881V1.984h4.53V2.66h-1.891V7.7L208.716,7.699L208.716,7.699z"/>
<path fill="#0779BE" d="M212.115,7.699V1.984h1.133l1.354,4.045c0.125,0.376,0.217,0.658,0.274,0.845
	c0.063-0.208,0.167-0.513,0.304-0.915l1.372-3.975h1.017v5.715h-0.727V2.915L215.174,7.7h-0.681l-1.652-4.863V7.7L212.115,7.699
	L212.115,7.699z"/>
<image display="none" overflow="visible" width="158" height="86" xlink:href="company-paypal.png"  transform="matrix(1.3682 0 0 1.3682 3.8755 -57.6646)">
</image>
<path fill-rule="evenodd" clip-rule="evenodd" fill="#E9E9E9" d="M167.855-47.054c-5.034,0-9.013,1.335-12.058,1.944l-0.938,7.649
	c1.523-0.729,6.321-2.063,10.304-2.186c3.979-0.122,6.32,0.728,5.503,4.129c-11.823,0-19.785,2.428-21.424,10.08
	c-2.344,13.115,12.059,12.751,17.793,7.043l-0.702,3.158h10.536l4.567-20.888C183.307-44.99,175.229-47.173,167.855-47.054z
	 M168.557-25.68c-0.585,2.792-2.809,4.007-5.501,4.129c-2.34,0.121-4.451-1.945-2.927-4.372c1.172-2.065,4.449-2.551,6.438-2.551
	c0.818,0,1.759,0,2.575,0C168.907-27.501,168.787-26.651,168.557-25.68z"/>
<polygon fill-rule="evenodd" clip-rule="evenodd" fill="#E9E9E9" points="190.449,-55.312 181.732,-15.236 192.435,-15.236 
	201.259,-55.312 190.449,-55.312 190.449,-55.312 "/>
<path fill-rule="evenodd" clip-rule="evenodd" fill="#E9E9E9" d="M141.276-55.19h-19.594l-8.684,39.954h11.382l2.935-13.237h8.097
	c7.977,0,14.548-4.857,16.309-13.117C153.714-50.939,146.909-55.19,141.276-55.19z M140.928-41.59
	c-0.707,3.038-3.757,5.466-6.692,5.466h-5.278l2.347-10.93h5.632C139.872-47.054,141.629-44.624,140.928-41.59z"/>
<path fill-rule="evenodd" clip-rule="evenodd" fill="#E9E9E9" d="M65.242-47.054c-4.973,0-8.907,1.335-11.797,1.944l-0.925,7.649
	c1.389-0.729,6.131-2.063,10.062-2.186c3.933-0.122,6.246,0.728,5.551,4.129c-11.679,0-19.543,2.428-21.162,10.08
	c-2.314,13.115,11.911,12.751,17.46,7.043l-0.692,3.158h10.523l4.511-20.888C80.621-44.99,72.526-47.173,65.242-47.054z
	 M66.05-25.68c-0.578,2.792-2.892,4.007-5.55,4.129c-2.314,0.121-4.278-1.945-2.775-4.372c1.156-2.065,4.393-2.551,6.245-2.551
	c0.925,0,1.734,0,2.66,0C66.397-27.501,66.166-26.651,66.05-25.68z"/>
<polygon fill-rule="evenodd" clip-rule="evenodd" fill="#E9E9E9" points="83.356,-46.479 93.879,-46.479 95.576,-27.872 
	105.872,-46.479 116.732,-46.479 91.728,-1.947 79.961,-1.947 87.654,-15.04 83.356,-46.479 83.356,-46.479 "/>
<path fill-rule="evenodd" clip-rule="evenodd" fill="#E9E9E9" d="M39.067-55.19H19.422l-8.705,39.954h11.529l2.822-13.237h8.233
	c7.882,0,14.471-4.857,16.235-13.117C51.536-50.939,44.831-55.19,39.067-55.19z M38.715-41.59c-0.706,3.038-3.646,5.466-6.587,5.466
	h-5.411l2.47-10.93h5.646C37.656-47.054,39.538-44.624,38.715-41.59z"/>
<path fill="#E9E9E9" d="M204.193-49.992v-4.724h-1.765v-0.633h4.249v0.633h-1.772v4.724H204.193z"/>
<path fill="#E9E9E9" d="M207.38-49.992v-5.357h1.062l1.27,3.792c0.118,0.354,0.203,0.617,0.258,0.792
	c0.061-0.195,0.157-0.481,0.285-0.858l1.286-3.726h0.952v5.357h-0.681v-4.486l-1.563,4.486h-0.639l-1.549-4.558v4.558H207.38z"/>
</svg>
