<?xml version="1.0" encoding="utf-8"?>
<!-- Generator: Adobe Illustrator 16.0.0, SVG Export Plug-In . SVG Version: 6.00 Build 0)  -->
<!DOCTYPE svg PUBLIC "-//W3C//DTD SVG 1.1//EN" "http://www.w3.org/Graphics/SVG/1.1/DTD/svg11.dtd">
<svg version="1.1" id="Layer_1" xmlns="http://www.w3.org/2000/svg" xmlns:xlink="http://www.w3.org/1999/xlink" x="0px" y="0px"
	 width="149.527px" height="160.948px" viewBox="2.218 -76.631 149.527 160.948"
	 enable-background="new 2.218 -76.631 149.527 160.948" xml:space="preserve">
<g>
	<g>
		<g>
			<g>
				<polygon fill="#00476C" points="77.925,20.72 57.382,3.02 2.218,84.316 34.314,84.316 				"/>
			</g>
			<g>
				<g>
					<polygon fill="#00476C" points="98.609,38.539 79.646,22.203 37.052,84.316 67.217,84.316 					"/>
				</g>
				<g>
					<polygon fill="#00476C" points="100.33,40.021 69.955,84.316 100.452,84.316 116.581,59.799 145.777,84.316 151.745,84.316 
											"/>
				</g>
			</g>
		</g>
	</g>
</g>
<g>
	<g>
		<g>
			<polygon fill="#E9E9E9" points="79.428,-59.947 60.064,-76.631 8.066,0 38.321,0 			"/>
		</g>
		<g>
			<g>
				<polygon fill="#E9E9E9" points="98.925,-43.15 81.051,-58.549 40.901,0 69.334,0 				"/>
			</g>
			<g>
				<polygon fill="#E9E9E9" points="100.547,-41.753 71.916,0 100.662,0 115.865,-23.111 143.387,0 149.011,0 				"/>
			</g>
		</g>
	</g>
</g>
<image display="none" overflow="visible" width="104" height="114" xlink:href="company-mc.png"  transform="matrix(1.4355 0 0 1.4355 3.0713 -79.3335)">
</image>
</svg>
