<?xml version="1.0" encoding="utf-8"?>
<!-- Generator: Adobe Illustrator 16.0.0, SVG Export Plug-In . SVG Version: 6.00 Build 0)  -->
<!DOCTYPE svg PUBLIC "-//W3C//DTD SVG 1.1//EN" "http://www.w3.org/Graphics/SVG/1.1/DTD/svg11.dtd">
<svg version="1.1" id="Layer_1" xmlns="http://www.w3.org/2000/svg" xmlns:xlink="http://www.w3.org/1999/xlink" x="0px" y="0px"
	 width="221.112px" height="194.751px" viewBox="2.251 -93.932 221.112 194.751"
	 enable-background="new 2.251 -93.932 221.112 194.751" xml:space="preserve">
<path id="backclear" fill="#10A2DC" d="M100.818,43.305c0-0.806-0.103-2.406-0.482-4.045c-0.264-1.097-0.564-2.194-0.906-3.266
	c0.593,2.018,0.508,3.443,0.508,3.983c0,2.473-3.08,17.557-33.213,20.304c-2.611,0.228-21.756,0.531-38.409-3.679
	C17.237,53.804,6.12,48.384,4.016,40.859c-0.329-1.172-0.173-2.255,0.077-3.263c-0.846,2.999-1.411,6.137-1.675,9.354
	c0.187,7.914,7.07,17.138,19.66,21.12c14.395,4.529,23.231,4.68,44.151,0.015C101.146,60.296,100.818,45.007,100.818,43.305z
	 M23.161,85.42c-8.229-3.407-13.925-9.065-16.208-13.199c2.104,4.461,4.852,8.583,8.129,12.201
	c10.726,10.083,27.212,11.303,34.79,11.303c32.063,0,43.509-16.849,46.104-21.36c0.479-0.908,0.933-1.827,1.35-2.763
	C92.258,82.051,65.942,103.09,23.161,85.42z M58.05,78.811c-9.706,0.344-26.785-2.997-37.549-7.398
	C11.843,67.886,3.272,61.005,2.363,54.436c0.102,1.576,0.278,3.136,0.53,4.664C8.2,88.054,44.678,86.397,50.956,85.709
	c45.879-5.094,49.823-24.681,50.429-28.548c0.087-0.811,0.175-1.616,0.238-2.436C100.806,59.877,93.053,77.552,58.05,78.811
	 M16.572,20.268c0,4.536,6.59,11.783,25.711,11.783c11.333,0,20.482-2.193,27.39-4.485c11.079-3.681,16.56-8.181,16.36-11.532
	c-0.025-0.516-0.228-1.362-0.843-2.03c-2.46-2.206-5.143-4.172-8.008-5.848c1.893,1.096,2.965,2.383,2.965,3.807
	c0,4.99-12.201,9.565-28.135,9.982c-15.933,0.403-29.137-3.518-29.495-8.495c-0.112-1.653,1.071-3.278,3.329-4.714
	c-1.726,1.069-3.376,2.229-4.939,3.49C16.469,15.904,16.572,19.787,16.572,20.268z M6.322,34.358c0-2.132,0.302-3.617,0.869-4.956
	c0.97-1.978,2.055-3.894,3.268-5.72c-0.315,0.515-0.493,1.106-0.493,1.813c0,4.626,11.331,10.641,26.799,12.604
	c5.243,0.669,19.119,2.56,29.857,1.676c21.691-1.789,26.506-9.364,26.506-14.28c0-1.347-0.727-3.313-1.46-4.459
	c0.984,1.309,1.914,2.657,2.771,4.057c1.666,2.887,1.451,4.034,1.451,4.537c0,10.058-18.718,16.612-31.233,20.04
	C32.525,58.443,6.322,46.482,6.322,34.358z"/>
<path id="backstripes" fill="#026EA0" d="M2.682,55.874c-0.139-0.48-0.251-0.958-0.317-1.438c0.077,1.225,0.202,2.422,0.366,3.616
	C2.656,57.322,2.643,56.604,2.682,55.874z M4.068,37.699c-0.315,1.106-0.582,2.243-0.821,3.39c0.126-0.443,0.329-0.922,0.58-1.439
	C3.813,38.972,3.916,38.315,4.068,37.699z M6.979,72.257c1.147,2.458,2.509,4.802,4.02,7.01c-0.818-1.322-1.499-2.699-2.042-4.125
	C8.14,74.135,7.483,73.163,6.979,72.257z M13.243,30.21c-0.618-0.467-1.159-0.946-1.615-1.425c-2.155,1.487-3.943,3.075-5.293,4.751
	c-0.012,0.265-0.012,0.544-0.012,0.822c0,0.527,0.051,1.071,0.153,1.598C8.125,34.104,10.394,32.112,13.243,30.21z M91.931,29.73
	c1.337,0.697,2.546,1.437,3.617,2.233c0.228-0.755,0.341-1.536,0.341-2.333c0-0.489,0.2-1.626-1.386-4.436
	c-0.859-1.398-1.775-2.76-2.792-4.091c0.712,1.129,1.417,3.058,1.417,4.392C93.126,26.768,92.798,28.232,91.931,29.73L91.931,29.73z
	 M10.419,23.732c-0.139,0.214-0.277,0.428-0.415,0.643l0.238-0.277C10.294,23.971,10.354,23.856,10.419,23.732z M80.082,11.354
	c1.978,0.808,3.796,1.804,5.395,3.025l-0.275-0.364c-1.604-1.437-3.29-2.774-5.07-3.997c-0.454-0.276-0.931-0.543-1.424-0.78
	C79.439,9.894,79.918,10.599,80.082,11.354z M89.222,80.98c-0.128,0.716-0.303,1.423-0.505,2.117
	c4.059-3.616,6.265-7.019,7.247-8.709l0.103-0.19l-0.038-0.365C94.516,76.064,92.232,78.559,89.222,80.98z M29.037,80.98
	c0-2.196,0.53-4.286,1.488-6.239c-1.237-0.33-2.446-0.682-3.617-1.045c-0.946,2.057-1.463,4.259-1.463,6.54
	c0,1.034,0.113,2.055,0.315,3.038c1.223,0.391,2.458,0.72,3.692,1.009C29.175,83.212,29.037,82.115,29.037,80.98z M100.363,39.363
	c-0.116-0.468-0.229-0.935-0.354-1.413c-0.072-0.165-0.148-0.328-0.239-0.481c0.216,1.238,0.167,2.106,0.167,2.509
	c0,0.805-0.33,2.976-1.842,5.609c0.691,0.794,1.3,1.623,1.801,2.481c0.945-2.457,0.922-4.245,0.922-4.765
	C100.818,42.514,100.716,40.971,100.363,39.363L100.363,39.363z M100.323,58.697c-0.463,1.004-1.084,2.116-1.865,3.274
	c0.216,0.72,0.354,1.425,0.43,2.096c0.817-1.403,1.358-2.7,1.728-3.795C100.539,59.779,100.449,59.25,100.323,58.697z
	 M94.967,69.232c-0.274-0.743-0.58-1.476-0.931-2.193c-1.588,1.45-3.502,2.897-5.772,4.248c0.34,0.907,0.631,1.852,0.83,2.798
	C91.489,72.48,93.418,70.848,94.967,69.232z M20.15,26.403c5.246-2.396,11.685-4.285,19.284-5.08
	c-2.609-0.341-5.004-0.793-7.121-1.361c-4.981,1.375-9.655,3.025-13.739,4.929C19.015,25.397,19.543,25.9,20.15,26.403z
	 M7.608,67.822c0-1.426,0.162-2.824,0.454-4.186c-0.717-0.681-1.399-1.362-2.004-2.068c-0.454,2.017-0.58,4.047-0.341,6.076
	c0.655,1.285,1.386,2.471,2.194,3.594C7.708,70.112,7.608,68.966,7.608,67.822z M5.743,44.392c-1.3,1.776-2.283,3.718-2.872,5.837
	c0.148,0.644,0.351,1.295,0.589,1.941c0.746-2.109,1.98-4.177,3.617-6.14C6.588,45.498,6.135,44.957,5.743,44.392 M22.947,14.82
	c-2.229,0.935-4.233,1.906-5.947,2.862c-0.302,0.921-0.392,1.665-0.416,2.13c2.191-1.136,4.815-2.295,7.738-3.428
	C23.715,15.88,23.264,15.363,22.947,14.82z M85.756,17.555c-2.283-0.793-5.004-1.374-8.043-1.777
	c-3.54,2.723-10.702,4.916-19.624,5.784c5.609,0.571,12.442,1.539,18.956,3.052C81.974,22.232,84.884,19.75,85.756,17.555z
	 M76.895,76.052c0.454,1.197,0.744,2.446,0.855,3.718c1.46-0.541,2.822-1.109,4.097-1.686c-0.164-1.152-0.454-2.271-0.871-3.369
	C79.69,75.193,78.343,75.649,76.895,76.052z M72.458,92.323c2.332-0.794,4.461-1.69,6.403-2.647c0.746-1.045,1.36-2.141,1.853-3.291
	c-1.614,0.81-3.354,1.577-5.181,2.259C74.702,89.967,73.667,91.199,72.458,92.323z M14.516,80.449
	c0.428,1.819,1.106,3.555,2.006,5.243c1.763,1.461,3.654,2.725,5.619,3.807c-1.424-1.917-2.521-3.981-3.212-6.148
	C17.314,82.444,15.851,81.47,14.516,80.449z M91.702,52.471c1.173,0.984,2.181,1.949,3.027,2.923
	c1.222-1.159,2.206-2.295,2.976-3.365c-0.58-1.01-1.258-2.017-2.081-3.037C94.58,50.15,93.294,51.337,91.702,52.471z M9.007,60.47
	c1.235-3.173,3.253-6.134,5.911-8.796c-0.895-0.455-1.75-0.945-2.56-1.438c-2.332,2.548-4.133,5.294-5.281,8.133
	C7.656,59.087,8.313,59.795,9.007,60.47z M99.646,36.688c-0.051-0.162-0.113-0.338-0.167-0.502c0.041,0.137,0.076,0.264,0.103,0.39
	L99.646,36.688z M31.127,88.327c-1.37-0.442-2.76-0.916-4.171-1.437c1.122,2.411,2.85,4.613,5.052,6.531
	c1.829,0.502,3.631,0.905,5.383,1.223C34.732,92.918,32.577,90.759,31.127,88.327z M45.093,39.097
	c-3.515-0.365-6.464-0.759-8.33-0.996c-1.212-0.15-2.396-0.328-3.543-0.53c-6.692,2.117-12.567,5.321-17.156,9.139
	c0.936,0.518,1.919,1.011,2.965,1.478C25.708,43.318,34.834,40.005,45.093,39.097 M18.045,77.852c0-2.379,0.415-4.725,1.225-6.966
	c-1.351-0.591-2.675-1.276-3.972-2.006c-0.855,2.279-1.312,4.68-1.312,7.137c0,0.489,0.026,0.97,0.064,1.446
	c1.322,0.996,2.711,1.877,4.146,2.658C18.096,79.369,18.045,78.611,18.045,77.852z M31.985,57.448
	c-1.235-0.253-2.458-0.542-3.669-0.844c-0.78-0.203-1.549-0.402-2.318-0.634c-4.034,2.802-7.236,6.167-9.314,9.92
	c1.274,0.631,2.634,1.209,4.072,1.727c1.208-2.142,2.797-4.12,4.775-5.862C27.396,60.121,29.567,58.681,31.985,57.448z
	 M19.597,33.715c-3.898,1.902-7.705,4.272-10.766,7.171c0.466,0.593,0.993,1.171,1.589,1.739c3.338-2.948,7.55-5.598,12.211-7.74
	C21.562,34.509,20.541,34.118,19.597,33.715z M84.607,56.314c-2.219,0.896-4.753,1.698-7.638,2.366
	c2.093,1.275,3.984,2.699,5.622,4.275c2.354-1.021,4.41-2.081,6.19-3.152C87.519,58.568,86.131,57.395,84.607,56.314z
	 M78.734,45.021c2.635-1.073,5.182-2.256,7.475-3.567c-2.383-1.273-5.156-2.432-8.371-3.404c-3.113,0.769-6.818,1.363-11.217,1.726
	c-1.309,0.113-2.656,0.175-4.045,0.215c3.077,0.58,6.027,1.377,8.809,2.293C74.082,43.181,76.516,44.087,78.734,45.021z
	 M89.75,39.175c2.508-1.856,4.425-3.911,5.409-6.167c-1.2-0.743-2.562-1.435-4.035-2.078c-1.46,1.875-3.856,3.731-7.6,5.282
	C85.73,37.106,87.823,38.101,89.75,39.175z M61.527,60.398c-3.16-0.014-7.461-0.154-12.311-0.531
	c-8.596,0.996-15.909,4.84-20.067,10.161c1.376,0.314,2.734,0.579,4.071,0.803c4.384-4.812,11.796-7.978,20.203-7.978
	c6.139,0,11.751,1.674,16.035,4.463c1.663-0.415,3.253-0.856,4.74-1.311C70.781,63.383,66.432,61.418,61.527,60.398z M60.532,30.084
	c3.39-0.741,6.441-1.625,9.14-2.521c1.486-0.49,2.86-1.007,4.135-1.511c-3.793-0.706-7.174-1.148-9.455-1.349
	c-8.671-0.797-21.578,1.673-24.919,2.37c-1.034,0.202-5.744,1.184-11.494,3.185c1.348,0.406,2.849,0.748,4.473,1.023
	C37.619,29.818,43.002,29,48.103,29C51.483,29,55.809,29.352,60.532,30.084z M64.655,49.67c0.846-0.237,1.727-0.477,2.622-0.742
	c-3.855-0.833-7.953-1.273-12.214-1.273c-8.056,0-15.579,1.601-21.933,4.374C42.234,53.302,53.059,52.834,64.655,49.67z"/>
<path id="forestripes" fill="#FFFFFF" d="M4.093,37.597c0.792-2.85,1.84-5.583,3.097-8.194c-0.567,1.338-0.869,2.824-0.869,4.956
	c0,12.124,26.203,24.085,58.333,15.312c12.514-3.426,31.233-9.982,31.233-20.04c0-0.504,0.215-1.649-1.451-4.537
	c2.081,3.391,3.757,7.034,4.991,10.902c0.593,2.017,0.508,3.442,0.508,3.983c0,2.472-3.08,17.557-33.214,20.305
	c-2.611,0.226-21.756,0.53-38.408-3.679c-11.079-2.8-22.196-8.22-24.3-15.744C3.688,39.688,3.843,38.604,4.093,37.597z
	 M50.956,85.709C44.678,86.397,8.2,88.054,2.895,59.1c0.745,4.625,2.129,9.022,4.059,13.121c2.282,4.134,7.978,9.792,16.208,13.199
	c42.782,17.672,69.098-3.369,74.165-13.818c2.04-4.5,3.429-9.349,4.059-14.44C100.778,61.028,96.834,80.615,50.956,85.709z
	 M49.872,95.725c-7.577,0-24.064-1.22-34.79-11.303C24.184,94.489,37.355,100.819,52,100.819c19.055,0,35.62-10.714,43.974-26.455
	C93.38,78.876,81.935,95.725,49.872,95.725z M20.502,71.412c10.764,4.401,27.843,7.742,37.549,7.398
	c35.001-1.259,42.755-18.931,43.572-24.085c0.077-1.212,0.126-2.434,0.126-3.657c0-4.067-0.477-8.016-1.412-11.808
	c0.38,1.638,0.482,3.238,0.482,4.046c0,1.702,0.329,16.991-34.59,24.779c-20.92,4.666-29.756,4.515-44.151-0.014
	C9.487,64.089,2.604,54.865,2.417,46.95c-0.118,1.361-0.167,2.733-0.167,4.118c0,1.136,0.025,2.244,0.113,3.367
	C3.272,61.004,11.844,67.884,20.502,71.412z M36.763,38.101c5.243,0.669,19.119,2.56,29.857,1.676
	c21.691-1.789,26.505-9.364,26.505-14.28c0-1.347-0.727-3.313-1.459-4.459c-1.93-2.548-4.11-4.905-6.478-7.035
	c0.614,0.668,0.816,1.514,0.843,2.03c0.199,3.351-5.281,7.85-16.36,11.532c-6.908,2.293-16.058,4.486-27.39,4.486
	c-19.123,0-25.712-7.247-25.712-11.783c0-0.479-0.102-4.363,4.335-8.042c-4.059,3.238-7.59,7.108-10.448,11.459
	c-0.315,0.515-0.493,1.106-0.493,1.813C9.965,30.122,21.295,36.136,36.763,38.101z M22.517,13.448
	c0.356,4.977,13.562,8.896,29.494,8.495c15.935-0.417,28.136-4.992,28.136-9.982c0-1.425-1.071-2.71-2.965-3.807
	C69.798,3.804,61.188,1.309,52,1.309c-9.606,0-18.555,2.724-26.155,7.426C23.589,10.17,22.406,11.795,22.517,13.448z"/>
<path d="M145.878,68.771c-0.318-0.901-0.409-1.896-0.431-2.332l-0.029-18.053c0-8.675-6.139-11.762-11.88-11.762
	c-4.549,0-8.693,1.192-11.364,2.973c-0.483,0.347-0.538,0.865-0.281,1.286l2.113,2.86c0.519,0.579,1.037,0.42,1.578,0.018
	c2.084-1.298,4.549-2.044,7.058-2.044c7.085,0,6.876,5.548,6.876,6.269c0,0.367-0.222,0.461-0.488,0.453l-1.093-0.023
	c-5.498-0.202-19.444,1.671-19.444,12.728c0,6.492,5.413,9.807,10.463,9.807c4.893,0,8.828-1.942,10.804-4.335
	c0.109-0.132,0.236-0.002,0.236,0.065c-0.003,0.302,0,0.989,0.063,1.585c0.109,1.464,0.396,1.916,1.099,1.981l3.926,0.002
	c0.511,0,0.925-0.411,0.925-0.903C146.01,69.186,145.878,68.771,145.878,68.771z M139.772,55.912
	c-0.8,5.671-3.591,8.939-8.745,9.785c-3.627,0.597-6.915-0.897-7.091-4.781c-0.198-4.27,4.762-7.853,13.916-7.459
	c0,0,0.675,0.038,1.127,0.095C140.011,53.678,140.014,54.219,139.772,55.912z"/>
<path d="M159.77,28.026l-4.101,0.315c-0.496,0-0.921,0.423-0.921,0.94v6.881c0,0.272-0.223,0.491-0.497,0.491l-4.967-0.004
	c-0.521,0-0.944,0.422-0.944,0.94l-0.012,3.473c0.012,0.257,0.116,0.493,0.296,0.661c0.187,0.174,0.427,0.267,0.681,0.262h4.95
	c0.271,0,0.495,0.22,0.495,0.491l-0.004,16.585c0,8.9,6.701,12.076,12.579,12.076c0,0,0.691,0.014,1.225-0.041
	c0.533-0.049,0.933-0.42,0.933-0.938v-3.257c0-0.517-0.414-0.933-1.044-0.933c-5.049,0-7.707-2.674-7.707-7.947V42.476
	c0-0.271,0.22-0.491,0.495-0.491h7.911c0.521,0,0.944-0.422,0.944-0.939v-3.45c0-0.521-0.423-0.943-0.944-0.943h-7.888
	c-0.287,0-0.518-0.227-0.518-0.513v-7.143C160.747,28.495,160.335,28.026,159.77,28.026L159.77,28.026z"/>
<path d="M189.634,62.796c-1.624,1.932-3.413,3.233-6.009,3.233c-3.076,0-5.485-2.212-5.485-5.031c0-2.501,1.067-3.99,4.232-5.898
	c0.22-0.127,0.467-0.102,0.621,0.053l6.604,6.909C189.837,62.348,189.728,62.476,189.634,62.796L189.634,62.796z M184.235,48.389
	c-0.177,0.095-0.488,0.06-0.63-0.091c-0.971-1.061-2.142-2.779-2.142-4.001c0-2.077,1.485-3.695,3.669-3.695
	c2.11,0,3.248,1.454,3.248,3.231C188.381,45.911,186.469,47.143,184.235,48.389z M202.941,68.541l-6.29-6.494
	c-0.184-0.152-0.263-0.461-0.09-0.711l4.8-8.078c0.106-0.219,0.118-0.381,0.118-0.454c0-0.509-0.413-0.926-0.925-0.926h-3.516
	c-0.357,0-0.667,0.183-0.838,0.479l-3.041,5.255c-0.139,0.199-0.44,0.251-0.661,0.103l-4.912-5.055
	c-0.156-0.293-0.031-0.396,0.074-0.678c2.806-1.641,5.97-4.016,5.97-8.202c0-4.804-3.448-8.028-8.58-8.028
	c-5.029,0-8.843,3.365-8.843,8.387c0,2.212,0.924,4.414,2.906,6.943c0.043,0.315-0.021,0.43-0.121,0.51
	c-4.185,2.377-6.293,5.526-6.293,9.377c0,6.533,5.466,9.954,10.872,9.954c3.707,0,6.6-1.424,9.413-4.66
	c0.194-0.194,0.502-0.194,0.692-0.006l3.42,3.54c0.226,0.225,0.459,0.314,0.705,0.314l4.467,0.006c0.514,0,0.937-0.42,0.937-0.931
	C203.206,68.944,203.105,68.713,202.941,68.541z"/>
<path d="M222.762,66.901c0-0.365-0.272-1.002-1.144-0.931c-5.049,0-7.609-2.676-7.609-7.949V42.476c0-0.271,0.222-0.491,0.494-0.491
	h7.913c0.522,0,0.947-0.422,0.947-0.939v-3.45c0-0.521-0.425-0.943-0.947-0.943h-7.886c-0.289,0-0.521-0.227-0.521-0.513v-7.143
	c0-0.732-0.616-1-1.009-0.971l-4.047,0.315c-0.501,0-0.925,0.423-0.925,0.94v6.881c0,0.272-0.224,0.491-0.494,0.491l-4.969-0.004
	c-0.518,0-0.942,0.422-0.942,0.94l-0.006,3.473c-0.003,0.545,0.472,0.922,0.971,0.922h4.949c0.269,0,0.493,0.22,0.493,0.491V59.06
	c0,8.901,6.7,12.077,12.574,12.077c0,0,0.699,0.014,1.231-0.041c0.531-0.049,0.927-0.42,0.927-0.939v-3.255H222.762z"/>
<g>
	<g>
		<path fill="#E9E9E9" d="M22.719-77.898c-0.002,0.001-0.004,0.001-0.006,0.002c0.02,0.023,0.044,0.044,0.065,0.068
			c0.183,0.208,0.382,0.414,0.593,0.619c0.033,0.033,0.068,0.064,0.102,0.096c0.212,0.203,0.438,0.404,0.679,0.603
			c0.025,0.021,0.045,0.043,0.071,0.063l0.002-0.001c1.728,1.411,4.169,2.717,7.463,3.693c-0.001,0-0.002,0.001-0.003,0.001
			c0.035,0.012,0.077,0.019,0.112,0.03c0.567,0.167,1.16,0.321,1.778,0.467c0.072,0.017,0.141,0.036,0.214,0.052
			c0.683,0.155,1.402,0.296,2.147,0.425c0.012,0.002,0.022,0.004,0.034,0.007h0.001c2.718,0.463,5.85,0.736,9.454,0.736
			c6.604,0,12.423-0.783,17.466-1.886c0.006,0,0.012,0.001,0.019,0.002c0.07-0.015,0.136-0.033,0.207-0.048
			c0.29-0.064,0.566-0.134,0.851-0.199c0.653-0.152,1.294-0.307,1.919-0.468c0.313-0.081,0.62-0.162,0.927-0.245
			c0.601-0.162,1.187-0.328,1.76-0.496c0.258-0.075,0.52-0.15,0.772-0.227c0.798-0.241,1.577-0.486,2.32-0.732
			c1.361-0.452,2.631-0.918,3.815-1.392c0.048-0.019,0.1-0.038,0.146-0.056c-0.001-0.001-0.005-0.001-0.008-0.001
			c3.176-1.281,5.703-2.625,7.59-3.956c0.007-0.003,0.015-0.009,0.022-0.015c1.2-0.848,2.139-1.689,2.812-2.504
			c0.036-0.043,0.066-0.086,0.101-0.13c0.174-0.219,0.33-0.437,0.465-0.651c0.036-0.057,0.07-0.113,0.104-0.169
			c0.123-0.209,0.226-0.416,0.313-0.621c0.013-0.031,0.035-0.063,0.046-0.093c-0.001-0.001-0.003-0.001-0.005-0.003
			c0.199-0.504,0.299-0.993,0.272-1.457c-0.021-0.409-0.171-1.031-0.552-1.597c0.005,0.004,0.012,0.008,0.019,0.013l-0.263-0.349
			c-0.003-0.002-0.005-0.004-0.009-0.006c-0.001-0.002-0.002-0.005-0.004-0.006c-0.684-0.614-1.391-1.202-2.11-1.775
			c-0.253-0.203-0.513-0.395-0.769-0.593c-0.467-0.356-0.937-0.705-1.417-1.043c-0.186-0.132-0.361-0.275-0.549-0.405
			c-0.054-0.033-0.114-0.06-0.168-0.091c-0.868-0.591-1.75-1.164-2.657-1.695c0.604,0.349,1.11,0.72,1.53,1.108
			c0.115,0.107,0.222,0.214,0.322,0.322c0.048,0.052,0.097,0.104,0.142,0.157c0.085,0.101,0.162,0.204,0.234,0.307
			c0.047,0.064,0.094,0.128,0.134,0.194c0.056,0.092,0.104,0.184,0.15,0.277c0.039,0.078,0.081,0.154,0.112,0.233
			c0.036,0.087,0.06,0.177,0.087,0.267c0.077,0.255,0.128,0.517,0.128,0.784c0,1.27-0.833,2.511-2.331,3.657h-0.002
			c-0.834,0.643-1.879,1.251-3.104,1.82c-0.062,0.028-0.126,0.056-0.188,0.084c-0.234,0.106-0.476,0.211-0.724,0.314
			c-0.082,0.035-0.164,0.069-0.247,0.103c-0.252,0.103-0.514,0.204-0.778,0.304c-0.071,0.026-0.139,0.052-0.21,0.079
			c-1.052,0.386-2.195,0.746-3.422,1.074c-0.023,0.005-0.045,0.011-0.067,0.017c-2.936,0.781-6.337,1.384-10.06,1.747
			c0.009,0.001,0.02,0.002,0.029,0.003c-1.875,0.184-3.832,0.308-5.852,0.362c-4.302,0.108-8.396-0.113-12.066-0.592
			c0.006-0.001,0.011-0.001,0.017-0.002c-1.239-0.162-2.427-0.35-3.558-0.565c-0.057-0.01-0.111-0.022-0.168-0.034
			c-0.407-0.079-0.803-0.163-1.194-0.249c-0.2-0.044-0.399-0.088-0.595-0.134c-0.405-0.094-0.803-0.191-1.19-0.292
			c-3.451-0.909-6.146-2.098-7.774-3.459c-0.289-0.24-0.541-0.483-0.758-0.731c-0.003-0.004-0.006-0.008-0.01-0.012
			c-0.203-0.232-0.372-0.469-0.516-0.71c-0.257-0.441-0.41-0.895-0.443-1.359c-0.107-1.583,1.026-3.14,3.189-4.516
			c-1.654,1.024-3.235,2.136-4.733,3.344c-4.252,3.525-4.153,7.245-4.153,7.705C20.793-81.001,21.385-79.435,22.719-77.898z"/>
		<path fill="#E9E9E9" d="M7.668-53.624L7.668-53.624c0.08,0.346,0.179,0.694,0.288,1.042c0.048,0.155,0.104,0.311,0.158,0.465
			c0.041,0.117,0.076,0.235,0.119,0.352c0.002-0.004,0.004-0.01,0.007-0.016c0.746,2.024,1.906,4.038,3.465,5.943
			c-0.001,0.003-0.004,0.009-0.006,0.014c0.091,0.114,0.196,0.225,0.291,0.337c0.121,0.142,0.242,0.284,0.368,0.425
			c0.261,0.293,0.534,0.582,0.816,0.867c2.063,2.104,4.653,4.008,7.737,5.559c-0.003,0.006-0.007,0.012-0.01,0.018
			c0.152,0.076,0.316,0.143,0.471,0.217c0.347,0.167,0.703,0.328,1.062,0.486c0.229,0.1,0.459,0.2,0.693,0.296
			c0.455,0.188,0.917,0.371,1.392,0.544c0.096,0.036,0.186,0.077,0.282,0.111c0.002-0.003,0.004-0.006,0.006-0.01
			c0.417,0.151,0.828,0.308,1.26,0.444c2.39,0.752,4.618,1.375,6.776,1.873l0,0.001c0.029,0.006,0.057,0.012,0.085,0.019
			c1.257,0.287,2.491,0.533,3.716,0.733c0.032,0.006,0.066,0.013,0.099,0.019l0-0.001c8.746,1.415,17.178,0.59,31.623-2.631
			c1.221-0.272,2.384-0.556,3.516-0.847c0.738-0.188,1.461-0.38,2.164-0.576c0.313-0.089,0.61-0.179,0.915-0.267
			c0.347-0.102,0.705-0.2,1.04-0.303c-0.002-0.002-0.005-0.004-0.007-0.006c4.397-1.333,8.04-2.8,11.051-4.325
			c0.069-0.035,0.142-0.069,0.209-0.104c0.403-0.206,0.789-0.414,1.169-0.622c0.12-0.066,0.243-0.132,0.362-0.199
			c0.372-0.208,0.731-0.416,1.082-0.625c0.034-0.02,0.073-0.04,0.106-0.062c0-0.001-0.001-0.001-0.001-0.002
			c2.335-1.403,4.211-2.831,5.695-4.228c0.002,0.002,0.003,0.004,0.003,0.005c0.323-0.306,0.625-0.608,0.912-0.911
			c0.13-0.136,0.25-0.268,0.373-0.403c0.132-0.143,0.265-0.289,0.39-0.432c0.142-0.162,0.275-0.324,0.406-0.485
			c0.093-0.111,0.185-0.222,0.271-0.332c0.146-0.187,0.286-0.374,0.423-0.557c0.023-0.035,0.054-0.069,0.076-0.103
			c0-0.001,0-0.002,0-0.002c0.992-1.374,1.659-2.658,2.101-3.796c0,0.001,0.002,0.003,0.002,0.004
			c0.027-0.072,0.047-0.137,0.072-0.207c0.071-0.191,0.139-0.378,0.196-0.56c0.02-0.062,0.039-0.12,0.056-0.179
			c0.07-0.229,0.134-0.449,0.188-0.661c0.004-0.016,0.007-0.033,0.011-0.047c0.246-0.987,0.326-1.777,0.349-2.307
			c0-0.01,0-0.019,0.002-0.027c0.003-0.12,0.007-0.225,0.009-0.317c0-0.011,0-0.021,0-0.032c0-0.09,0-0.169,0-0.228
			c0-0.632-0.067-1.776-0.29-3.029c-0.013-0.074-0.024-0.146-0.04-0.221c-0.009-0.049-0.02-0.099-0.029-0.148
			c-0.024-0.126-0.048-0.252-0.076-0.379c-0.01-0.033-0.017-0.065-0.024-0.097c0-0.001,0-0.001,0-0.001s0,0,0-0.002
			c-0.103-0.415-0.203-0.829-0.314-1.254c-0.024-0.054-0.055-0.104-0.079-0.157c-0.102-0.376-0.201-0.755-0.312-1.126l0.043,0.075
			c-0.041-0.129-0.088-0.267-0.133-0.399c-0.027-0.087-0.046-0.178-0.074-0.265c0.022,0.073,0.037,0.139,0.056,0.21
			c-0.004-0.009-0.006-0.019-0.009-0.028c0.04,0.132,0.074,0.253,0.099,0.374l0.003,0.006c0.075,0.305,0.135,0.594,0.182,0.864
			c0.043,0.255,0.072,0.488,0.095,0.709c0.008,0.066,0.016,0.134,0.021,0.196c0.017,0.195,0.029,0.38,0.037,0.544
			c0.002,0.062,0.002,0.116,0.004,0.174c0.002,0.12,0.004,0.238,0.004,0.336c0,0.175-0.004,0.326-0.004,0.431
			c0,0.086-0.006,0.196-0.016,0.315c-0.001,0.031-0.005,0.067-0.009,0.101c-0.009,0.098-0.021,0.206-0.039,0.32
			c-0.006,0.042-0.012,0.082-0.019,0.125c-0.051,0.327-0.13,0.711-0.252,1.145c-0.006,0.024-0.013,0.051-0.021,0.075
			c-0.058,0.202-0.124,0.416-0.199,0.638c-0.011,0.03-0.021,0.059-0.029,0.088c-0.269,0.766-0.646,1.636-1.183,2.568
			c0.002,0.001,0.002,0.002,0.002,0.003c-0.589,1.035-1.367,2.146-2.389,3.277c-0.203,0.226-0.421,0.452-0.645,0.679
			c-0.06,0.06-0.116,0.119-0.175,0.18c-0.173,0.172-0.362,0.345-0.548,0.519c-0.124,0.113-0.243,0.228-0.371,0.343
			c-0.123,0.11-0.259,0.219-0.387,0.329c-0.198,0.167-0.39,0.333-0.6,0.5c-0.109,0.085-0.229,0.172-0.342,0.258
			c-2.613,2.005-6.14,3.92-10.918,5.414c-1.208,0.375-2.495,0.726-3.866,1.042h0.001c-2.885,0.671-6.138,1.2-9.817,1.535
			c-2.32,0.203-18.259,0.464-33.285-2.714c0.001-0.002,0.002-0.002,0.004-0.003c-1.183-0.241-2.354-0.518-3.515-0.808
			c-0.748-0.194-1.485-0.385-2.221-0.606c-0.001,0.001-0.003,0.002-0.004,0.003c-3.75-1.074-7.421-2.461-10.642-4.135
			c-0.277-0.142-0.545-0.292-0.816-0.438c-0.288-0.16-0.574-0.319-0.854-0.483c-0.166-0.097-0.333-0.193-0.495-0.29
			c-2.513-1.522-4.636-3.245-6.143-5.157c-0.082-0.104-0.161-0.209-0.238-0.314c-0.861-1.156-1.506-2.375-1.866-3.663
			c-0.136-0.486-0.173-0.953-0.167-1.408c0.004-0.174,0.013-0.348,0.031-0.518c0.011-0.109,0.021-0.22,0.037-0.328
			c0.031-0.207,0.071-0.409,0.117-0.608c0.02-0.088,0.035-0.178,0.056-0.264c-0.019,0.065-0.033,0.133-0.051,0.199
			c-0.164,0.581-0.312,1.17-0.452,1.765c-0.046,0.197-0.089,0.397-0.133,0.597c-0.059,0.263-0.12,0.522-0.175,0.785
			c0.009-0.031,0.025-0.067,0.035-0.1c-0.384,1.868-0.671,3.774-0.831,5.715C7.258-55.733,7.41-54.683,7.668-53.624z"/>
		<path fill="#E9E9E9" d="M11.085-67.547c0.014,0.083,0.02,0.168,0.036,0.251c0.004-0.004,0.009-0.007,0.012-0.012
			c0.301,1.613,1.063,3.205,2.255,4.726c-0.004,0.003-0.007,0.007-0.011,0.009c0.28,0.358,0.593,0.708,0.921,1.054
			c0.093,0.098,0.192,0.194,0.289,0.293c0.105,0.106,0.202,0.214,0.312,0.319c0.002-0.002,0.005-0.005,0.008-0.006
			c1.447,1.408,3.257,2.729,5.402,3.914c0,0.001-0.001,0.001-0.002,0.003c0.021,0.012,0.043,0.022,0.064,0.034
			c0.223,0.123,0.455,0.242,0.685,0.361c0.297,0.156,0.597,0.31,0.906,0.461c0.124,0.06,0.25,0.117,0.376,0.177
			c0.269,0.128,0.531,0.258,0.808,0.381c0.005-0.003,0.011-0.006,0.016-0.01c3.803,1.682,8.366,2.972,13.507,3.689
			c-0.004,0.002-0.008,0.003-0.013,0.005c0.09,0.013,0.187,0.019,0.277,0.031c0.969,0.131,1.955,0.246,2.963,0.334
			c0.047,0.004,0.091,0.01,0.139,0.013c1.053,0.09,2.129,0.154,3.222,0.196c0.204,0.007,0.409,0.01,0.614,0.017
			c0.947,0.027,1.907,0.036,2.882,0.025c0.175-0.001,0.348,0,0.523-0.003c1.12-0.021,2.256-0.068,3.408-0.142
			c0.19-0.013,0.383-0.031,0.576-0.045c0.989-0.071,1.99-0.163,3.002-0.276c0.247-0.027,0.492-0.053,0.74-0.083
			c1.184-0.143,2.377-0.309,3.587-0.512c0.128-0.021,0.259-0.048,0.388-0.071c1.078-0.185,2.167-0.398,3.263-0.632
			c0.302-0.066,0.603-0.13,0.906-0.199c1.229-0.276,2.464-0.574,3.713-0.914c4.117-1.127,8.932-2.608,13.484-4.458
			c0.001,0.002,0.002,0.002,0.004,0.003c0.188-0.077,0.373-0.159,0.561-0.236c0.317-0.131,0.633-0.265,0.947-0.401
			c0.229-0.098,0.455-0.196,0.68-0.297c0.399-0.177,0.794-0.356,1.185-0.539c0.227-0.106,0.45-0.213,0.673-0.321
			c0.37-0.178,0.735-0.359,1.097-0.543c0.194-0.098,0.387-0.198,0.578-0.298c0.46-0.241,0.915-0.486,1.355-0.737
			c0.027-0.015,0.057-0.03,0.084-0.045c-0.001-0.001-0.003-0.001-0.003-0.002c1.215-0.693,2.348-1.423,3.382-2.188
			c0.004,0.002,0.009,0.004,0.013,0.007c0.164-0.121,0.317-0.245,0.475-0.368c0.011-0.008,0.022-0.017,0.033-0.025
			c0.264-0.206,0.519-0.413,0.767-0.623c0.046-0.04,0.093-0.08,0.14-0.12c0.206-0.177,0.405-0.356,0.599-0.538
			c0.079-0.074,0.159-0.148,0.237-0.225c0.154-0.146,0.3-0.295,0.446-0.446c0.104-0.108,0.21-0.217,0.311-0.327
			c0.108-0.12,0.212-0.239,0.315-0.36c0.121-0.141,0.242-0.283,0.356-0.426c0.072-0.093,0.144-0.188,0.214-0.284
			c0.126-0.168,0.251-0.338,0.367-0.508c0.05-0.076,0.097-0.152,0.145-0.227c0.121-0.19,0.24-0.381,0.347-0.574
			c0.038-0.065,0.069-0.129,0.103-0.195c0.108-0.202,0.21-0.406,0.302-0.613c0.007-0.018,0.017-0.033,0.026-0.05
			c-0.002,0-0.004,0-0.004,0c0.144-0.332,0.263-0.667,0.365-1.007c0.002,0.002,0.008,0.004,0.011,0.007
			c0.019-0.067,0.026-0.136,0.045-0.203c0.058-0.213,0.104-0.428,0.144-0.645c0.022-0.125,0.048-0.249,0.065-0.375
			c0.044-0.333,0.073-0.671,0.073-1.013c0-0.346,0.096-1.026-0.44-2.406c-0.017-0.042-0.028-0.079-0.045-0.123
			c-0.042-0.105-0.103-0.227-0.152-0.342c-0.073-0.165-0.142-0.326-0.233-0.509c-0.006-0.012-0.013-0.026-0.019-0.038
			c-0.131-0.262-0.271-0.534-0.44-0.833c-0.019-0.032-0.039-0.061-0.06-0.092c0-0.001,0-0.003-0.002-0.004
			c-0.022-0.036-0.047-0.071-0.069-0.106c-0.39-0.628-0.789-1.249-1.208-1.861c-0.446-0.65-0.906-1.291-1.379-1.92
			c0.703,1.099,1.399,2.981,1.399,4.273c0,0.304-0.02,0.618-0.061,0.941c-0.002,0.004-0.002,0.009-0.002,0.013
			c-0.043,0.322-0.107,0.653-0.198,0.99c0,0.003-0.002,0.004-0.002,0.006c-0.09,0.339-0.207,0.684-0.352,1.033
			c-0.002,0.005-0.004,0.008-0.006,0.013c-0.143,0.343-0.314,0.69-0.515,1.039c-0.253,0.437-0.551,0.876-0.905,1.314
			c-0.07,0.087-0.147,0.176-0.223,0.263c-0.345,0.403-0.737,0.803-1.181,1.198c-0.085,0.076-0.169,0.152-0.259,0.227
			c-0.133,0.113-0.271,0.227-0.415,0.338c-0.104,0.083-0.209,0.162-0.317,0.244c-0.143,0.106-0.285,0.213-0.435,0.319
			c-0.183,0.127-0.373,0.252-0.565,0.376c-0.18,0.117-0.366,0.232-0.556,0.347c-0.194,0.115-0.389,0.232-0.595,0.344
			c-0.128,0.072-0.263,0.144-0.397,0.215c-0.233,0.123-0.471,0.245-0.718,0.365c-0.111,0.054-0.221,0.109-0.335,0.163
			c-0.373,0.175-0.758,0.348-1.164,0.517c0,0,0.001,0,0.002,0.001c-1.67,0.693-3.625,1.321-5.896,1.86
			c-0.484,0.115-0.983,0.227-1.498,0.332c-0.319,0.066-0.651,0.129-0.983,0.192c-0.482,0.091-0.978,0.179-1.487,0.262
			c-0.248,0.04-0.49,0.083-0.745,0.121c-0.735,0.112-1.499,0.215-2.288,0.311c-0.201,0.025-0.408,0.047-0.613,0.071
			c-0.868,0.098-1.755,0.189-2.688,0.267c-7.054,0.58-15.521-0.089-21.767-0.774c-0.019-0.002-0.04-0.004-0.059-0.006
			c-0.528-0.057-1.036-0.117-1.529-0.172c-0.096-0.012-0.19-0.023-0.285-0.034c-0.418-0.049-0.824-0.098-1.213-0.145
			c-0.066-0.009-0.136-0.018-0.201-0.025c-0.427-0.052-0.837-0.104-1.224-0.151c-0.167-0.022-0.323-0.042-0.482-0.062
			c-0.177-0.022-0.353-0.044-0.52-0.066c-0.485-0.062-0.934-0.12-1.324-0.169c-1.104-0.136-2.178-0.302-3.226-0.484
			c-4.065-0.696-7.76-1.676-10.928-2.822c-0.229-0.083-0.458-0.166-0.682-0.251c-0.133-0.051-0.265-0.103-0.396-0.153
			c-0.416-0.162-0.825-0.324-1.214-0.491c0,0,0,0-0.001,0.001c-2.525-1.067-4.617-2.234-6.166-3.422
			c-0.251-0.194-0.492-0.389-0.715-0.584c-0.032-0.028-0.062-0.056-0.093-0.084c-0.234-0.21-0.458-0.421-0.658-0.633
			c-1.032-1.079-1.594-2.15-1.594-3.152c0-0.504,0.095-0.946,0.268-1.344c0.006-0.014,0.014-0.027,0.02-0.04
			c0.055-0.122,0.115-0.24,0.185-0.354c-0.022,0.033-0.041,0.069-0.063,0.102c0.009-0.018,0.017-0.036,0.026-0.053
			c-0.133,0.204-0.265,0.41-0.397,0.616l0.092-0.107c-1.018,1.584-1.953,3.225-2.787,4.922c-0.466,1.101-0.732,2.332-0.802,3.941
			c-0.006,0.007-0.013,0.014-0.018,0.021c-0.012,0.253-0.012,0.52-0.012,0.787c0,0.314,0.025,0.633,0.063,0.953
			C11.051-67.764,11.068-67.656,11.085-67.547z"/>
		<path fill="#E9E9E9" d="M95.396-29.012c-0.002,0.002-0.004,0.005-0.006,0.007c-0.308,0.367-0.634,0.737-0.978,1.112
			c-0.002,0.001-0.002,0.002-0.004,0.002c-0.684,0.741-1.444,1.493-2.277,2.244c-0.028,0.026-0.058,0.053-0.086,0.08
			c-0.403,0.36-0.82,0.72-1.257,1.08c-0.007,0.008-0.016,0.015-0.024,0.021c-2.355,1.937-5.206,3.828-8.522,5.486
			c0.001-0.001,0.002-0.002,0.002-0.003c-0.717,0.359-1.466,0.708-2.233,1.045c-0.182,0.082-0.371,0.159-0.555,0.238
			c-0.563,0.24-1.138,0.473-1.722,0.697c-10.665,4.087-25.136,5.568-42.991-0.114c-0.001-0.001-0.003-0.005-0.004-0.007
			c-0.376-0.121-0.757-0.251-1.137-0.377c-0.521-0.174-1.046-0.355-1.573-0.541c-0.428-0.15-0.854-0.298-1.286-0.458
			c0.002,0.004,0.004,0.008,0.006,0.012c-1.2-0.441-2.413-0.912-3.642-1.419c-1.434-0.593-2.784-1.259-4.052-1.974
			c-0.001-0.002-0.002-0.004-0.003-0.007c-0.771-0.434-1.507-0.882-2.208-1.346c-0.002-0.001-0.005-0.003-0.007-0.005
			c-0.703-0.463-1.372-0.941-2.011-1.429c0,0.001,0,0.002,0.001,0.003c-2.236-1.703-4.058-3.507-5.42-5.211
			c-0.343-0.429-0.662-0.853-0.945-1.265c-0.019-0.029-0.036-0.056-0.056-0.084c-0.3-0.443-0.569-0.876-0.801-1.292
			c0.006,0.014,0.013,0.027,0.02,0.041c-0.014-0.024-0.031-0.051-0.044-0.075c0.05,0.105,0.11,0.204,0.16,0.309
			c0.421,0.885,0.873,1.751,1.348,2.604c0.062,0.111,0.12,0.225,0.183,0.334c0.532,0.936,1.097,1.848,1.685,2.74
			c0.058,0.089,0.115,0.177,0.172,0.264c0.111,0.166,0.216,0.335,0.329,0.5c-0.04-0.062-0.069-0.129-0.107-0.194
			c1.228,1.801,2.563,3.524,4.021,5.132c0.437,0.411,0.898,0.787,1.354,1.168c0.008,0.017,0.016,0.033,0.024,0.049
			c0.123,0.103,0.251,0.195,0.375,0.296c0.174,0.139,0.348,0.276,0.524,0.412c0.567,0.437,1.142,0.862,1.731,1.26
			c0.106,0.071,0.215,0.136,0.321,0.206c0.576,0.38,1.161,0.738,1.754,1.082c0.101,0.059,0.201,0.119,0.303,0.177
			c0.125,0.069,0.248,0.146,0.374,0.216c-0.008-0.011-0.015-0.021-0.022-0.032c3.059,1.68,6.287,2.897,9.463,3.777
			c0.004,0.004,0.008,0.007,0.012,0.011c0.151,0.041,0.3,0.073,0.451,0.113c0.617,0.165,1.23,0.32,1.84,0.46
			c0.26,0.061,0.518,0.116,0.776,0.173c0.508,0.109,1.009,0.212,1.508,0.306c0.192,0.037,0.391,0.084,0.583,0.12
			c-0.008-0.006-0.017-0.013-0.024-0.018c4.761,0.854,9.065,1.054,11.981,1.054c8.724,0,15.851-1.304,21.646-3.268
			c-0.003,0.003-0.007,0.006-0.009,0.009c0.569-0.194,1.126-0.395,1.67-0.601c0.211-0.08,0.412-0.163,0.619-0.246
			c0.337-0.132,0.676-0.265,1.004-0.4c0.311-0.13,0.613-0.264,0.915-0.398c0.224-0.098,0.449-0.195,0.668-0.296
			c0.273-0.126,0.54-0.254,0.807-0.382c0.149-0.072,0.305-0.141,0.451-0.213c0.003-0.004,0.005-0.007,0.007-0.012
			c3.919-1.941,7.025-4.155,9.439-6.299c-0.001,0.003-0.001,0.007-0.002,0.011c0.154-0.139,0.29-0.272,0.439-0.411
			c0.237-0.217,0.471-0.435,0.695-0.65c0.154-0.148,0.305-0.296,0.454-0.444c0.331-0.33,0.652-0.657,0.952-0.979
			c0.032-0.034,0.063-0.067,0.094-0.102c0.332-0.358,0.638-0.706,0.933-1.049c0.061-0.071,0.12-0.141,0.179-0.209
			c0.607-0.721,1.131-1.397,1.579-2.018c0.024-0.035,0.046-0.066,0.07-0.099c0.436-0.61,0.8-1.161,1.094-1.634
			c0.04-0.062,0.073-0.119,0.11-0.178c0.083-0.137,0.16-0.265,0.231-0.387c0.036-0.06,0.08-0.13,0.112-0.186l0.099-0.184
			l-0.002-0.014c0.427-0.815,0.835-1.636,1.209-2.474C97.553-31.896,96.628-30.487,95.396-29.012z"/>
		<path fill="#E9E9E9" d="M101.024-45.496c-0.207,0.45-0.453,0.926-0.727,1.414c-0.024,0.044-0.047,0.086-0.071,0.13
			c-0.273,0.479-0.581,0.974-0.919,1.478c-1.081,1.616-2.51,3.336-4.387,5.033c-0.253,0.229-0.521,0.457-0.79,0.685
			c-0.13,0.108-0.251,0.219-0.386,0.328c-0.274,0.225-0.567,0.449-0.859,0.671c-0.925,0.706-1.927,1.401-3.03,2.073
			c-0.029,0.017-0.057,0.036-0.086,0.054c-2.19,1.325-4.755,2.556-7.723,3.626c-0.398,0.145-0.799,0.287-1.211,0.425
			c-0.339,0.114-0.689,0.219-1.037,0.328c-0.354,0.109-0.701,0.221-1.067,0.324c-4.99,1.438-10.988,2.429-18.199,2.688
			c-6.762,0.239-17.253-1.393-26.443-3.92c-0.994-0.266-1.958-0.55-2.908-0.84c-2.371-0.727-4.614-1.506-6.623-2.329
			c-0.439-0.18-0.878-0.373-1.317-0.568c-0.576-0.256-1.148-0.527-1.713-0.813c-0.088-0.045-0.175-0.091-0.263-0.136
			c-0.491-0.252-0.979-0.514-1.462-0.784c-2.759-1.552-5.333-3.407-7.438-5.418c-0.227-0.219-0.453-0.437-0.669-0.657
			c-0.062-0.064-0.122-0.129-0.184-0.194c-0.273-0.285-0.541-0.57-0.79-0.861c0,0.001,0,0.001-0.001,0.001
			c-1.569-1.802-2.724-3.691-3.266-5.575c-0.019-0.071-0.037-0.142-0.054-0.211c-0.092-0.35-0.171-0.699-0.22-1.047
			c0.045,0.708,0.111,1.404,0.188,2.099c0.014,0.135,0.032,0.268,0.048,0.403c0.038,0.32,0.071,0.642,0.116,0.962
			c-0.008-0.077-0.008-0.155-0.015-0.232c0.056,0.413,0.105,0.828,0.172,1.236c0.559,3.051,1.496,5.727,2.7,8.109
			c0.002,0.025,0.002,0.052,0.005,0.078c0.104,0.203,0.222,0.389,0.329,0.588c0.119,0.218,0.239,0.433,0.362,0.646
			c0.219,0.377,0.445,0.747,0.679,1.108c0.168,0.262,0.34,0.521,0.516,0.776c0.074,0.105,0.14,0.22,0.215,0.324
			c-0.002-0.012-0.003-0.025-0.004-0.038c1.686,2.356,3.684,4.333,5.885,5.984c0,0.006,0,0.012,0.001,0.019
			c0.134,0.102,0.276,0.188,0.413,0.286c0.369,0.269,0.742,0.528,1.121,0.779c0.282,0.186,0.565,0.369,0.853,0.546
			c0.306,0.187,0.614,0.368,0.925,0.547c0.221,0.126,0.437,0.268,0.66,0.389c-0.001-0.007-0.001-0.015-0.002-0.023
			c2.328,1.265,4.776,2.259,7.248,3.034c0,0.003,0,0.005,0.001,0.009c0.121,0.038,0.242,0.07,0.363,0.106
			c0.285,0.087,0.569,0.171,0.855,0.252c0.356,0.102,0.71,0.2,1.067,0.292c0.283,0.075,0.563,0.146,0.846,0.213
			c0.136,0.033,0.271,0.071,0.406,0.102c0-0.001,0-0.005-0.001-0.007c9.163,2.155,17.871,1.673,20.604,1.372
			c11.478-1.273,20.195-3.5,26.852-6.151c0.423-0.168,0.842-0.334,1.247-0.505c0.226-0.096,0.447-0.191,0.668-0.288
			c0.274-0.12,0.561-0.238,0.829-0.359c-0.001-0.006-0.002-0.01-0.003-0.015c2.68-1.221,4.98-2.507,6.942-3.822
			c0.001,0.002,0.002,0.005,0.003,0.007c0.176-0.119,0.333-0.239,0.505-0.357c0.306-0.212,0.613-0.425,0.901-0.637
			c0.248-0.182,0.48-0.363,0.715-0.544c0.238-0.184,0.476-0.368,0.702-0.552c0.25-0.203,0.486-0.405,0.722-0.607
			c0.197-0.17,0.392-0.34,0.581-0.51c0.214-0.194,0.423-0.388,0.626-0.583c0.216-0.207,0.425-0.413,0.628-0.619
			c0.079-0.08,0.168-0.161,0.246-0.242c-0.002-0.002-0.002-0.005-0.004-0.007c1.996-2.07,3.342-4.071,4.249-5.835
			c0.04-0.075,0.077-0.149,0.114-0.223c0.117-0.238,0.229-0.471,0.333-0.698c0.032-0.073,0.065-0.144,0.098-0.215
			c0.109-0.254,0.214-0.502,0.307-0.743c0.01-0.022,0.019-0.045,0.028-0.067c0.657-1.701,0.908-3.04,1.023-3.776
			c0.084-0.777,0.167-1.547,0.229-2.333C102.132-48.396,101.755-47.063,101.024-45.496z"/>
	</g>
</g>
<path fill="#E9E9E9" d="M144.676-35.857c-0.307-0.864-0.393-1.816-0.414-2.234l-0.028-17.295c0-8.31-5.881-11.268-11.382-11.268
	c-4.357,0-8.328,1.142-10.887,2.848c-0.462,0.332-0.517,0.829-0.271,1.232l2.025,2.74c0.5,0.555,0.993,0.402,1.514,0.017
	c1.998-1.244,4.359-1.958,6.763-1.958c6.786,0,6.588,5.314,6.588,6.005c0,0.351-0.215,0.439-0.47,0.433l-1.047-0.021
	c-5.265-0.194-18.628,1.6-18.628,12.194c0,6.22,5.188,9.394,10.023,9.394c4.688,0,8.46-1.86,10.35-4.15
	c0.106-0.128,0.228-0.003,0.228,0.061c-0.001,0.29,0,0.948,0.062,1.52c0.104,1.402,0.379,1.836,1.054,1.898l3.76,0.003
	c0.488,0,0.888-0.395,0.888-0.867C144.803-35.459,144.676-35.857,144.676-35.857z M138.826-48.177
	c-0.768,5.433-3.44,8.564-8.377,9.375c-3.477,0.572-6.626-0.858-6.795-4.581c-0.189-4.09,4.562-7.523,13.334-7.146
	c0,0,0.646,0.037,1.077,0.091C139.053-50.316,139.055-49.8,138.826-48.177z"/>
<path fill="#E9E9E9" d="M157.985-74.891l-3.934,0.301c-0.473,0-0.881,0.406-0.881,0.901v6.592c0,0.261-0.212,0.47-0.476,0.47
	l-4.757-0.004c-0.498,0-0.905,0.405-0.905,0.9l-0.01,3.327c0.01,0.246,0.109,0.474,0.283,0.634c0.18,0.167,0.408,0.256,0.651,0.25
	h4.741c0.261,0,0.476,0.211,0.476,0.471l-0.004,15.888c0,8.528,6.42,11.569,12.052,11.569c0,0,0.661,0.013,1.172-0.039
	c0.51-0.047,0.895-0.403,0.895-0.899v-3.12c0-0.496-0.398-0.893-1.001-0.893c-4.837,0-7.386-2.563-7.386-7.616v-14.892
	c0-0.26,0.213-0.471,0.474-0.471h7.582c0.497,0,0.903-0.405,0.903-0.899v-3.305c0-0.499-0.406-0.904-0.903-0.904h-7.559
	c-0.274,0-0.497-0.217-0.497-0.492v-6.842C158.92-74.444,158.524-74.891,157.985-74.891L157.985-74.891z"/>
<path fill="#E9E9E9" d="M186.595-41.582c-1.556,1.852-3.271,3.099-5.756,3.099c-2.948,0-5.255-2.121-5.255-4.822
	c0-2.396,1.022-3.822,4.055-5.65c0.211-0.123,0.447-0.099,0.594,0.049l6.326,6.62C186.789-42.011,186.685-41.889,186.595-41.582
	L186.595-41.582z M181.424-55.384c-0.172,0.091-0.47,0.056-0.604-0.088c-0.931-1.016-2.055-2.661-2.055-3.834
	c0-1.989,1.425-3.54,3.52-3.54c2.02,0,3.109,1.394,3.109,3.096C185.395-57.758,183.562-56.579,181.424-55.384z M199.343-36.077
	l-6.024-6.223c-0.177-0.146-0.252-0.442-0.087-0.681l4.599-7.74c0.103-0.21,0.112-0.366,0.112-0.436
	c0-0.487-0.396-0.887-0.886-0.887h-3.367c-0.343,0-0.64,0.175-0.804,0.459l-2.915,5.034c-0.131,0.191-0.42,0.241-0.631,0.098
	l-4.707-4.842c-0.149-0.28-0.03-0.379,0.071-0.648c2.688-1.573,5.719-3.848,5.719-7.858c0-4.603-3.304-7.691-8.22-7.691
	c-4.819,0-8.471,3.224-8.471,8.035c0,2.12,0.884,4.229,2.783,6.652c0.04,0.301-0.02,0.411-0.116,0.487
	c-4.008,2.277-6.028,5.293-6.028,8.983c0,6.258,5.237,9.535,10.416,9.535c3.551,0,6.322-1.364,9.019-4.463
	c0.187-0.187,0.481-0.187,0.662-0.006l3.277,3.392c0.217,0.215,0.441,0.303,0.675,0.303l4.28,0.005c0.494,0,0.896-0.403,0.896-0.891
	C199.597-35.689,199.502-35.913,199.343-36.077z"/>
<path fill="#E9E9E9" d="M218.331-37.649c0-0.352-0.261-0.96-1.094-0.891c-4.839,0-7.292-2.565-7.292-7.618v-14.892
	c0-0.26,0.213-0.471,0.475-0.471h7.581c0.499,0,0.907-0.405,0.907-0.899v-3.305c0-0.499-0.408-0.904-0.907-0.904h-7.557
	c-0.278,0-0.499-0.217-0.499-0.492v-6.842c0-0.701-0.589-0.958-0.967-0.929L205.1-74.59c-0.479,0-0.886,0.406-0.886,0.901v6.592
	c0,0.261-0.214,0.47-0.472,0.47l-4.763-0.004c-0.493,0-0.899,0.405-0.899,0.9l-0.008,3.327c0,0.522,0.453,0.884,0.932,0.884h4.74
	c0.26,0,0.472,0.211,0.472,0.471v15.888c0,8.528,6.42,11.569,12.048,11.569c0,0,0.669,0.013,1.18-0.039
	c0.508-0.047,0.888-0.403,0.888-0.899V-37.649z"/>
<image display="none" overflow="visible" width="159" height="146" xlink:href="company-att.png"  transform="matrix(1.41 0 0 1.41 -0.2773 -103.1143)">
</image>
</svg>
