<?xml version="1.0" encoding="utf-8"?>
<!-- Generator: Adobe Illustrator 16.0.0, SVG Export Plug-In . SVG Version: 6.00 Build 0)  -->
<!DOCTYPE svg PUBLIC "-//W3C//DTD SVG 1.1//EN" "http://www.w3.org/Graphics/SVG/1.1/DTD/svg11.dtd">
<svg version="1.1" id="Layer_1" xmlns="http://www.w3.org/2000/svg" xmlns:xlink="http://www.w3.org/1999/xlink" x="0px" y="0px"
	 width="130.167px" height="258.417px" viewBox="1.25 -127.167 130.167 258.417"
	 enable-background="new 1.25 -127.167 130.167 258.417" xml:space="preserve">
<path fill="#FF6726" d="M59.378,66.76L30.88,94.156c0,0-2.036,2.035-2.799,2.629c0,0-1.951,2.036,0,3.646
	c0,0,3.478,2.459,7.125-0.679l30.025-27.735c0,0,18.746,18.235,29.687,27.905c0,0,3.139,2.884,6.275,2.036
	c0,0,1.697-0.85,2.035-2.121c0,0,0.772-1.467-0.998-3.075c-0.084-0.077-0.176-0.155-0.273-0.231
	c-2.12-1.697-23.325-22.394-30.958-29.771l5.343-5.259c0,0,1.951-2.206,2.545-4.834c0,0,0.17-2.291,11.366-7.379l2.205,2.714
	c0,0,0.424,0.848,1.272,0.254c0,0,0.934-1.188,1.611-0.17l3.987,5.174c0,0,1.103,1.272,2.544,0.424c0,0,1.781-0.763,2.036-2.375
	c0,0,0.679-0.849-0.763-2.46l-17.219-23.07c0,0-2.035-1.02-2.799,0c-0.763,1.017-1.611,4.241,0.339,5.852l2.121,3.138
	c0,0,0.763,0.594,0.169,1.103c0,0-1.695,1.272-0.933,2.035l1.356,1.527c0,0-2.799,1.527-11.789,9.246l-9.247,8.481l-9.415-8.397
	c0,0-6.616-5.937-11.111-8.396l1.103-1.696c0,0,1.018-0.934-0.509-1.697c0,0-1.357-0.763-0.339-1.696l3.647-4.496
	c0,0,0.17-2.205-0.424-3.986c0,0-0.509-1.499-1.696-1.47c0,0-0.679-0.99-6.022,6.475L27.214,53.613c0,0-1.291,1.781,0,3.308
	c0,0,1.885,3.223,4.09,1.018l3.223-4.92c0,0,0.933-1.272,2.036-0.679c0,0,0.933,1.188,2.206-0.254l1.526-2.121
	c0,0,6.701,2.206,11.875,7.38C52.169,57.345,50.896,60.144,59.378,66.76z"/>
<g>
	<g>
		<path fill="#FF6726" d="M61.204,42.401c0.749,0.394,1.947,0.787,3.164,0.787c1.311,0,2.004-0.543,2.004-1.386
			c0-0.768-0.6-1.235-2.116-1.76c-2.097-0.749-3.482-1.91-3.482-3.763c0-2.153,1.816-3.782,4.774-3.782
			c1.441,0,2.472,0.281,3.22,0.636l-0.637,2.284c-0.486-0.243-1.404-0.599-2.621-0.599c-1.235,0-1.834,0.581-1.834,1.217
			c0,0.805,0.692,1.161,2.34,1.798c2.229,0.824,3.258,1.984,3.258,3.781c0,2.116-1.61,3.914-5.073,3.914
			c-1.442,0-2.864-0.394-3.576-0.787L61.204,42.401z"/>
	</g>
</g>
<g>
	<g>
		<path fill="#FF6726" d="M30.83,64.696c1.048-0.188,2.415-0.28,3.838-0.28c2.415,0,3.988,0.393,5.186,1.311
			c1.311,0.973,2.134,2.546,2.134,4.792c0,2.414-0.88,4.082-2.078,5.111c-1.329,1.104-3.37,1.628-5.841,1.628
			c-1.479,0-2.546-0.093-3.239-0.188V64.696z M33.676,74.975c0.243,0.057,0.655,0.057,0.992,0.057
			c2.603,0.019,4.306-1.404,4.306-4.418c0-2.715-1.535-4.008-4.007-4.008c-0.618,0-1.048,0.057-1.292,0.113L33.676,74.975
			L33.676,74.975z"/>
	</g>
</g>
<g>
	<g>
		<path fill="#FF6726" d="M99.791,76.791c-0.505,0.244-1.704,0.543-3.221,0.543c-4.362,0-6.608-2.732-6.608-6.347
			c0-4.306,3.07-6.685,6.89-6.685c1.479,0,2.604,0.299,3.108,0.562l-0.601,2.247c-0.561-0.244-1.366-0.468-2.396-0.468
			c-2.247,0-4.006,1.366-4.006,4.193c0,2.527,1.498,4.119,4.024,4.119c0.881,0,1.816-0.168,2.396-0.412L99.791,76.791z"/>
	</g>
</g>
<path fill="#FF6726" d="M66.333,1.083C30.389,1.083,1.25,30.221,1.25,66.166s29.139,65.084,65.083,65.084
	c35.946,0,65.084-29.139,65.084-65.084S102.279,1.083,66.333,1.083z M66.333,126.727c-33.446,0-60.56-27.113-60.56-60.561
	s27.114-60.56,60.56-60.56c33.447,0,60.562,27.113,60.562,60.56S99.78,126.727,66.333,126.727z"/>
<path fill="#E9E9E9" d="M60.164-65.779L33.527-40.172c0,0-1.903,1.903-2.617,2.458c0,0-1.823,1.903,0,3.41
	c0,0,3.251,2.299,6.66-0.635l28.064-25.924c0,0,17.521,17.044,27.75,26.083c0,0,2.933,2.695,5.865,1.903
	c0,0,1.586-0.793,1.902-1.982c0,0,0.724-1.371-0.934-2.874c-0.078-0.073-0.164-0.145-0.255-0.217
	c-1.981-1.586-21.801-20.93-28.938-27.827l4.995-4.916c0,0,1.824-2.062,2.379-4.519c0,0,0.159-2.141,10.622-6.898l2.062,2.537
	c0,0,0.396,0.792,1.19,0.238c0,0,0.871-1.11,1.505-0.159l3.728,4.836c0,0,1.029,1.188,2.378,0.396c0,0,1.665-0.714,1.903-2.22
	c0,0,0.634-0.793-0.714-2.3l-16.095-21.563c0,0-1.902-0.952-2.615,0c-0.713,0.951-1.507,3.964,0.316,5.47l1.982,2.933
	c0,0,0.712,0.556,0.158,1.031c0,0-1.586,1.189-0.872,1.902l1.269,1.428c0,0-2.615,1.427-11.02,8.642l-8.641,7.927l-8.8-7.849
	c0,0-6.184-5.549-10.386-7.848l1.031-1.585c0,0,0.952-0.873-0.476-1.586c0,0-1.269-0.713-0.317-1.586l3.409-4.202
	c0,0,0.159-2.061-0.396-3.726c0,0-0.476-1.401-1.586-1.374c0,0-0.634-0.925-5.628,6.052L30.101-78.067c0,0-1.207,1.665,0,3.092
	c0,0,1.761,3.013,3.823,0.951l3.013-4.598c0,0,0.872-1.189,1.903-0.635c0,0,0.872,1.111,2.062-0.237l1.427-1.982
	c0,0,6.263,2.062,11.099,6.897C53.426-74.579,52.237-71.963,60.164-65.779z"/>
<g>
	<g>
		<path fill="#E9E9E9" d="M61.871-88.547c0.7,0.368,1.82,0.735,2.958,0.735c1.225,0,1.873-0.508,1.873-1.295
			c0-0.717-0.561-1.154-1.978-1.645c-1.96-0.7-3.255-1.785-3.255-3.518c0-2.013,1.698-3.535,4.463-3.535
			c1.348,0,2.311,0.262,3.009,0.595l-0.595,2.135c-0.455-0.227-1.312-0.56-2.45-0.56c-1.153,0-1.714,0.542-1.714,1.137
			c0,0.753,0.647,1.085,2.187,1.681c2.083,0.77,3.046,1.855,3.046,3.534c0,1.978-1.506,3.658-4.744,3.658
			c-1.347,0-2.676-0.368-3.342-0.735L61.871-88.547z"/>
	</g>
</g>
<g>
	<g>
		<path fill="#E9E9E9" d="M33.48-67.708c0.979-0.175,2.257-0.262,3.587-0.262c2.257,0,3.728,0.367,4.848,1.225
			c1.225,0.91,1.995,2.38,1.995,4.48c0,2.256-0.822,3.814-1.942,4.777c-1.242,1.032-3.15,1.522-5.46,1.522
			c-1.382,0-2.38-0.087-3.027-0.175V-67.708z M36.14-58.1c0.228,0.052,0.613,0.052,0.928,0.052c2.433,0.018,4.025-1.312,4.025-4.129
			c0-2.538-1.435-3.745-3.745-3.745c-0.577,0-0.98,0.053-1.208,0.105V-58.1z"/>
	</g>
</g>
<g>
	<g>
		<path fill="#E9E9E9" d="M97.938-56.403c-0.474,0.228-1.592,0.507-3.01,0.507c-4.078,0-6.179-2.555-6.179-5.932
			c0-4.025,2.87-6.248,6.441-6.248c1.381,0,2.432,0.28,2.904,0.525l-0.561,2.101c-0.524-0.228-1.277-0.438-2.24-0.438
			c-2.1,0-3.744,1.277-3.744,3.92c0,2.362,1.4,3.851,3.763,3.851c0.822,0,1.697-0.158,2.239-0.385L97.938-56.403z"/>
	</g>
</g>
<path fill="#E9E9E9" d="M66.666-127.167c-33.598,0-60.834,27.235-60.834,60.833S33.068-5.5,66.666-5.5
	c33.598,0,60.834-27.236,60.834-60.834S100.264-127.167,66.666-127.167z M66.666-9.729c-31.263,0-56.606-25.343-56.606-56.605
	c0-31.263,25.343-56.605,56.606-56.605c31.262,0,56.605,25.342,56.605,56.605C123.271-35.071,97.928-9.729,66.666-9.729z"/>
<image display="none" overflow="visible" width="96" height="192" xlink:href="company-dsc.png"  transform="matrix(1.3759 0 0 1.3759 0 -131.9175)">
</image>
</svg>
