<?xml version="1.0" encoding="utf-8"?>
<!-- Generator: Adobe Illustrator 16.0.0, SVG Export Plug-In . SVG Version: 6.00 Build 0)  -->
<!DOCTYPE svg PUBLIC "-//W3C//DTD SVG 1.1//EN" "http://www.w3.org/Graphics/SVG/1.1/DTD/svg11.dtd">
<svg version="1.1" id="Layer_1" xmlns="http://www.w3.org/2000/svg" xmlns:xlink="http://www.w3.org/1999/xlink" x="0px" y="0px"
	 width="250.003px" height="169.703px" viewBox="1.196 -83.462 250.003 169.703"
	 enable-background="new 1.196 -83.462 250.003 169.703" xml:space="preserve">
<g>
	<g>
		<path fill="#0064D2" d="M162.498,2.044c-1.646,0-2.984,1.339-2.984,2.983c0,1.646,1.338,2.984,2.984,2.984
			s2.984-1.339,2.984-2.984C165.482,3.383,164.145,2.044,162.498,2.044"/>
		<polygon fill="#0064D2" points="160.355,48.891 160.355,16.185 164.646,16.185 164.646,18.036 164.646,48.891 		"/>
		<path fill="#0064D2" d="M198.886,48.891V29.32c0-3.856-1.007-6.654-3.022-8.388c-2.016-1.733-4.606-2.603-7.771-2.603
			c-1.733,0-3.405,0.272-5.009,0.813c-1.604,0.542-3.012,1.39-4.225,2.535c-1.213,1.149-2.178,2.603-2.894,4.359
			c-0.715,1.754-1.073,3.848-1.073,6.274v16.581H170.6V23.793c0-0.348-0.011-0.867-0.033-1.562
			c-0.021-0.693-0.043-1.419-0.064-2.179c-0.021-0.757-0.043-1.495-0.062-2.211c-0.023-0.714-0.033-1.268-0.033-1.657h4.096
			l0.26,7.087c0.303-0.736,0.791-1.57,1.463-2.503c0.672-0.931,1.582-1.811,2.731-2.632c1.147-0.824,2.524-1.518,4.127-2.083
			c1.604-0.562,3.469-0.845,5.593-0.845c4.424,0,7.943,1.128,10.566,3.381c2.623,2.255,3.935,5.787,3.935,10.6v19.7h-4.291V48.891z"
			/>
		<path fill="#0064D2" d="M236.471,46.939c-2.875,1.949-6.824,2.925-11.843,2.925c-2.899,0-5.476-0.388-7.726-1.168
			c-2.248-0.782-4.152-1.919-5.711-3.415c-1.557-1.493-2.735-3.305-3.535-5.429c-0.803-2.124-1.202-4.53-1.202-7.217
			s0.442-5.104,1.33-7.251c0.886-2.146,2.142-3.977,3.764-5.494c1.624-1.517,3.58-2.676,5.874-3.479
			c2.293-0.802,4.848-1.202,7.659-1.202c2.12,0,4.099,0.228,5.938,0.683c1.838,0.455,3.472,1.139,4.899,2.049
			c1.425,0.91,2.616,2.069,3.565,3.479c0.955,1.408,1.604,3.065,1.951,4.973h-4.554c-0.521-2.6-1.798-4.594-3.836-5.98
			c-2.036-1.389-4.66-2.082-7.867-2.082c-1.995,0-3.847,0.314-5.561,0.944c-1.711,0.629-3.207,1.548-4.486,2.761
			c-1.278,1.216-2.287,2.71-3.021,4.488c-0.74,1.778-1.106,3.793-1.106,6.046c0,2.124,0.304,4.054,0.91,5.788
			s1.495,3.22,2.666,4.455c1.171,1.233,2.622,2.201,4.356,2.892c1.732,0.693,3.705,1.042,5.916,1.042
			c3.599,0,6.426-0.693,8.486-2.081c2.059-1.388,3.326-3.358,3.803-5.918h4.551C241.093,42.259,239.348,44.99,236.471,46.939"/>
		<path fill="#0064D2" d="M111.651,42.714V27.528c0-9.333-7.454-12.473-16.278-12.473c-7.367,0-15.745,2.017-16.572,9.992h7.809
			c0.341-3.198,3.636-5.051,8.108-5.051c6.025,0,9.502,2.229,9.502,7.651v0.793c-2.937,0-6.488,0.009-9.65,0.081
			c-11.564,0.267-18.224,3.121-18.224,11.22c0,5.592,4.896,10.426,14.043,10.426c6.167,0,10.612-1.319,14.35-5.914
			c0,1.524,0.067,3.099,0.25,4.683h6.914C111.714,47.012,111.651,44.878,111.651,42.714z M104.219,34.148
			c0,6.97-4.163,11.22-11.959,11.22c-5.816,0-8.107-3.115-8.107-5.986c0-4.439,4.188-5.656,10.926-5.877
			c3.037-0.101,6.407-0.125,9.141-0.125L104.219,34.148L104.219,34.148z"/>
		<path fill="#0064D2" d="M38.609,32.518c0-11.977-7.683-17.462-18.167-17.462c-13.171,0-19.246,7.136-19.246,17.971
			c0,9.843,5.873,17.142,19.125,17.142c7.289,0,15.758-2.704,17.249-10.675h-7.665c-1.32,3.929-5.261,5.732-9.694,5.732
			c-6.393,0-11.046-3.986-11.448-10.732h29.846V32.518z M8.925,29.551c0.807-6.627,5.424-9.554,11.208-9.554
			c5.362,0,10.381,2.603,10.668,9.554H8.925z"/>
		<path fill="#0064D2" d="M59.635,15.056c-4.938,0-9.957,1.26-13.598,5.6l0.002-18.669h-7.43v39.273
			c0,2.377-0.127,5.314-0.253,7.675h7.292c0.167-1.459,0.253-3.004,0.253-4.533c3.129,3.832,8.205,5.767,13.597,5.767
			c10.301,0,17.615-7.358,17.615-17.463C77.113,20.644,67.916,15.056,59.635,15.056z M57.671,45.086
			c-6.868,0-11.632-4.972-11.632-12.473c0-7.502,4.765-12.476,11.632-12.476c6.907,0,11.632,4.973,11.632,12.476
			C69.304,40.114,64.579,45.086,57.671,45.086z"/>
		<polygon fill="#0064D2" points="149.491,16.292 126.514,61.418 118.192,61.418 124.8,48.888 107.508,16.292 116.202,16.292 
			128.927,41.757 141.615,16.292 		"/>
		<path fill="#0064D2" d="M242.928,16.291h0.621v0.847h0.941v0.431h-0.941v1.839c0,0.342,0.096,0.526,0.481,0.526
			c0.116,0,0.301-0.014,0.479-0.038v0.433c-0.205,0.025-0.408,0.037-0.599,0.037c-0.627,0-0.984-0.203-0.984-0.914v-1.883h-0.834
			v-0.431h0.834L242.928,16.291L242.928,16.291z"/>
		<path fill="#0064D2" d="M245.318,17.862c0-0.242-0.017-0.473-0.027-0.726h0.581c0.011,0.159,0.024,0.342,0.024,0.564h0.013
			c0.362-0.487,0.823-0.686,1.344-0.686c0.537,0,0.978,0.262,1.163,0.8c0.229-0.437,0.725-0.8,1.316-0.8
			c0.905,0,1.467,0.443,1.467,1.482v1.829h-0.625v-1.597c0-0.774-0.225-1.283-0.899-1.283c-0.546,0-1.106,0.376-1.106,1.423v1.457
			h-0.618v-1.635c0-0.858-0.296-1.245-0.868-1.245c-0.547,0-1.146,0.394-1.146,1.334v1.546h-0.617V17.862L245.318,17.862z"/>
	</g>
</g>
<g>
	<g>
		<path fill="#0064D2" d="M48.549,80.936c-0.088,1.144-0.417,1.98-0.989,2.513c-0.571,0.532-1.428,0.799-2.571,0.799
			c-1.357,0-2.339-0.449-2.944-1.349c-0.605-0.898-0.908-2.344-0.908-4.336c0-1.914,0.31-3.317,0.93-4.211
			c0.62-0.895,1.594-1.341,2.922-1.341c1.025,0,1.838,0.27,2.439,0.806c0.601,0.537,0.916,1.279,0.945,2.228h2.71
			c-0.049-1.571-0.588-2.803-1.619-3.69c-1.031-0.889-2.429-1.334-4.197-1.334c-2.168,0-3.87,0.668-5.105,2
			c-1.235,1.334-1.853,3.177-1.853,5.529c0.01,2.607,0.583,4.541,1.721,5.801c1.138,1.26,2.883,1.891,5.237,1.891
			c1.836,0,3.252-0.444,4.248-1.333c0.996-0.89,1.563-2.212,1.699-3.97l0,0l0,0l0,0l0,0h-2.665V80.936z"/>
		<path fill="#0064D2" d="M75.652,84.523c0.225-0.282,0.425-0.58,0.601-0.894c0.02,0.479,0.054,0.89,0.103,1.229
			c0.059,0.519,0.142,0.841,0.249,0.968h2.519c-0.127-0.244-0.225-0.825-0.293-1.743s-0.103-2.061-0.103-3.428v-5.01
			c0-1.388-0.53-2.506-1.589-3.354s-2.454-1.274-4.182-1.274c-1.875,0-3.276,0.336-4.204,1.004c-0.928,0.67-1.445,1.727-1.553,3.172
			h2.783c0.059-0.685,0.332-1.219,0.82-1.604c0.488-0.387,1.133-0.579,1.934-0.579c1.171,0,2.02,0.21,2.547,0.631
			c0.527,0.42,0.791,1.088,0.791,2.006l0.003,1.217h-2.402c-2.247,0-4.009,0.432-5.289,1.297c-1.279,0.863-1.919,2.058-1.919,3.581
			c0,1.405,0.466,2.507,1.399,3.304c0.933,0.795,2.224,1.193,3.875,1.193l0,0l0,0l0,0l0,0l0,0l0,0l0,0
			C73.401,86.238,74.705,85.667,75.652,84.523L75.652,84.523z M76.079,79.91c-0.01,1.426-0.337,2.505-0.981,3.236
			c-0.644,0.732-1.616,1.1-2.915,1.1c-0.967,0-1.714-0.217-2.241-0.652c-0.527-0.434-0.791-1.047-0.791-1.838
			c0-0.977,0.374-1.709,1.121-2.197c0.747-0.487,1.873-0.731,3.377-0.731h2.432L76.079,79.91L76.079,79.91L76.079,79.91z"/>
		<path fill="#0064D2" d="M94.991,85.828h1.333h1.318v-7.324c0-1.748,0.332-3.02,0.996-3.816c0.664-0.795,1.733-1.192,3.208-1.192
			l0.542,0.028v-2.476l-0.718-0.028c-1.65-0.011-2.994,0.614-4.028,1.875v-1.466h-1.333h-1.318V85.828L94.991,85.828L94.991,85.828
			L94.991,85.828L94.991,85.828L94.991,85.828L94.991,85.828L94.991,85.828z"/>
		<path fill="#0064D2" d="M127.887,84.949c1.051-0.859,1.678-2.104,1.883-3.735h-2.739c-0.117,0.947-0.485,1.688-1.105,2.228
			c-0.62,0.537-1.414,0.806-2.381,0.806c-1.367,0-2.368-0.483-3.002-1.45c-0.557-0.85-0.87-2.095-0.938-3.734h10.268l0.028-0.968
			c0-2.305-0.536-4.061-1.61-5.266c-1.074-1.207-2.632-1.81-4.672-1.81c-2.11,0-3.768,0.695-4.974,2.086
			c-1.206,1.394-1.809,3.31-1.809,5.75c0,2.306,0.601,4.111,1.802,5.42c1.201,1.31,2.861,1.964,4.981,1.964l0,0l0,0l0,0l0,0
			C125.413,86.238,126.837,85.809,127.887,84.949z M119.632,77.083c0.117-1.123,0.429-2.026,0.938-2.71
			c0.674-0.908,1.616-1.362,2.827-1.362c1.396,0,2.383,0.392,2.959,1.173c0.458,0.614,0.732,1.582,0.82,2.899l0,0l0,0H119.632z"/>
		<path fill="#0064D2" d="M155.927,84.949c1.05-0.859,1.677-2.104,1.882-3.735h-2.738c-0.116,0.947-0.485,1.688-1.105,2.228
			c-0.62,0.537-1.413,0.806-2.38,0.806c-1.368,0-2.369-0.483-3.004-1.45c-0.558-0.85-0.869-2.095-0.938-3.734h10.271l0.028-0.968
			c0-2.305-0.537-4.061-1.61-5.266c-1.075-1.207-2.633-1.81-4.674-1.81c-2.109,0-3.767,0.695-4.974,2.086
			c-1.205,1.394-1.809,3.31-1.809,5.75c0,2.306,0.6,4.111,1.801,5.42c1.201,1.31,2.861,1.964,4.98,1.964l0,0l0,0l0,0l0,0
			C153.453,86.238,154.877,85.809,155.927,84.949z M147.672,77.083c0.117-1.123,0.43-2.026,0.938-2.71
			c0.675-0.908,1.617-1.362,2.828-1.362c1.396,0,2.383,0.392,2.959,1.173c0.459,0.614,0.732,1.582,0.82,2.899l0,0l0,0H147.672z"/>
		<path fill="#0064D2" d="M173.588,85.828h1.334h1.318v-7.324c0-1.748,0.33-3.02,0.996-3.816c0.662-0.795,1.731-1.192,3.207-1.192
			l0.543,0.028v-2.476l-0.719-0.028c-1.65-0.011-2.994,0.614-4.027,1.875v-1.466h-1.334h-1.318V85.828L173.588,85.828
			L173.588,85.828L173.588,85.828L173.588,85.828L173.588,85.828L173.588,85.828L173.588,85.828z"/>
		<path fill="#0064D2" d="M207.105,75.311c0-1.338-0.502-2.388-1.502-3.148c-1.002-0.762-2.381-1.143-4.138-1.143
			c-1.758,0-3.135,0.371-4.131,1.112c-0.996,0.742-1.494,1.769-1.494,3.076c0,1.035,0.287,1.854,0.863,2.461
			c0.585,0.604,1.541,1.089,2.868,1.45l2.927,0.791c0.752,0.205,1.308,0.464,1.668,0.775c0.366,0.313,0.549,0.693,0.549,1.144
			c0,0.771-0.293,1.367-0.878,1.787s-1.411,0.63-2.474,0.63c-1.017,0-1.812-0.242-2.388-0.725c-0.576-0.484-0.863-1.155-0.863-2.016
			h-2.739c0,1.543,0.51,2.719,1.53,3.521c1.021,0.808,2.507,1.209,4.46,1.209c1.864,0,3.327-0.411,4.387-1.237
			c1.06-0.824,1.589-1.96,1.589-3.405c0-1.035-0.32-1.865-0.964-2.49c-0.653-0.635-1.729-1.156-3.224-1.566l-2.93-0.791
			c-0.587-0.156-1.017-0.381-1.289-0.674c-0.283-0.293-0.426-0.664-0.426-1.113c0-0.615,0.26-1.094,0.775-1.436
			c0.518-0.342,1.244-0.514,2.182-0.514c0.908,0,1.617,0.205,2.131,0.615c0.512,0.41,0.769,0.973,0.769,1.686l0,0l0,0l0,0l0,0
			H207.105L207.105,75.311z"/>
	</g>
</g>
<g>
	<g>
		<path fill="#E9E9E9" d="M161.047-83.407c-1.572,0-2.851,1.278-2.851,2.849c0,1.571,1.278,2.85,2.851,2.85
			c1.571,0,2.85-1.279,2.85-2.85C163.896-82.129,162.618-83.407,161.047-83.407"/>
		<polygon fill="#E9E9E9" points="159,-38.669 159,-69.903 163.098,-69.903 163.098,-68.134 163.098,-38.669 		"/>
		<path fill="#E9E9E9" d="M195.799-38.669v-18.69c0-3.683-0.963-6.355-2.888-8.01s-4.399-2.485-7.42-2.485
			c-1.656,0-3.251,0.26-4.783,0.777c-1.532,0.518-2.878,1.327-4.036,2.421c-1.158,1.098-2.08,2.485-2.763,4.164
			c-0.683,1.675-1.024,3.674-1.024,5.992v15.832h-4.1v-23.968c0-0.332-0.009-0.828-0.03-1.491c-0.021-0.662-0.041-1.355-0.062-2.081
			c-0.021-0.723-0.041-1.428-0.06-2.112c-0.022-0.682-0.032-1.21-0.032-1.583h3.912l0.248,6.768c0.289-0.703,0.755-1.5,1.396-2.39
			c0.642-0.889,1.512-1.729,2.608-2.514c1.097-0.787,2.41-1.449,3.942-1.989c1.532-0.536,3.313-0.807,5.341-0.807
			c4.224,0,7.586,1.077,10.091,3.229c2.505,2.153,3.757,5.526,3.757,10.123v18.814H195.799z"/>
		<path fill="#E9E9E9" d="M231.692-40.531c-2.746,1.862-6.519,2.793-11.311,2.793c-2.769,0-5.229-0.371-7.378-1.116
			c-2.146-0.747-3.966-1.832-5.454-3.261c-1.485-1.426-2.612-3.156-3.376-5.185c-0.765-2.028-1.147-4.327-1.147-6.892
			c0-2.567,0.423-4.875,1.271-6.925c0.845-2.05,2.045-3.798,3.595-5.247c1.551-1.448,3.419-2.556,5.609-3.323
			c2.189-0.766,4.629-1.148,7.314-1.148c2.025,0,3.913,0.217,5.672,0.652c1.755,0.435,3.315,1.087,4.68,1.957
			c1.36,0.87,2.499,1.977,3.406,3.323c0.911,1.345,1.53,2.927,1.862,4.749h-4.348c-0.496-2.483-1.718-4.387-3.664-5.711
			c-1.944-1.326-4.45-1.988-7.513-1.988c-1.906,0-3.674,0.3-5.311,0.901c-1.634,0.601-3.063,1.479-4.285,2.637
			c-1.221,1.161-2.184,2.588-2.885,4.287c-0.707,1.698-1.058,3.622-1.058,5.774c0,2.028,0.291,3.871,0.87,5.528
			c0.58,1.656,1.428,3.075,2.546,4.254c1.118,1.178,2.504,2.102,4.16,2.762c1.655,0.663,3.539,0.995,5.65,0.995
			c3.437,0,6.137-0.662,8.105-1.987c1.965-1.325,3.177-3.208,3.632-5.652h4.346C236.106-45.001,234.439-42.393,231.692-40.531"/>
		<path fill="#E9E9E9" d="M112.486-44.567v-14.502c0-8.913-7.118-11.912-15.545-11.912c-7.036,0-15.037,1.926-15.827,9.543h7.458
			c0.326-3.055,3.473-4.824,7.743-4.824c5.754,0,9.075,2.128,9.075,7.307v0.757c-2.805,0-6.195,0.008-9.216,0.078
			c-11.044,0.254-17.403,2.98-17.403,10.715c0,5.34,4.675,9.957,13.411,9.957c5.889,0,10.134-1.261,13.705-5.648
			c0,1.457,0.064,2.958,0.239,4.471h6.603C112.547-40.462,112.486-42.5,112.486-44.567z M105.389-52.747
			c0,6.656-3.975,10.715-11.421,10.715c-5.555,0-7.743-2.975-7.743-5.717c0-4.24,4-5.402,10.435-5.612
			c2.9-0.096,6.119-0.12,8.729-0.12V-52.747z"/>
		<path fill="#E9E9E9" d="M42.73-54.304c0-11.438-7.337-16.677-17.35-16.677C12.802-70.981,7-64.166,7-53.818
			c0,9.4,5.609,16.371,18.265,16.371c6.961,0,15.049-2.583,16.473-10.195h-7.32c-1.26,3.752-5.024,5.475-9.258,5.475
			c-6.105,0-10.549-3.807-10.933-10.25H42.73V-54.304z M14.381-57.138c0.771-6.329,5.18-9.124,10.704-9.124
			c5.121,0,9.914,2.485,10.188,9.124H14.381z"/>
		<path fill="#E9E9E9" d="M62.811-70.981c-4.716,0-9.509,1.203-12.986,5.348l0.001-17.829H42.73v37.508
			c0,2.27-0.122,5.076-0.242,7.329h6.963c0.16-1.393,0.242-2.869,0.242-4.328c2.988,3.66,7.836,5.506,12.985,5.506
			c9.838,0,16.823-7.027,16.823-16.678C79.502-65.645,70.719-70.981,62.811-70.981z M60.935-42.301
			c-6.559,0-11.109-4.748-11.109-11.912c0-7.165,4.55-11.914,11.109-11.914c6.596,0,11.109,4.749,11.109,11.914
			C72.044-47.049,67.531-42.301,60.935-42.301z"/>
		<polygon fill="#E9E9E9" points="148.625,-69.8 126.681,-26.704 118.734,-26.704 125.045,-38.67 108.53,-69.8 116.832,-69.8 
			128.986,-45.48 141.104,-69.8 		"/>
		<path fill="#E9E9E9" d="M237.858-69.801h0.594v0.809h0.898v0.412h-0.898v1.756c0,0.327,0.091,0.503,0.46,0.503
			c0.111,0,0.287-0.013,0.458-0.037v0.414c-0.196,0.024-0.39,0.035-0.571,0.035c-0.599,0-0.94-0.194-0.94-0.873v-1.798h-0.796
			v-0.412h0.796V-69.801z"/>
		<path fill="#E9E9E9" d="M240.142-68.3c0-0.231-0.015-0.452-0.026-0.692h0.556c0.01,0.152,0.024,0.327,0.024,0.539h0.011
			c0.347-0.465,0.786-0.655,1.283-0.655c0.513,0,0.933,0.25,1.11,0.764c0.218-0.417,0.692-0.764,1.259-0.764
			c0.864,0,1.399,0.424,1.399,1.416v1.747h-0.597v-1.525c0-0.739-0.214-1.225-0.858-1.225c-0.521,0-1.058,0.359-1.058,1.359v1.392
			h-0.591v-1.562c0-0.82-0.281-1.189-0.829-1.189c-0.522,0-1.094,0.375-1.094,1.274v1.477h-0.59V-68.3z"/>
	</g>
</g>
<g>
	<g>
		<path fill="#E9E9E9" d="M52.223-8.064c-0.084,1.091-0.399,1.892-0.944,2.399c-0.545,0.509-1.364,0.763-2.455,0.763
			c-1.296,0-2.234-0.429-2.812-1.287c-0.578-0.858-0.867-2.238-0.867-4.141c0-1.828,0.296-3.169,0.888-4.021
			c0.592-0.854,1.522-1.281,2.791-1.281c0.979,0,1.756,0.257,2.329,0.77c0.574,0.513,0.875,1.222,0.902,2.126h2.588
			c-0.047-1.501-0.562-2.677-1.546-3.525s-2.32-1.273-4.008-1.273c-2.07,0-3.695,0.637-4.875,1.909
			c-1.18,1.274-1.77,3.034-1.77,5.281c0.009,2.49,0.558,4.337,1.644,5.54S46.842-3,49.089-3c1.753,0,3.106-0.424,4.057-1.273
			s1.492-2.112,1.623-3.792l0,0l0,0l0,0l0,0H52.223z"/>
		<path fill="#E9E9E9" d="M78.107-4.637c0.215-0.271,0.406-0.555,0.574-0.854c0.019,0.457,0.051,0.849,0.098,1.175
			c0.056,0.494,0.135,0.802,0.238,0.923h2.406c-0.122-0.233-0.215-0.788-0.28-1.665c-0.065-0.876-0.098-1.968-0.098-3.273v-4.784
			c0-1.325-0.506-2.393-1.518-3.204c-1.012-0.812-2.343-1.217-3.994-1.217c-1.791,0-3.129,0.32-4.015,0.958
			c-0.887,0.64-1.38,1.649-1.483,3.029h2.658c0.056-0.653,0.317-1.164,0.783-1.532c0.466-0.369,1.082-0.553,1.847-0.553
			c1.118,0,1.929,0.201,2.433,0.602c0.503,0.401,0.755,1.04,0.755,1.917l0.002,1.161h-2.294c-2.146,0-3.829,0.412-5.051,1.238
			c-1.222,0.825-1.833,1.965-1.833,3.42c0,1.343,0.445,2.394,1.336,3.155C71.562-3.38,72.795-3,74.372-3l0,0l0,0l0,0l0,0l0,0l0,0
			l0,0C75.958-3,77.203-3.545,78.107-4.637L78.107-4.637z M78.515-9.043c-0.009,1.362-0.322,2.392-0.938,3.092
			c-0.615,0.699-1.543,1.049-2.784,1.049c-0.923,0-1.637-0.207-2.14-0.623c-0.504-0.414-0.756-1-0.756-1.755
			c0-0.933,0.357-1.632,1.071-2.099c0.713-0.466,1.789-0.699,3.225-0.699h2.323L78.515-9.043L78.515-9.043L78.515-9.043z"/>
		<path fill="#E9E9E9" d="M96.575-3.392h1.274h1.259v-6.995c0-1.669,0.316-2.883,0.951-3.645c0.634-0.759,1.654-1.14,3.063-1.14
			l0.518,0.028v-2.364l-0.686-0.028c-1.576-0.009-2.859,0.587-3.846,1.791v-1.399h-1.274h-1.259V-3.392L96.575-3.392L96.575-3.392
			L96.575-3.392L96.575-3.392L96.575-3.392L96.575-3.392L96.575-3.392z"/>
		<path fill="#E9E9E9" d="M127.992-4.231c1.002-0.821,1.602-2.01,1.798-3.567h-2.616c-0.112,0.905-0.464,1.613-1.057,2.126
			c-0.592,0.513-1.35,0.77-2.273,0.77c-1.306,0-2.261-0.462-2.867-1.385c-0.531-0.812-0.831-2-0.895-3.567h9.805l0.028-0.923
			c0-2.201-0.513-3.878-1.538-5.029c-1.026-1.153-2.514-1.728-4.462-1.728c-2.015,0-3.598,0.665-4.75,1.993
			c-1.152,1.33-1.728,3.16-1.728,5.491c0,2.201,0.574,3.926,1.722,5.176C120.305-3.625,121.891-3,123.915-3l0,0l0,0l0,0l0,0
			C125.63-3,126.989-3.41,127.992-4.231z M120.109-11.744c0.112-1.072,0.41-1.935,0.896-2.588c0.644-0.867,1.542-1.301,2.699-1.301
			c1.334,0,2.276,0.373,2.826,1.12c0.438,0.587,0.699,1.511,0.783,2.77l0,0l0,0H120.109z"/>
		<path fill="#E9E9E9" d="M154.771-4.231c1.003-0.821,1.602-2.01,1.798-3.567h-2.615c-0.112,0.905-0.465,1.613-1.057,2.126
			c-0.593,0.513-1.35,0.77-2.273,0.77c-1.307,0-2.262-0.462-2.868-1.385c-0.532-0.812-0.83-2-0.896-3.567h9.808l0.028-0.923
			c0-2.201-0.515-3.878-1.539-5.029c-1.027-1.153-2.515-1.728-4.464-1.728c-2.015,0-3.597,0.665-4.749,1.993
			c-1.151,1.33-1.728,3.16-1.728,5.491c0,2.201,0.573,3.926,1.72,5.176C147.083-3.625,148.669-3,150.692-3l0,0l0,0l0,0l0,0
			C152.408-3,153.769-3.41,154.771-4.231z M146.888-11.744c0.111-1.072,0.41-1.935,0.895-2.588c0.644-0.867,1.545-1.301,2.701-1.301
			c1.334,0,2.274,0.373,2.826,1.12c0.438,0.587,0.699,1.511,0.783,2.77l0,0l0,0H146.888z"/>
		<path fill="#E9E9E9" d="M171.638-3.392h1.274h1.259v-6.995c0-1.669,0.316-2.883,0.951-3.645c0.633-0.759,1.654-1.14,3.062-1.14
			l0.519,0.028v-2.364l-0.687-0.028c-1.576-0.009-2.858,0.587-3.846,1.791v-1.399h-1.274h-1.259V-3.392L171.638-3.392L171.638-3.392
			L171.638-3.392L171.638-3.392L171.638-3.392L171.638-3.392L171.638-3.392z"/>
		<path fill="#E9E9E9" d="M203.647-13.436c0-1.278-0.479-2.28-1.435-3.008c-0.955-0.728-2.272-1.091-3.95-1.091
			c-1.679,0-2.994,0.354-3.945,1.063c-0.951,0.708-1.427,1.688-1.427,2.938c0,0.989,0.274,1.772,0.824,2.351
			c0.559,0.578,1.472,1.04,2.739,1.385l2.795,0.755c0.719,0.196,1.249,0.443,1.593,0.742c0.351,0.298,0.524,0.662,0.524,1.091
			c0,0.737-0.279,1.306-0.838,1.707c-0.559,0.401-1.348,0.602-2.362,0.602c-0.971,0-1.73-0.231-2.279-0.692
			c-0.551-0.462-0.826-1.103-0.826-1.924h-2.615c0,1.474,0.486,2.596,1.461,3.364C194.881-3.384,196.301-3,198.166-3
			c1.781,0,3.177-0.394,4.189-1.183c1.012-0.787,1.517-1.872,1.517-3.252c0-0.989-0.307-1.781-0.92-2.378
			c-0.625-0.606-1.652-1.105-3.079-1.497l-2.798-0.756c-0.56-0.149-0.97-0.363-1.23-0.644c-0.271-0.279-0.406-0.634-0.406-1.063
			c0-0.587,0.247-1.044,0.74-1.371c0.495-0.326,1.188-0.49,2.084-0.49c0.867,0,1.544,0.196,2.035,0.588
			c0.488,0.392,0.732,0.928,0.732,1.609l0,0l0,0l0,0l0,0H203.647z"/>
	</g>
</g>
<image display="none" overflow="visible" width="176" height="122" xlink:href="company-ebayc.png"  transform="matrix(1.4262 0 0 1.4262 1.1958 -85)">
</image>
</svg>
