<?xml version="1.0" encoding="utf-8"?>
<!-- Generator: Adobe Illustrator 16.0.0, SVG Export Plug-In . SVG Version: 6.00 Build 0)  -->
<!DOCTYPE svg PUBLIC "-//W3C//DTD SVG 1.1//EN" "http://www.w3.org/Graphics/SVG/1.1/DTD/svg11.dtd">
<svg version="1.1" id="Layer_1" xmlns="http://www.w3.org/2000/svg" xmlns:xlink="http://www.w3.org/1999/xlink" x="0px" y="0px"
	 width="240.361px" height="114.368px" viewBox="0.887 -55.95 240.361 114.368"
	 enable-background="new 0.887 -55.95 240.361 114.368" xml:space="preserve">
<g>
	<g>
		<path fill="#0064D2" d="M155.967,1.334c-1.582,0-2.87,1.287-2.87,2.869s1.288,2.87,2.87,2.87s2.869-1.288,2.869-2.87
			S157.547,1.334,155.967,1.334"/>
		<polygon fill="#0064D2" points="153.907,46.374 153.907,14.929 158.032,14.929 158.032,16.71 158.032,46.374 		"/>
		<path fill="#0064D2" d="M190.952,46.374V27.558c0-3.708-0.97-6.397-2.906-8.064c-1.938-1.667-4.43-2.502-7.471-2.502
			c-1.666,0-3.273,0.262-4.816,0.782c-1.541,0.521-2.895,1.335-4.061,2.438c-1.168,1.104-2.095,2.501-2.781,4.19
			c-0.688,1.687-1.033,3.699-1.033,6.034v15.938h-4.125v-24.13c0-0.334-0.01-0.833-0.031-1.5c-0.021-0.668-0.042-1.365-0.062-2.096
			c-0.021-0.728-0.043-1.438-0.062-2.126c-0.022-0.686-0.032-1.218-0.032-1.594h3.938l0.25,6.815
			c0.291-0.709,0.761-1.512,1.406-2.408c0.646-0.895,1.521-1.739,2.625-2.53c1.104-0.792,2.428-1.459,3.969-2.002
			c1.541-0.54,3.336-0.812,5.377-0.812c4.252,0,7.636,1.084,10.158,3.251c2.521,2.168,3.783,5.562,3.783,10.19v18.941h-4.125V46.374
			z"/>
		<path fill="#0064D2" d="M227.084,44.498c-2.764,1.876-6.562,2.812-11.385,2.812c-2.789,0-5.265-0.373-7.428-1.123
			c-2.162-0.752-3.992-1.845-5.49-3.283c-1.496-1.437-2.63-3.176-3.398-5.219c-0.771-2.043-1.155-4.355-1.155-6.938
			s0.425-4.907,1.278-6.971c0.852-2.064,2.06-3.823,3.619-5.282c1.562-1.459,3.442-2.573,5.646-3.346
			c2.205-0.771,4.66-1.156,7.363-1.156c2.039,0,3.941,0.22,5.711,0.656c1.768,0.438,3.337,1.095,4.711,1.97
			c1.371,0.875,2.518,1.99,3.43,3.346c0.917,1.354,1.541,2.946,1.875,4.781h-4.377c-0.5-2.5-1.729-4.417-3.689-5.75
			c-1.957-1.336-4.479-2.002-7.562-2.002c-1.919,0-3.699,0.303-5.346,0.907c-1.645,0.604-3.083,1.488-4.312,2.656
			c-1.23,1.168-2.199,2.604-2.906,4.313c-0.711,1.71-1.063,3.648-1.063,5.812c0,2.043,0.291,3.897,0.875,5.564
			c0.583,1.668,1.438,3.095,2.563,4.283c1.125,1.186,2.521,2.115,4.188,2.779c1.667,0.668,3.562,1,5.688,1
			c3.459,0,6.179-0.666,8.16-2c1.979-1.332,3.197-3.229,3.655-5.688h4.375C231.529,39.998,229.852,42.624,227.084,44.498"/>
		<path fill="#0064D2" d="M107.081,40.436v-14.6c0-8.973-7.166-11.992-15.65-11.992c-7.083,0-15.137,1.939-15.933,9.606h7.508
			c0.328-3.074,3.496-4.854,7.795-4.854c5.793,0,9.135,2.144,9.135,7.356v0.762c-2.824,0-6.237,0.009-9.278,0.078
			c-11.118,0.257-17.521,3-17.521,10.786c0,5.376,4.707,10.023,13.501,10.023c5.929,0,10.202-1.271,13.797-5.688
			c0,1.467,0.064,2.979,0.24,4.502h6.647C107.141,44.568,107.081,42.516,107.081,40.436z M99.936,32.2
			c0,6.7-4.002,10.787-11.498,10.787c-5.592,0-7.795-2.994-7.795-5.755c0-4.269,4.025-5.439,10.504-5.65
			c2.92-0.098,6.161-0.121,8.789-0.121V32.2z"/>
		<path fill="#0064D2" d="M36.856,30.632c0-11.514-7.386-16.788-17.465-16.788c-12.663,0-18.504,6.861-18.504,17.278
			c0,9.463,5.647,16.479,18.388,16.479c7.008,0,15.149-2.601,16.583-10.264h-7.37c-1.269,3.777-5.058,5.512-9.32,5.512
			c-6.146,0-10.62-3.832-11.006-10.317h28.694V30.632L36.856,30.632z M8.317,27.78c0.776-6.371,5.215-9.186,10.775-9.186
			c5.156,0,9.98,2.502,10.257,9.186H8.317z"/>
		<path fill="#0064D2" d="M57.071,13.844c-4.747,0-9.572,1.212-13.074,5.384L44,1.279h-7.144v37.759
			c0,2.285-0.122,5.108-0.243,7.378h7.011c0.16-1.402,0.243-2.887,0.243-4.357c3.008,3.685,7.888,5.543,13.072,5.543
			c9.904,0,16.936-7.072,16.936-16.789C73.875,19.217,65.033,13.844,57.071,13.844z M55.184,42.716
			C48.581,42.716,44,37.936,44,30.725c0-7.213,4.582-11.993,11.184-11.993c6.641,0,11.184,4.78,11.184,11.993
			C66.367,37.936,61.825,42.716,55.184,42.716z"/>
		<polygon fill="#0064D2" points="143.461,15.033 121.37,58.418 113.37,58.418 119.723,46.372 103.098,15.033 111.456,15.033 
			123.69,39.516 135.889,15.033 		"/>
		<path fill="#0064D2" d="M233.293,15.032h0.598v0.813h0.904v0.414h-0.904v1.768c0,0.328,0.091,0.505,0.463,0.505
			c0.111,0,0.288-0.013,0.461-0.036v0.416c-0.199,0.024-0.393,0.036-0.576,0.036c-0.604,0-0.945-0.195-0.945-0.879v-1.81h-0.803
			v-0.414h0.803V15.032L233.293,15.032z"/>
		<path fill="#0064D2" d="M235.59,16.541c0-0.231-0.014-0.452-0.024-0.694h0.558c0.012,0.153,0.025,0.328,0.025,0.542h0.012
			c0.35-0.469,0.791-0.659,1.293-0.659c0.516,0,0.938,0.253,1.117,0.77c0.219-0.421,0.697-0.77,1.268-0.77
			c0.869,0,1.41,0.426,1.41,1.425v1.759h-0.602V17.38c0-0.746-0.215-1.234-0.865-1.234c-0.525,0-1.064,0.36-1.064,1.367v1.401
			h-0.594v-1.572c0-0.824-0.283-1.196-0.836-1.196c-0.524,0-1.102,0.378-1.102,1.282v1.486h-0.594v-2.373H235.59z"/>
	</g>
</g>
<g>
	<g>
		<path fill="#E9E9E9" d="M153.685-54.899c-1.466,0-2.66,1.192-2.66,2.659s1.194,2.66,2.66,2.66c1.465,0,2.657-1.194,2.657-2.66
			S155.15-54.899,153.685-54.899"/>
		<polygon fill="#E9E9E9" points="151.776,-13.161 151.776,-42.301 155.598,-42.301 155.598,-40.651 155.598,-13.161 		"/>
		<path fill="#E9E9E9" d="M186.105-13.161v-17.437c0-3.436-0.898-5.928-2.693-7.473c-1.796-1.545-4.104-2.318-6.923-2.318
			c-1.546,0-3.034,0.243-4.463,0.725s-2.684,1.237-3.764,2.259c-1.082,1.023-1.94,2.317-2.577,3.883
			c-0.637,1.563-0.957,3.428-0.957,5.591v14.771h-3.823v-22.361c0-0.309-0.01-0.771-0.029-1.39c-0.02-0.619-0.039-1.265-0.059-1.942
			c-0.02-0.674-0.038-1.333-0.056-1.97c-0.021-0.635-0.03-1.129-0.03-1.477h3.648l0.232,6.316c0.271-0.657,0.704-1.401,1.305-2.231
			c0.598-0.829,1.408-1.612,2.432-2.345c1.024-0.734,2.249-1.352,3.678-1.855c1.429-0.5,3.091-0.753,4.982-0.753
			c3.941,0,7.077,1.004,9.415,3.013c2.337,2.009,3.505,5.155,3.505,9.443v17.553H186.105z"/>
		<path fill="#E9E9E9" d="M219.589-14.9c-2.562,1.739-6.08,2.606-10.551,2.606c-2.583,0-4.878-0.347-6.883-1.042
			c-2.003-0.696-3.7-1.708-5.088-3.042c-1.387-1.33-2.438-2.943-3.149-4.836c-0.715-1.893-1.07-4.037-1.07-6.43
			c0-2.394,0.394-4.548,1.184-6.46c0.79-1.913,1.908-3.543,3.354-4.895c1.447-1.353,3.19-2.385,5.233-3.101
			c2.044-0.714,4.319-1.071,6.823-1.071c1.891,0,3.653,0.204,5.292,0.608c1.639,0.406,3.092,1.015,4.366,1.826
			c1.27,0.811,2.331,1.844,3.179,3.1c0.849,1.254,1.427,2.73,1.735,4.431h-4.056c-0.463-2.317-1.603-4.093-3.418-5.329
			c-1.813-1.238-4.151-1.854-7.008-1.854c-1.778,0-3.428,0.28-4.954,0.84c-1.525,0.561-2.857,1.379-3.998,2.461
			c-1.138,1.083-2.037,2.414-2.692,3.997c-0.658,1.585-0.985,3.381-0.985,5.388c0,1.892,0.27,3.611,0.811,5.156
			c0.542,1.546,1.332,2.868,2.375,3.97c1.044,1.099,2.336,1.96,3.883,2.576c1.544,0.618,3.301,0.927,5.271,0.927
			c3.205,0,5.726-0.617,7.562-1.853c1.834-1.236,2.963-2.992,3.387-5.273h4.056C223.708-19.07,222.154-16.636,219.589-14.9"/>
		<path fill="#E9E9E9" d="M108.382-18.664v-13.53c0-8.315-6.641-11.113-14.503-11.113c-6.563,0-14.027,1.797-14.765,8.902h6.958
			c0.304-2.849,3.239-4.499,7.224-4.499c5.368,0,8.465,1.986,8.465,6.817v0.706c-2.617,0-5.78,0.008-8.598,0.072
			c-10.303,0.238-16.236,2.78-16.236,9.996c0,4.982,4.362,9.289,12.512,9.289c5.494,0,9.455-1.176,12.786-5.27
			c0,1.359,0.06,2.76,0.223,4.172h6.16C108.438-14.834,108.382-16.737,108.382-18.664z M101.761-26.296
			c0,6.21-3.709,9.997-10.655,9.997c-5.182,0-7.224-2.775-7.224-5.333c0-3.955,3.73-5.041,9.734-5.236
			c2.706-0.09,5.709-0.112,8.145-0.112V-26.296z"/>
		<path fill="#E9E9E9" d="M43.305-27.749c0-10.67-6.844-15.558-16.185-15.558c-11.735,0-17.147,6.358-17.147,16.012
			c0,8.769,5.233,15.271,17.04,15.271c6.494,0,14.039-2.409,15.367-9.51h-6.83c-1.175,3.5-4.687,5.107-8.637,5.107
			c-5.696,0-9.841-3.552-10.199-9.562h26.59V-27.749z M16.859-30.392c0.719-5.904,4.833-8.512,9.985-8.512
			c4.778,0,9.249,2.319,9.505,8.512H16.859z"/>
		<path fill="#E9E9E9" d="M62.039-43.307c-4.399,0-8.87,1.123-12.115,4.989l0.002-16.633h-6.62v34.991
			c0,2.118-0.113,4.734-0.225,6.837h6.497c0.148-1.299,0.225-2.675,0.225-4.038c2.788,3.414,7.31,5.137,12.114,5.137
			c9.178,0,15.695-6.555,15.695-15.558C77.611-38.328,69.417-43.307,62.039-43.307z M60.289-16.551
			c-6.119,0-10.364-4.43-10.364-11.112c0-6.685,4.245-11.114,10.364-11.114c6.155,0,10.364,4.43,10.364,11.114
			C70.653-20.981,66.444-16.551,60.289-16.551z"/>
		<polygon fill="#E9E9E9" points="142.095,-42.204 121.624,-2 114.21,-2 120.097,-13.163 104.691,-42.204 112.436,-42.204 
			123.774,-19.517 135.079,-42.204 		"/>
		<path fill="#E9E9E9" d="M225.342-42.205h0.554v0.755h0.839v0.383h-0.839v1.638c0,0.304,0.085,0.468,0.43,0.468
			c0.104,0,0.268-0.012,0.428-0.034v0.386c-0.184,0.022-0.365,0.034-0.534,0.034c-0.559,0-0.877-0.182-0.877-0.815v-1.677h-0.744
			v-0.383h0.744V-42.205z"/>
		<path fill="#E9E9E9" d="M227.472-40.807c0-0.214-0.014-0.419-0.023-0.643h0.517c0.011,0.142,0.023,0.304,0.023,0.502H228
			c0.324-0.435,0.733-0.611,1.196-0.611c0.48,0,0.871,0.234,1.036,0.713c0.204-0.39,0.646-0.713,1.174-0.713
			c0.807,0,1.307,0.394,1.307,1.32v1.63h-0.557v-1.422c0-0.691-0.199-1.144-0.802-1.144c-0.486,0-0.986,0.334-0.986,1.267v1.299
			h-0.551v-1.457c0-0.764-0.262-1.108-0.773-1.108c-0.487,0-1.021,0.35-1.021,1.188v1.377h-0.55V-40.807z"/>
	</g>
</g>
<image display="none" overflow="visible" width="184" height="88" xlink:href="company-ebayinc.png"  transform="matrix(1.3153 0 0 1.3153 0.3154 -56.7471)">
</image>
</svg>
