<?xml version="1.0" encoding="utf-8"?>
<!-- Generator: Adobe Illustrator 16.0.0, SVG Export Plug-In . SVG Version: 6.00 Build 0)  -->
<!DOCTYPE svg PUBLIC "-//W3C//DTD SVG 1.1//EN" "http://www.w3.org/Graphics/SVG/1.1/DTD/svg11.dtd">
<svg version="1.1" id="Logo" xmlns="http://www.w3.org/2000/svg" xmlns:xlink="http://www.w3.org/1999/xlink" x="0px" y="0px"
	 width="164.766px" height="114.645px" viewBox="0 0 164.766 114.645" enable-background="new 0 0 164.766 114.645"
	 xml:space="preserve">
<path fill="#E83025" d="M40.941,32.76V0L6.953,50.821l0.052-0.027C2.584,57.332,0,65.215,0,73.702
	c0,22.61,18.333,40.942,40.941,40.943c22.609,0,40.941-18.333,40.941-40.942S63.551,32.76,40.941,32.76z M40.941,96.312V76.036
	H21.057l19.885-30.415v20.276h19.885L40.941,96.312z"/>
<path fill="#DFDEDE" d="M123.824,32.76V0L89.836,50.821l0.052-0.027c-4.421,6.538-7.005,14.421-7.005,22.908
	c0,22.61,18.333,40.942,40.941,40.943c22.609,0,40.941-18.333,40.941-40.942S146.434,32.76,123.824,32.76z M123.824,96.312V76.036
	h-19.885l19.885-30.415v20.276h19.885L123.824,96.312z"/>
</svg>
