<?xml version="1.0" encoding="utf-8"?>
<!-- Generator: Adobe Illustrator 15.0.2, SVG Export Plug-In . SVG Version: 6.00 Build 0)  -->
<!DOCTYPE svg PUBLIC "-//W3C//DTD SVG 1.1//EN" "http://www.w3.org/Graphics/SVG/1.1/DTD/svg11.dtd" [
	<!ENTITY ns_extend "http://ns.adobe.com/Extensibility/1.0/">
	<!ENTITY ns_ai "http://ns.adobe.com/AdobeIllustrator/10.0/">
	<!ENTITY ns_graphs "http://ns.adobe.com/Graphs/1.0/">
	<!ENTITY ns_vars "http://ns.adobe.com/Variables/1.0/">
	<!ENTITY ns_imrep "http://ns.adobe.com/ImageReplacement/1.0/">
	<!ENTITY ns_sfw "http://ns.adobe.com/SaveForWeb/1.0/">
	<!ENTITY ns_custom "http://ns.adobe.com/GenericCustomNamespace/1.0/">
	<!ENTITY ns_adobe_xpath "http://ns.adobe.com/XPath/1.0/">
]>
<svg version="1.1" id="Layer_1" xmlns:x="&ns_extend;" xmlns:i="&ns_ai;" xmlns:graph="&ns_graphs;"
	 xmlns="http://www.w3.org/2000/svg" xmlns:xlink="http://www.w3.org/1999/xlink" x="0px" y="0px" width="90.333px"
	 height="90.167px" viewBox="0 0 90.333 90.167" enable-background="new 0 0 90.333 90.167" xml:space="preserve">
<metadata>
	<sfw  xmlns="&ns_sfw;">
		<slices></slices>
		<sliceSourceBounds  y="-522.655" x="694.745" width="88.701" height="88.709" bottomLeftOrigin="true"></sliceSourceBounds>
	</sfw>
</metadata>
<path fill="#EAEAEA" d="M45.258,0.78C20.77,0.78,0.911,20.643,0.911,45.144c0,24.486,19.858,44.345,44.347,44.345
	c24.505,0,44.354-19.858,44.354-44.345C89.612,20.643,69.763,0.78,45.258,0.78z M45.263,74.267
	c-16.091,0-29.138-13.043-29.138-29.132C16.125,29.044,29.172,16,45.263,16s29.133,13.044,29.133,29.135
	C74.396,61.224,61.354,74.267,45.263,74.267z"/>
<circle fill="#EAEAEA" cx="45.263" cy="45.133" r="11.884"/>
</svg>
