<?xml version="1.0" encoding="utf-8"?>
<!-- Generator: Adobe Illustrator 16.0.0, SVG Export Plug-In . SVG Version: 6.00 Build 0)  -->
<!DOCTYPE svg PUBLIC "-//W3C//DTD SVG 1.1//EN" "http://www.w3.org/Graphics/SVG/1.1/DTD/svg11.dtd">
<svg version="1.1" id="Layer_1" xmlns="http://www.w3.org/2000/svg" xmlns:xlink="http://www.w3.org/1999/xlink" x="0px" y="0px"
	 width="525.067px" height="214.762px" viewBox="0 0 525.067 214.762" enable-background="new 0 0 525.067 214.762"
	 xml:space="preserve">
<path id="direction" fill="#FF3000" d="M237.01,119.904c0.4-0.819,0.061-1.159-0.758-0.758l-81.311,39.77
	c-0.818,0.402-0.742,0.563,0.17,0.563h39.538c0.912,0,1.985,1.081,1.985,1.993v39.621c0,0.913,0.165,0.987,0.567,0.171
	L237.01,119.904z M176.52,154.036c-0.912,0-0.989,0.074-0.17-0.329l48.885-23.811c0.816-0.4,0.959-0.103,0.315,0.543l-23.126,22.778
	c-0.646,0.643-1.92,0.818-2.831,0.818H176.52z"/>
<path id="direction_1_" fill="#FFFFFF" d="M237.01,4.904c0.4-0.819,0.061-1.159-0.758-0.758l-81.311,39.77
	c-0.818,0.402-0.742,0.563,0.17,0.563h39.538c0.912,0,1.985,1.081,1.985,1.993v39.621c0,0.913,0.165,0.987,0.567,0.171L237.01,4.904
	z M176.52,39.036c-0.912,0-0.989,0.074-0.17-0.329l48.885-23.811c0.816-0.4,0.959-0.103,0.315,0.543l-23.126,22.778
	c-0.646,0.643-1.92,0.818-2.831,0.818H176.52z"/>
<g>
	<g>
		<g>
			<path fill="#FF3000" d="M523.377,122.241c-1.056-0.687-2.387-0.792-3.538-0.282l-22.628,13.744
				c-1.346,0.597-2.211,1.931-2.211,3.401v8.604c0,1.471,0.865,2.803,2.211,3.399l22.628,13.745c0.484,0.216,0.995,0.32,1.508,0.32
				c0.709,0,1.414-0.203,2.03-0.603c1.053-0.688,1.69-1.859,1.69-3.117v-36.095C525.068,124.102,524.431,122.928,523.377,122.241z"
				/>
			<path fill="#FF3000" d="M470.781,139.109c-2.355,0-4.269,1.915-4.269,4.27s1.914,4.268,4.269,4.268
				c2.353,0,4.269-1.913,4.269-4.268C475.051,141.024,473.134,139.109,470.781,139.109z"/>
			<path fill="#FF3000" d="M446.903,139.109c-2.355,0-4.269,1.915-4.269,4.27s1.913,4.268,4.269,4.268
				c2.353,0,4.268-1.913,4.268-4.268C451.169,141.024,449.255,139.109,446.903,139.109z"/>
			<path fill="#FF3000" d="M485.733,118h-53.62c-2.053,0-3.718,1.664-3.718,3.72v43.374c0,2.055,1.665,3.719,3.718,3.719h53.62
				c2.054,0,3.718-1.665,3.718-3.719V121.72C489.452,119.664,487.788,118,485.733,118z M470.781,152.11
				c-4.816,0-8.733-3.916-8.733-8.731c0-1.552,0.413-3.006,1.122-4.27h-8.656c0.712,1.265,1.12,2.718,1.12,4.27
				c0,4.814-3.916,8.731-8.73,8.731c-4.817,0-8.734-3.916-8.734-8.731c0-4.816,3.917-8.733,8.734-8.733h23.878
				c4.816,0,8.73,3.917,8.73,8.733C479.512,148.194,475.598,152.11,470.781,152.11z"/>
		</g>
	</g>
</g>
<path id="iphone_2_" fill="#FF3000" d="M54.089,125.355c0-5.732-4.645-10.379-10.376-10.379H10.378
	C4.646,114.977,0,119.623,0,125.355v79.028c0,5.731,4.646,10.378,10.378,10.378h33.334c5.732,0,10.376-4.646,10.376-10.378V125.355z
	 M26.983,210.561c-3.44,0-6.227-2.787-6.227-6.228c0-3.439,2.787-6.226,6.227-6.226s6.227,2.784,6.227,6.226
	C33.21,207.773,30.423,210.561,26.983,210.561z M6.528,194.244v-62.481h41.033v62.481H6.528z"/>
<path fill="#FF3000" d="M329.213,143.846l-13.604-20.189c-0.493-0.729-1.315-1.168-2.197-1.168h-43.533
	c-0.882,0-1.706,0.438-2.199,1.168l-13.605,20.189c-0.638,0.944-0.599,2.189,0.097,3.094l35.369,46.117
	c0.501,0.653,1.281,1.038,2.103,1.038c0.826,0,1.605-0.385,2.106-1.038l35.369-46.117
	C329.812,146.035,329.851,144.79,329.213,143.846z M302.175,146.916l-10.533,38.5l-10.528-38.5H302.175z M281.896,143.735
	l9.745-15.594l9.747,15.594H281.896z M295.175,127.789h15.288l-6.429,14.179L295.175,127.789z M279.253,141.968l-6.428-14.179
	h15.287L279.253,141.968z M287.228,181.331l-26.395-34.415h16.98L287.228,181.331z M305.47,146.916h16.984l-26.394,34.415
	L305.47,146.916z M322.746,143.735h-16.021l6.441-14.211L322.746,143.735z M270.119,129.524l6.442,14.211h-16.022L270.119,129.524z"
	/>
<g>
	<g>
		<g>
			<polygon fill="#FF3000" points="130.221,137.033 134.777,135.201 138.89,129.669 133.402,124.184 127.86,128.307 
				126.041,132.851 112.37,146.527 116.834,150.42 			"/>
			<path fill="#FF3000" d="M138.252,174.253l-24.759-21.562l-0.88-0.77l-7.06-6.146c0.857-4.191,2.405-15.428-3.849-21.679
				c-4.111-4.116-9.584-6.385-15.405-6.385c-1.427,0-2.857,0.143-4.25,0.418c-0.388,0.078-0.7,0.36-0.815,0.737
				s-0.013,0.788,0.266,1.063l9.328,9.33l1.869,9.023l-7.62,7.616l-9.022-1.866l-9.328-9.327c-0.281-0.278-0.69-0.382-1.066-0.267
				c-0.378,0.113-0.662,0.424-0.738,0.813c-1.418,7.158,0.812,14.504,5.965,19.659c3.065,3.063,7.843,4.684,13.822,4.684h0.001
				c2.508,0,5.213-0.288,7.857-0.835L121,191.399c2.348,2.35,5.4,3.614,8.648,3.614s6.305-1.265,8.604-3.564
				C142.992,186.709,142.994,178.995,138.252,174.253z"/>
			<path fill="#FF3000" d="M91.043,164.669c-1.083-1.083-2.838-1.083-3.923,0l-18.182,18.186c-1.084,1.083-1.084,2.839,0,3.924
				l7.093,7.097c1.084,1.083,2.839,1.083,3.924,0l17.647-17.645c1.083-1.085,1.083-2.841,0-3.923L91.043,164.669z"/>
		</g>
	</g>
</g>
<path fill="#FF3000" d="M381.955,118c-22.059,0-39.945,17.891-39.945,39.961c0,22.055,17.887,39.941,39.945,39.941
	c22.072,0,39.951-17.887,39.951-39.941C421.906,135.891,404.027,118,381.955,118z M381.959,184.191
	c-14.494,0-26.244-11.748-26.244-26.239c0-14.493,11.75-26.243,26.244-26.243s26.24,11.75,26.24,26.243
	C408.199,172.443,396.453,184.191,381.959,184.191z"/>
<circle fill="#FF3000" cx="381.959" cy="157.95" r="10.704"/>
<path fill="#FFFFFF" d="M329.213,26.846L315.608,6.656c-0.493-0.729-1.315-1.168-2.197-1.168h-43.533
	c-0.882,0-1.706,0.438-2.199,1.168l-13.605,20.189c-0.638,0.944-0.599,2.189,0.097,3.094l35.369,46.117
	c0.501,0.653,1.281,1.038,2.103,1.038c0.826,0,1.605-0.385,2.106-1.038l35.369-46.117C329.812,29.035,329.851,27.79,329.213,26.846z
	 M302.175,29.916l-10.533,38.5l-10.528-38.5H302.175z M281.896,26.735l9.745-15.594l9.747,15.594H281.896z M295.175,10.789h15.288
	l-6.429,14.179L295.175,10.789z M279.253,24.968l-6.428-14.179h15.287L279.253,24.968z M287.228,64.331l-26.395-34.415h16.98
	L287.228,64.331z M305.47,29.916h16.984l-26.394,34.415L305.47,29.916z M322.746,26.735h-16.021l6.441-14.211L322.746,26.735z
	 M270.119,12.524l6.442,14.211h-16.022L270.119,12.524z"/>
<path fill="#FFFFFF" d="M381.955,0c-22.059,0-39.945,17.891-39.945,39.961c0,22.055,17.887,39.941,39.945,39.941
	c22.072,0,39.951-17.887,39.951-39.941C421.906,17.891,404.027,0,381.955,0z M381.959,66.191c-14.494,0-26.244-11.748-26.244-26.239
	c0-14.493,11.75-26.243,26.244-26.243s26.24,11.75,26.24,26.243C408.199,54.443,396.453,66.191,381.959,66.191z"/>
<circle fill="#FFFFFF" cx="381.959" cy="39.95" r="10.704"/>
<g>
	<g>
		<g>
			<path fill="#FFFFFF" d="M523.377,9.081c-1.056-0.687-2.387-0.792-3.538-0.282l-22.628,13.744
				C495.865,23.14,495,24.474,495,25.944v8.604c0,1.471,0.865,2.803,2.211,3.399l22.628,13.745c0.484,0.216,0.995,0.32,1.508,0.32
				c0.709,0,1.414-0.203,2.03-0.603c1.053-0.688,1.69-1.859,1.69-3.117V12.199C525.068,10.941,524.431,9.768,523.377,9.081z"/>
			<path fill="#FFFFFF" d="M470.781,25.949c-2.355,0-4.269,1.915-4.269,4.27s1.914,4.268,4.269,4.268
				c2.353,0,4.269-1.913,4.269-4.268C475.051,27.864,473.134,25.949,470.781,25.949z"/>
			<path fill="#FFFFFF" d="M446.903,25.949c-2.355,0-4.269,1.915-4.269,4.27s1.913,4.268,4.269,4.268
				c2.353,0,4.268-1.913,4.268-4.268C451.169,27.864,449.255,25.949,446.903,25.949z"/>
			<path fill="#FFFFFF" d="M485.733,4.84h-53.62c-2.053,0-3.718,1.664-3.718,3.72v43.374c0,2.055,1.665,3.719,3.718,3.719h53.62
				c2.054,0,3.718-1.665,3.718-3.719V8.56C489.452,6.504,487.788,4.84,485.733,4.84z M470.781,38.95
				c-4.816,0-8.733-3.916-8.733-8.731c0-1.552,0.413-3.006,1.122-4.27h-8.656c0.712,1.265,1.12,2.718,1.12,4.27
				c0,4.814-3.916,8.731-8.73,8.731c-4.817,0-8.734-3.916-8.734-8.731c0-4.816,3.917-8.733,8.734-8.733h23.878
				c4.816,0,8.73,3.917,8.73,8.733C479.512,35.034,475.598,38.95,470.781,38.95z"/>
		</g>
	</g>
</g>
<path id="iphone_1_" fill="#FFFFFF" d="M54.089,11.141c0-5.732-4.645-10.379-10.376-10.379H10.378C4.646,0.762,0,5.408,0,11.141
	v79.028c0,5.731,4.646,10.378,10.378,10.378h33.334c5.732,0,10.376-4.646,10.376-10.378V11.141z M26.983,96.346
	c-3.44,0-6.227-2.787-6.227-6.228c0-3.439,2.787-6.226,6.227-6.226s6.227,2.784,6.227,6.226
	C33.21,93.559,30.423,96.346,26.983,96.346z M6.528,80.029V17.548h41.033v62.481H6.528z"/>
<g>
	<g>
		<g>
			<polygon fill="#FFFFFF" points="130.22,21.963 134.777,20.131 138.889,14.599 133.402,9.113 127.86,13.236 126.041,17.78 
				112.369,31.457 116.833,35.35 			"/>
			<path fill="#FFFFFF" d="M138.251,59.183L113.493,37.62l-0.88-0.77l-7.06-6.146c0.857-4.191,2.405-15.428-3.849-21.679
				c-4.111-4.116-9.584-6.385-15.405-6.385c-1.427,0-2.857,0.143-4.25,0.418c-0.388,0.078-0.7,0.36-0.815,0.737
				S81.221,4.584,81.5,4.859l9.328,9.33l1.869,9.023l-7.62,7.616l-9.022-1.866l-9.328-9.327c-0.281-0.278-0.69-0.382-1.066-0.267
				c-0.378,0.113-0.662,0.424-0.738,0.813c-1.418,7.158,0.812,14.504,5.965,19.659c3.065,3.063,7.843,4.684,13.822,4.684h0.001
				c2.508,0,5.213-0.288,7.857-0.835L121,76.329c2.348,2.35,5.4,3.614,8.648,3.614s6.305-1.265,8.604-3.564
				C142.992,71.639,142.994,63.925,138.251,59.183z"/>
			<path fill="#FFFFFF" d="M91.042,49.599c-1.083-1.083-2.838-1.083-3.923,0L68.938,67.784c-1.084,1.083-1.084,2.839,0,3.924
				l7.093,7.097c1.084,1.083,2.839,1.083,3.924,0L97.603,61.16c1.082-1.085,1.082-2.841,0-3.923L91.042,49.599z"/>
		</g>
	</g>
</g>
</svg>
