<?xml version="1.0" encoding="utf-8"?>
<!-- Generator: Adobe Illustrator 16.0.0, SVG Export Plug-In . SVG Version: 6.00 Build 0)  -->
<!DOCTYPE svg PUBLIC "-//W3C//DTD SVG 1.1//EN" "http://www.w3.org/Graphics/SVG/1.1/DTD/svg11.dtd">
<svg version="1.1" id="Layer_1" xmlns="http://www.w3.org/2000/svg" xmlns:xlink="http://www.w3.org/1999/xlink" x="0px" y="0px"
	 width="224.663px" height="50.383px" viewBox="0 0 224.663 50.383" enable-background="new 0 0 224.663 50.383"
	 xml:space="preserve">
<g>
	<g>
		<path fill-rule="evenodd" clip-rule="evenodd" fill="#0096FF" d="M181.21,21.724c2.891-4.033,5.939-8.052,8.754-12.085
			c0.062-0.088,0.385-0.282,0.178-0.355c-9.774,0-19.549,0-29.324,0c-0.051,0.007-0.048,0.07-0.044,0.133c0,2.281,0,4.562,0,6.842
			c5.213,0,10.425,0,15.639,0c-3.002,4.133-6.082,8.314-9.107,12.485c-2.915,4.017-6.028,8.018-8.842,12.041
			c-0.08,0.114-0.328,0.283-0.178,0.355c9.39,0,18.779,0,28.168,0c0-2.325,0-4.65,0-6.975c-4.769,0-9.537,0-14.307,0
			C175.043,29.975,178.222,25.895,181.21,21.724z"/>
		<path fill-rule="evenodd" clip-rule="evenodd" fill="#0096FF" d="M200.715,9.728c-1.151,0-2.309-0.077-3.42,0
			c-2.479,0.171-4.419,1.208-5.688,2.71c-1.247,1.476-1.986,3.525-2.178,6.043c7.146,0,14.734,0,21.994,0
			c1.96,0,3.811,0.086,5.42-0.045c1.632-0.133,3.046-0.558,4.176-1.333c2.176-1.492,3.305-3.874,3.644-7.375
			C216.868,9.728,208.522,9.728,200.715,9.728z"/>
		<path fill-rule="evenodd" clip-rule="evenodd" fill="#0096FF" d="M197.428,20.969c-5.018,0.321-7.592,3.73-7.998,8.797
			c3.779,0,7.752,0,11.508,0c1.276,0,2.541,0.032,3.688-0.177c4.276-0.781,6.458-3.932,6.799-8.62c-2.333,0-4.66,0-6.976,0
			C202.089,20.969,199.701,20.823,197.428,20.969z"/>
		<path fill-rule="evenodd" clip-rule="evenodd" fill="#0096FF" d="M197.561,32.209c-5.162,0.303-7.695,3.667-8.131,8.797
			c1.967-0.055,3.786,0.093,5.42-0.045c4.952-0.418,7.385-3.746,7.775-8.752C200.866,32.28,199.172,32.115,197.561,32.209z"/>
	</g>
</g>
<path fill="#0096FF" d="M127.471,32.231l2.982,1.367l-0.303-2.126l-2.722-1.463L127.471,32.231z M104.843,39.353l3.885,0.442
	l0.848-3.611l-3.721-0.661L104.843,39.353z M118.661,14.349l-2.54-1.879l-1.769,2.403l2.789,1.741L118.661,14.349z M126.449,8.023
	l-1.629-2.126l-2.293,1.353l1.906,2.073L126.449,8.023z M134.844,6.531l-0.524-1.738l-2.761-0.222l0.8,1.905L134.844,6.531z
	 M144.18,8.714l-2.319-1.658v1.077l2.237,1.382L144.18,8.714z M112.833,24.153l-3.176-1.382l-1.077,3.148l3.259,1.215
	L112.833,24.153z M128.646,22.729l-0.566,1.948l2.044,1.88l0.511-1.811L128.646,22.729z M141.694,14.018l1.698,0.083l0.014-0.788
	l-1.767-0.36L141.694,14.018z M134.634,7.444c-8.17-0.396-22.795,7.346-24.895,38.407h20.033
	c-4.492-11.637-3.972-20.417-0.883-26.366c4.491-8.653,11.177-9.226,17.418-5.579c0.22-0.524,0.523-1.188,0.523-1.188
	C143.27,9.294,139.936,7.702,134.634,7.444z M135.232,13.893l0.746,1.781l1.38-0.745l-0.511-1.644L135.232,13.893z M130.702,17.938
	l1.52,2.087l0.938-1.367l-1.325-2.058L130.702,17.938z M133.022,42.216l-0.939-2.278l-3.466-0.649l0.912,2.622L133.022,42.216z"/>
<path fill="#0096FF" d="M74.616,15.112v28.699l-2.822,1.725l-2.824-1.734V15.134l-7.313,4.503V44.18l10.138,6.203l10.224-6.247
	V19.622L74.616,15.112z M71.794,0l-21.32,12.917v24.546l5.537,3.262V16.177l15.788-9.6l15.802,9.586l0.065,0.037l-0.007,24.489
	l5.482-3.226V12.917L71.794,0z"/>
<path fill-rule="evenodd" clip-rule="evenodd" fill="#0096FF" d="M36.613,15.98c-5.179-6.326-9.357-6.884-12-8.391
	c-1.893-1.079-3.637-2.979-5.855-5.63c-0.15,1.433-0.303,2.86-1.237,3.914c-1.841,2.077-4.34,3.354-6.378,4.356
	C5.961,12.78,0,18.724,0,28.218c0,4.599,1.774,9.547,5.121,13.359c3.562,4.058,8.892,6.837,15.22,6.806
	c5.657-0.027,10.302-1.875,13.794-4.891c4.084-3.526,6.547-8.708,6.547-15.274C40.682,23.381,39.24,19.188,36.613,15.98z
	 M30.887,44.166c-2.5,2.086-9.26,3.275-12.475,0.622c-0.317-0.262-0.329-0.657-0.119-0.885c0.154-0.169,0.291-0.249,0.479-0.356
	c0.236-0.134,0.535-0.082,0.736,0.104c1.269,1.17,7.258,2.153,10.857-0.267c0.133-0.09,0.304-0.149,0.451-0.086
	c0.109,0.047,0.174,0.106,0.188,0.23C31.029,43.729,31.043,44.035,30.887,44.166z M22.468,41.01
	c0.009-0.301,0.092-0.486,0.306-0.698c1.234-1.229,2.543-1.956,4.016-1.919c2.35,0.058,2.449,0.609,3.131,1.985
	c0.138,0.279,0.059,0.52-0.03,0.662c-0.049,0.077-0.317,0.335-0.409,0.335c-0.227,0-0.309-0.082-0.401-0.312
	c-0.561-1.399-1.392-1.406-2.439-1.406c-1.614,0-2.318,0.788-3.272,1.577c-0.236,0.196-0.461,0.343-0.639,0.194
	C22.584,41.306,22.465,41.136,22.468,41.01z M35.074,40.5c-2.244-0.173-4.748-5.34-7.218-5.298
	c-3.251,0.056-8.014,5.526-13.364,5.447c-2.729-0.041-5.67-1.035-5.76-5.194c-0.073-3.466,3.31-7.066,7.605-6.965
	c5.711,0.134,8.525,5.13,11.385,5.149c2.797,0.018,6.087-4.353,8.914-4.42c1.51-0.036,2.671,1.416,2.783,3.438
	C39.588,35.691,37.658,40.699,35.074,40.5z"/>
</svg>
