<?xml version="1.0" encoding="utf-8"?>
<!-- Generator: Adobe Illustrator 16.0.0, SVG Export Plug-In . SVG Version: 6.00 Build 0)  -->
<!DOCTYPE svg PUBLIC "-//W3C//DTD SVG 1.1//EN" "http://www.w3.org/Graphics/SVG/1.1/DTD/svg11.dtd">
<svg version="1.1" id="Layer_1" xmlns="http://www.w3.org/2000/svg" xmlns:xlink="http://www.w3.org/1999/xlink" x="0px" y="0px"
	 width="196.838px" height="45px" viewBox="0 0 196.838 45" enable-background="new 0 0 196.838 45" xml:space="preserve">
<g>
	<g>
		<path fill="#0096FF" d="M147.565,19.057l-12.526-3.071c-0.308-0.076-0.616-0.084-0.911-0.045V5.929
			c0.674-0.545,1.053-1.415,0.911-2.332c-0.214-1.37-1.499-2.308-2.867-2.095l-23.836,3.709c-1.37,0.213-2.306,1.497-2.095,2.866
			c0.102,0.645,0.441,1.189,0.912,1.567v32.375c0,0.865,0.701,1.568,1.568,1.568h23.838h14.126c0.865,0,1.568-0.703,1.568-1.568
			V23.642c0.554-0.332,0.985-0.872,1.151-1.549C149.735,20.744,148.91,19.387,147.565,19.057z M110.291,9.989l20.699-3.221V19.29
			v21.162h-7.913v-7.854h-4.872v7.854h-7.914V9.989z M145.116,40.452h-4.05v-4.016h-2.89v4.016h-4.049V21.25l10.988,2.473V40.452z"
			/>
		<rect x="118.205" y="13.298" fill="#0096FF" width="4.872" height="4.75"/>
		<rect x="118.205" y="21.886" fill="#0096FF" width="4.872" height="4.752"/>
		<rect x="138.177" y="25.5" fill="#0096FF" width="2.89" height="2.815"/>
		<rect x="138.177" y="30.588" fill="#0096FF" width="2.89" height="2.815"/>
		<rect x="138.177" y="30.582" fill="#0096FF" width="2.89" height="2.814"/>
	</g>
</g>
<path fill="#0096FF" d="M191.396,30.172c2.891-2.93,4.195-6.438,4.195-10.872c0-8.946-7.278-16.227-16.227-16.227
	s-16.227,7.281-16.227,16.227c0,8.949,7.278,16.228,16.227,16.228c2.649,0,4.753-0.46,6.965-1.59l5.412,6.988l5.096-3.717
	L191.396,30.172z M168.869,19.3c0-5.785,4.708-10.495,10.496-10.495s10.495,4.71,10.495,10.495c0,5.789-4.707,10.497-10.495,10.497
	S168.869,25.089,168.869,19.3z"/>
<g id="facebook_2_">
	<g>
		<path id="facebook_11_" fill="#0096FF" d="M81.271,42.999v-12h3.6v-3.6h-3.6l0.006-2.008c0-1.08,0.361-1.593,1.914-1.593h1.68
			v-4.8c0,0-1.2,0-4.8,0c-3.601,0-3.601,3.6-3.601,4.8s0,3.601,0,3.601h-2.399v3.6h2.399v12"/>
	</g>
</g>
<g id="more_x5F_windows">
	<g>
		<path fill="#0096FF" d="M93.071,38.72c0,3.469-2.943,6.28-6.574,6.28H63.646c-3.631,0-6.574-2.812-6.574-6.28V15.28
			c0-3.469,2.943-6.28,6.574-6.28h22.852c3.631,0,6.574,2.812,6.574,6.28V38.72z M89.071,14.999c0-1.1-0.9-1.999-2-1.999h-0.574
			h-0.426H63.35h-0.278c-1.1,0-2,0.899-2,1.999v0.28v23.146v0.573c0,1.1,0.9,2.001,2,2.001h0.278h23.147h0.574
			c1.1,0,2-0.901,2-2.001v-0.573V15.279V14.999z M77.646,0H54.645c-3.624,0-6.573,2.948-6.573,6.573v23.147
			c0,3.624,2.949,6.279,6.573,6.279h0.427v-4h-0.427h-0.573c-1.1,0-2-0.901-2-2.001v-0.278V6.573V5.999c0-1.1,0.9-1.999,2-1.999
			h0.573h23.14h0.287c1.1,0,2,0.899,2,1.999v0.574V7h4V6.573C84.071,2.948,81.271,0,77.646,0z"/>
	</g>
</g>
<g>
	<g>
		<path fill="#0096FF" d="M8.164,35.113c0.778,0.511,2.345,1.107,4.198,1.107c4.147,0,6.037-2.634,6.037-5.084
			c0-1.696-0.906-3.135-2.362-3.908c1.155-0.819,1.794-2.008,1.794-3.408c0-2.078-1.509-4.173-4.879-4.173
			c-1.847,0-3.451,0.677-4.265,1.257c-0.24,0.171-0.336,0.484-0.231,0.762l0.545,1.454c0.072,0.19,0.229,0.335,0.422,0.394
			c0.194,0.06,0.405,0.024,0.57-0.093c0.551-0.394,1.556-0.855,2.573-0.855c1.249,0,1.937,0.56,1.937,1.573
			c0,1.355-1.579,1.847-2.642,1.847h-1.112c-0.36,0-0.653,0.292-0.653,0.653v1.5c0,0.359,0.293,0.652,0.653,0.652h1.112
			c0.525,0,3.14,0.111,3.165,2.312c0.011,0.563-0.198,1.104-0.569,1.483c-0.468,0.475-1.18,0.716-2.118,0.716
			c-1.244,0-2.431-0.514-2.936-0.816c-0.167-0.1-0.373-0.121-0.556-0.055c-0.185,0.065-0.329,0.21-0.396,0.395l-0.545,1.521
			C7.806,34.632,7.911,34.948,8.164,35.113z"/>
		<path fill="#0096FF" d="M20.773,23.96c0.05,0.194,0.186,0.356,0.37,0.438s0.395,0.071,0.573-0.023l1.648-0.891v11.834
			c0,0.36,0.293,0.652,0.653,0.652h1.932c0.36,0,0.653-0.292,0.653-0.652V20.551c0-0.36-0.293-0.653-0.653-0.653h-1.704
			c-0.107,0-0.213,0.025-0.308,0.076l-3.227,1.727c-0.265,0.142-0.398,0.446-0.324,0.736L20.773,23.96z"/>
		<path fill="#0096FF" d="M31.586,3.591h-3.281v2.998c0,1.14-0.926,2.067-2.066,2.067c-1.139,0-2.065-0.927-2.065-2.067V3.591
			H11.427v2.998c0,1.14-0.928,2.067-2.066,2.067c-1.14,0-2.066-0.927-2.066-2.067V3.591h-3.28C1.801,3.591,0,5.392,0,7.604v32.378
			c0,2.212,1.801,4.014,4.014,4.014h27.572c2.213,0,4.014-1.801,4.014-4.014V7.604C35.6,5.392,33.799,3.591,31.586,3.591z
			 M32.986,39.982c0,0.772-0.628,1.401-1.4,1.401H4.014c-0.773,0-1.401-0.629-1.401-1.401V13.579h30.374V39.982z"/>
		<path fill="#0096FF" d="M9.36,7.349c0.42,0,0.76-0.34,0.76-0.761V3.591V1.826c0-0.42-0.34-0.76-0.76-0.76S8.6,1.406,8.6,1.826
			v1.765v2.998C8.6,7.009,8.94,7.349,9.36,7.349z"/>
		<path fill="#0096FF" d="M26.238,7.349c0.421,0,0.761-0.34,0.761-0.761V1.826c0-0.42-0.34-0.761-0.761-0.761
			c-0.42,0-0.76,0.34-0.76,0.76v4.763C25.479,7.009,25.818,7.349,26.238,7.349z"/>
	</g>
</g>
</svg>
