<?xml version="1.0" encoding="utf-8"?>
<!-- Generator: Adobe Illustrator 16.0.0, SVG Export Plug-In . SVG Version: 6.00 Build 0)  -->
<!DOCTYPE svg PUBLIC "-//W3C//DTD SVG 1.1//EN" "http://www.w3.org/Graphics/SVG/1.1/DTD/svg11.dtd">
<svg version="1.1" id="Layer_1" xmlns="http://www.w3.org/2000/svg" xmlns:xlink="http://www.w3.org/1999/xlink" x="0px" y="0px"
	 width="255.065px" height="36.016px" viewBox="-51.566 -0.015 255.065 36.016"
	 enable-background="new -51.566 -0.015 255.065 36.016" xml:space="preserve">
<g>
	<path fill="#0096FF" d="M23.002,15h-0.646h-1.939h-0.75v0.312v0.646v6.475c0,4.671-3.562,6.336-7,6.336s-7-1.665-7-6.336v-6.475
		v-0.646V15H4.899h-1.94H2.313c-0.355,0-0.646,0.124-0.646,0.479c0,0.356,0.641,0.61,0.991,0.669l1.009,0.026v6.259
		c0,5.052,2,7.812,6,8.645v1.52c-1,0.328-4.356,0.904-4.356,1.764c0,1.45,0.103,0.85,0.103,0.85c0,0.437,0.465,0.791,0.91,0.791
		h6.335h6.302c0.445,0,0.816-0.354,0.816-0.791c0,0,0.221,0.602,0.221-0.85c0-0.857-3.33-1.434-4.33-1.762v-1.521
		c4-0.832,6-3.593,6-8.645v-6.259l1-0.109c0.351-0.059,0.81-0.229,0.81-0.586C23.476,15.124,23.357,15,23.002,15z"/>
	<rect x="12.011" y="8.199" fill="#0096FF" width="1.293" height="1.294"/>
	<rect x="13.304" y="14.665" fill="#0096FF" width="1.293" height="1.293"/>
	<rect x="13.304" y="12.079" fill="#0096FF" width="1.293" height="1.293"/>
	<rect x="13.304" y="9.493" fill="#0096FF" width="1.293" height="1.293"/>
	<rect x="9.425" y="8.199" fill="#0096FF" width="1.293" height="1.294"/>
	<rect x="9.425" y="13.372" fill="#0096FF" width="1.293" height="1.293"/>
	<rect x="9.425" y="10.786" fill="#0096FF" width="1.293" height="1.293"/>
	<rect x="12.011" y="10.786" fill="#0096FF" width="1.293" height="1.293"/>
	<rect x="10.718" y="9.493" fill="#0096FF" width="1.293" height="1.293"/>
	<rect x="13.304" y="17.251" fill="#0096FF" width="1.293" height="1.293"/>
	<rect x="9.425" y="15.958" fill="#0096FF" width="1.293" height="1.293"/>
	<rect x="12.011" y="15.958" fill="#0096FF" width="1.293" height="1.293"/>
	<rect x="12.011" y="13.372" fill="#0096FF" width="1.293" height="1.293"/>
	<rect x="10.718" y="17.251" fill="#0096FF" width="1.293" height="1.293"/>
	<rect x="10.718" y="12.079" fill="#0096FF" width="1.293" height="1.293"/>
	<rect x="10.718" y="14.665" fill="#0096FF" width="1.293" height="1.293"/>
	<rect x="9.425" y="18.544" fill="#0096FF" width="1.293" height="1.293"/>
	<path fill="#0096FF" d="M12.657,27.595c1.906,0,3.688-0.92,4.75-2.336c0.725-0.846,1.26-1.941,1.26-3.141V8.847
		c0-3.215-2.787-5.819-6-5.819c-3.214,0-6,2.604-6,5.819v13.271c0,1.198,0.526,2.295,1.251,3.141
		C8.979,26.675,10.751,27.595,12.657,27.595z M8.667,18h1v-1h-1v-1h1v-1h-1v-2h1v-1h-1v-1h1v-1h-1V8h1V7h1v1h1V7h2v1h1V7h1v1h1v2h-1
		v1h1v1h-1v1h1v2h-1v1h1v1h-1v1h1v2h-1v1h-1v-1h-1v1h-2v-1h-1v1h-1v-1h-1V18z"/>
	<rect x="14.597" y="15.958" fill="#0096FF" width="1.293" height="1.293"/>
	<rect x="14.597" y="13.372" fill="#0096FF" width="1.293" height="1.293"/>
	<rect x="14.597" y="18.544" fill="#0096FF" width="1.293" height="1.293"/>
	<rect x="14.597" y="8.199" fill="#0096FF" width="1.293" height="1.294"/>
	<rect x="14.597" y="10.786" fill="#0096FF" width="1.293" height="1.293"/>
	<rect x="12.011" y="18.544" fill="#0096FF" width="1.293" height="1.293"/>
</g>
<g>
	<g>
		<path fill="#0096FF" d="M203.499,2.716c0-0.692-0.461-1.254-1.031-1.254h-33.937c-0.57,0-1.031,0.562-1.031,1.254v29.49
			c0,0.693,0.461,1.256,1.031,1.256h33.937c0.57,0,1.031-0.562,1.031-1.256V2.716z M201.499,31.462H172.5v-28h28.999V31.462z"/>
		<path fill="#0096FF" d="M179.953,27.63c0.85,0,1.76-0.301,2.564-0.854c0.117-0.076,0.219-0.168,0.326-0.256
			c0.049-0.039,0.1-0.076,0.148-0.117c0.051-0.043,0.1-0.086,0.147-0.131c0.04-0.037,0.14-0.07,0.18-0.109
			c1.115-1.084,1.181-2.488,1.181-3.5v-9.097l7.999-2.535v7.636c0,0.004-0.076,0.016-0.139,0.021
			c-0.084-0.006-0.146-0.012-0.234-0.012c-0.85,0-1.748,0.303-2.553,0.852c-0.791,0.541-1.395,1.27-1.707,2.043
			c-0.351,0.871-0.291,1.742,0.153,2.396c0.446,0.652,1.207,1.012,2.14,1.012c0.848,0,1.762-0.303,2.565-0.854
			c0.791-0.539,1.399-1.268,1.713-2.043c0.097-0.24,0.122-0.48,0.157-0.717c0.15-0.562-0.096-1.111-0.096-1.578V8.287
			c0-0.027,0-0.053,0-0.078V7.841c0-0.24-0.076-0.467-0.269-0.609s-0.422-0.184-0.653-0.111l-10.675,3.299
			c-0.316,0.099-0.525,0.391-0.525,0.721c0,1.869,0.004,3.742,0.008,5.617c0.005,1.533,0.011,3.07,0.012,4.605
			c-0.146-0.02-0.297-0.033-0.456-0.033c-0.849,0-1.758,0.303-2.563,0.854c-0.793,0.539-1.399,1.266-1.713,2.043
			c-0.352,0.867-0.295,1.74,0.15,2.395C178.261,27.273,179.02,27.63,179.953,27.63z"/>
	</g>
</g>
<g>
	<path fill="#0096FF" d="M-20.155,8.324c0.031,0.171,0.061,0.341,0.084,0.515c0.125-0.026,0.246-0.068,0.352-0.142l4.717-3.319
		c0.205-0.142,0.342-0.357,0.383-0.604c0.043-0.245-0.012-0.493-0.156-0.695c-0.283-0.407-0.895-0.515-1.301-0.228l-4.412,3.102
		c0.057,0.178,0.105,0.356,0.152,0.538C-20.265,7.765-20.206,8.043-20.155,8.324z"/>
	<path fill="#0096FF" d="M-13.981,12.827c-0.145-0.203-0.357-0.341-0.604-0.384l-5.391-0.938c-0.012,0.176-0.025,0.352-0.043,0.525
		c-0.029,0.271-0.066,0.541-0.109,0.81c-0.029,0.175-0.061,0.347-0.094,0.521l5.314,0.925c0.055,0.009,0.107,0.014,0.162,0.014
		c0.455,0,0.842-0.325,0.918-0.772C-13.782,13.279-13.839,13.031-13.981,12.827z"/>
	<path fill="#0096FF" d="M-20.386,15.875c-0.109-0.155-0.27-0.267-0.443-0.329c-0.059,0.165-0.121,0.328-0.186,0.49
		c-0.105,0.268-0.217,0.533-0.336,0.798c-0.084,0.184-0.172,0.363-0.262,0.543l3.018,4.288c0.143,0.205,0.357,0.342,0.604,0.385
		c0.053,0.012,0.107,0.016,0.162,0.016c0.195,0,0.381-0.062,0.535-0.17c0.205-0.145,0.342-0.359,0.385-0.605
		s-0.014-0.494-0.158-0.697L-20.386,15.875z"/>
	<path fill="#0096FF" d="M-50.376,5.377l4.717,3.317c0.058,0.042,0.121,0.067,0.184,0.093c0.025-0.182,0.059-0.361,0.092-0.54
		c0.057-0.29,0.119-0.578,0.193-0.859c0.05-0.182,0.1-0.359,0.156-0.537l-4.267-3c-0.409-0.287-1.019-0.18-1.302,0.226
		c-0.143,0.204-0.199,0.452-0.156,0.698C-50.717,5.021-50.579,5.236-50.376,5.377z"/>
	<path fill="#0096FF" d="M-45.413,12.87c-0.045-0.271-0.084-0.539-0.113-0.81c-0.021-0.174-0.034-0.352-0.047-0.524l-5.219,0.907
		c-0.246,0.043-0.461,0.181-0.605,0.386c-0.143,0.202-0.197,0.45-0.155,0.694c0.079,0.449,0.465,0.774,0.92,0.774
		c0.054,0,0.108-0.005,0.161-0.015l5.154-0.896C-45.351,13.214-45.384,13.042-45.413,12.87z"/>
	<path fill="#0096FF" d="M-44.493,16.113c-0.067-0.166-0.133-0.334-0.192-0.504c-0.12,0.063-0.226,0.152-0.306,0.267l-3.319,4.718
		c-0.144,0.201-0.199,0.449-0.157,0.697c0.043,0.246,0.18,0.461,0.379,0.602c0.159,0.111,0.346,0.174,0.539,0.174
		c0.057,0,0.109-0.004,0.162-0.016c0.247-0.043,0.461-0.178,0.604-0.383l2.924-4.155c-0.092-0.18-0.18-0.359-0.264-0.539
		C-44.256,16.688-44.379,16.402-44.493,16.113z"/>
	<path fill="#0096FF" d="M-32.778,0.036c-5.914,0-10.727,4.744-10.727,10.575c0,2.978,1.245,6.22,3.337,8.703
		c0.021,0.031,0.046,0.062,0.07,0.094c0.636,0.785,2.453,3.408,2.453,5.109c0,0.729,0.59,1.316,1.315,1.316h7.105
		c0.01,0,0.021,0,0.033,0c0.174,0,0.35-0.033,0.516-0.105c0.486-0.205,0.801-0.684,0.801-1.211c0-1.512,1.504-3.938,2.453-5.109
		c0.057-0.07,0.105-0.145,0.146-0.227c2.025-2.465,3.227-5.646,3.227-8.57C-22.048,4.779-26.86,0.036-32.778,0.036z M-27.47,17.702
		c-0.078,0.088-0.141,0.188-0.188,0.289c-0.586,0.764-2.176,2.985-2.688,5.209h-4.827c-0.542-2.354-2.291-4.702-2.78-5.325
		c-0.035-0.057-0.076-0.111-0.121-0.162c-1.727-2.004-2.799-4.726-2.799-7.103c0-4.38,3.633-7.943,8.094-7.943
		c4.465,0,8.098,3.563,8.098,7.943C-24.681,12.984-25.749,15.702-27.47,17.702z"/>
	<path fill="#0096FF" d="M-29.806,28.027h-5.939c-0.582,0-1.054,0.471-1.054,1.053v4.076c0,0.58,0.472,1.053,1.054,1.053h1.004
		l0.523,0.602c0.199,0.23,0.49,0.363,0.795,0.363h1.293c0.305,0,0.596-0.133,0.795-0.363l0.521-0.602h1.006
		c0.582,0,1.053-0.473,1.053-1.053V29.08C-28.753,28.498-29.224,28.027-29.806,28.027z"/>
</g>
<g>
	<path fill="#0096FF" d="M153.441,9.186c-0.826-0.725-1.756-1.082-2.771-1.346c-0.988-0.258-2.178-0.248-3.543-0.248h-5.135
		c-0.959,0-1.445,0.094-1.904,0.555c-0.461,0.459-0.455,1.047-0.455,2.005v14.265c0,0.662-0.176,1.217-0.057,1.645
		c0.139,0.5,0.324,0.884,0.779,1.156c0.434,0.258,0.912,0.375,1.717,0.375h5.135c0.912,0,1.748-0.051,2.477-0.168
		c0.746-0.123,1.453-0.33,2.104-0.629c0.656-0.299,1.268-0.699,1.822-1.199c0.693-0.637,1.27-1.371,1.715-2.18
		c0.441-0.809,0.771-1.723,0.984-2.725c0.209-0.988,0.314-2.096,0.314-3.283C156.623,13.76,155.548,10.989,153.441,9.186z
		 M149.955,22.826c-0.25,0.222-0.551,0.394-0.898,0.519c-0.365,0.127-0.719,0.188-1.053,0.219c-0.355,0.033-0.863,0.029-1.5,0.029
		h-2.871v-12h2.486c1.156,0,2.148-0.033,2.957,0.211c0.744,0.229,1.383,0.701,1.906,1.562c0.537,0.885,0.809,2.226,0.809,4.057
		C151.791,20.004,151.173,21.797,149.955,22.826z"/>
	<path fill="#0096FF" d="M134.061,25.122c0,0.908-0.224,1.609-0.673,2.088c-0.449,0.484-1.035,0.729-1.736,0.729
		c-0.719,0-1.3-0.249-1.734-0.745c-0.42-0.479-0.636-1.177-0.636-2.071v-6.128h-7.667v6.128c0,0.908-0.227,1.609-0.672,2.088
		c-0.453,0.484-1.036,0.729-1.74,0.729c-0.716,0-1.298-0.249-1.734-0.745c-0.418-0.479-0.635-1.177-0.635-2.071V9.792
		c0-0.896,0.211-1.593,0.631-2.067c0.428-0.489,1.015-0.738,1.738-0.738c0.711,0,1.299,0.239,1.745,0.722
		c0.44,0.473,0.667,1.173,0.667,2.084v5.154h7.666V9.792c0-0.9,0.217-1.595,0.645-2.073c0.441-0.488,1.021-0.732,1.727-0.732
		c0.709,0,1.3,0.239,1.744,0.722c0.441,0.473,0.665,1.173,0.665,2.084V25.122z"/>
</g>
<g>
	<path fill="#0096FF" d="M86.659,13.637L85.38,10l-1.278,3.639c-0.416,1.184-1.537,1.996-2.791,2.022L77.5,15.736l3.011,2.26
		c1.016,0.764,1.447,2.092,1.076,3.305l-1.107,3.625l3.188-2.195c0.504-0.348,1.098-0.533,1.715-0.533s1.213,0.188,1.719,0.535
		l3.184,2.191L89.176,21.3c-0.373-1.213,0.059-2.541,1.072-3.305l3.014-2.26l-3.809-0.075
		C88.194,15.634,87.073,14.823,86.659,13.637z"/>
	<path fill="#0096FF" d="M102.94,12.619c-0.115-0.361-0.449-0.608-0.828-0.617l-11.965-0.24l-3.926-11.18
		c-0.125-0.356-0.463-0.596-0.841-0.596c-0.377,0-0.714,0.239-0.839,0.596l-3.927,11.18l-11.966,0.24
		c-0.379,0.009-0.711,0.256-0.827,0.617s0.009,0.757,0.313,0.984l9.527,7.149L74.2,32.074c-0.11,0.361,0.02,0.754,0.326,0.979
		c0.304,0.223,0.719,0.23,1.029,0.014L85.38,26.3l9.827,6.766c0.152,0.107,0.328,0.158,0.504,0.158c0.186,0,0.369-0.059,0.525-0.172
		c0.305-0.225,0.436-0.617,0.324-0.979l-3.465-11.32l9.529-7.15C102.93,13.375,103.057,12.979,102.94,12.619z M91.53,19.705
		c-0.299,0.225-0.426,0.611-0.316,0.971l2.9,9.479l-8.229-5.666c-0.152-0.104-0.328-0.156-0.505-0.156
		c-0.176,0-0.353,0.053-0.504,0.156l-8.229,5.668l2.899-9.48c0.11-0.357-0.019-0.746-0.317-0.971l-7.963-5.976l10.002-0.202
		c0.371-0.007,0.697-0.244,0.82-0.595l3.293-9.373l3.293,9.373c0.121,0.351,0.449,0.588,0.82,0.595l10.002,0.202L91.53,19.705z"/>
</g>
<g id="electricity">
	<path id="electricity_1_" fill="#0096FF" d="M44.498,26.462c0.074-0.373-0.177-0.787-0.558-0.787h-2.045
		c-0.38,0-0.604-0.189-0.497-0.557l1.84-6.533c0.107-0.365-0.117-0.91-0.496-0.91h-3.504c-0.38,0-0.595,0.006-0.479-0.357
		L43.52,3.024c0.118-0.366,0.526-0.349,0.907-0.349h9.148c0.381,0,0.557,0.119,0.391,0.463l-4.773,9.842
		c-0.166,0.345,0.012,0.58,0.391,0.574l3.502-0.055c0.381-0.006,0.555,0.26,0.383,0.602l-4.213,8.182
		c-0.172,0.344,0,0.395,0.383,0.395h2.074c0.379,0,0.5,0.469,0.268,0.77l-8.854,11.48c-0.234,0.301-0.365,0.242-0.291-0.131
		L44.498,26.462z"/>
</g>
</svg>
