<?xml version="1.0" encoding="utf-8"?>
<!-- Generator: Adobe Illustrator 16.0.0, SVG Export Plug-In . SVG Version: 6.00 Build 0)  -->
<!DOCTYPE svg PUBLIC "-//W3C//DTD SVG 1.1//EN" "http://www.w3.org/Graphics/SVG/1.1/DTD/svg11.dtd">
<svg version="1.1" id="Layer_1" xmlns="http://www.w3.org/2000/svg" xmlns:xlink="http://www.w3.org/1999/xlink" x="0px" y="0px"
	 width="207.073px" height="121.311px" viewBox="0 0 207.073 121.311" enable-background="new 0 0 207.073 121.311"
	 xml:space="preserve">
<path fill="#F93817" d="M16.399,120.658H5.466V94.228H0v-9.11h5.466v-5.468c0-7.431,3.085-11.851,11.848-11.851h7.298v9.11h-4.56
	c-3.413,0-3.639,1.273-3.639,3.649l-0.014,4.559h8.265l-0.967,9.11h-7.297V120.658z"/>
<path fill="#FFFFFF" d="M17.426,54.658H6.492V28.228H1.026v-9.11h5.466v-5.468c0-7.431,3.085-11.851,11.848-11.851h7.298v9.11h-4.56
	c-3.413,0-3.639,1.273-3.639,3.649l-0.014,4.559h8.265l-0.967,9.11h-7.297V54.658z"/>
<g id="Page_1">
	<g>
		<path id="LinkedIn_9_" fill="#FFFFFF" d="M90.436,18.875v37.203h11.561V37.674c0-4.852,0.916-9.553,6.934-9.553
			c5.926,0,6.012,5.55,6.012,9.866v18.091h11.549V35.672c0-10.021-2.16-17.725-13.861-17.725c-5.626,0-9.398,3.084-10.942,6.009
			h-0.158v-5.082H90.436z M77.399,0.379c-3.706,0-6.702,3.005-6.702,6.703c0,3.702,2.996,6.707,6.702,6.707
			c3.697,0,6.702-3.004,6.702-6.707C84.101,3.384,81.097,0.379,77.399,0.379z M71.615,18.875v37.203h11.568V18.875H71.615z"/>
	</g>
</g>
<g id="Page_1_2_">
	<g>
		<path id="LinkedIn_12_" fill="#F93817" d="M90.436,83.729v37.203h11.561v-18.404c0-4.852,0.916-9.553,6.934-9.553
			c5.926,0,6.012,5.55,6.012,9.866v18.091h11.549v-20.406c0-10.021-2.16-17.725-13.861-17.725c-5.626,0-9.398,3.084-10.942,6.009
			h-0.158v-5.082H90.436z M77.399,65.232c-3.706,0-6.702,3.005-6.702,6.703c0,3.702,2.996,6.707,6.702,6.707
			c3.697,0,6.702-3.004,6.702-6.707C84.101,68.237,81.097,65.232,77.399,65.232z M71.615,83.729v37.203h11.568V83.729H71.615z"/>
	</g>
</g>
<g>
	<path fill="#FFFFFF" d="M186.543,0c-15.407,0-23.176,11.047-23.176,20.258c0,5.577,2.112,10.539,6.642,12.388
		c0.742,0.305,1.407,0.013,1.623-0.811c0.149-0.569,0.504-2.005,0.662-2.603c0.217-0.813,0.133-1.099-0.467-1.808
		c-1.306-1.541-2.141-3.535-2.141-6.359c0-8.195,6.132-15.532,15.967-15.532c8.708,0.001,13.492,5.321,13.492,12.429
		c0,9.35-4.138,17.242-10.28,17.242c-3.394,0-5.933-2.807-5.118-6.247c0.975-4.109,2.862-8.543,2.862-11.508
		c0-2.653-1.425-4.868-4.373-4.868c-3.468,0-6.254,3.588-6.254,8.394c0,3.061,1.034,5.131,1.034,5.131s-3.549,15.038-4.172,17.672
		c-1.238,5.245-0.186,11.674-0.097,12.323c0.053,0.385,0.546,0.476,0.771,0.185c0.32-0.417,4.451-5.516,5.855-10.611
		c0.396-1.443,2.28-8.914,2.28-8.914c1.127,2.149,4.419,4.042,7.921,4.042c10.426,0,17.498-9.503,17.498-22.224
		C207.073,8.958,198.926,0,186.543,0z"/>
</g>
<g>
	<path fill="#F93817" d="M186.543,64.854c-15.407,0-23.176,11.047-23.176,20.258c0,5.577,2.112,10.539,6.642,12.388
		c0.742,0.305,1.407,0.013,1.623-0.811c0.149-0.569,0.504-2.005,0.662-2.603c0.217-0.813,0.133-1.099-0.467-1.808
		c-1.306-1.541-2.141-3.535-2.141-6.359c0-8.195,6.132-15.532,15.967-15.532c8.708,0.001,13.492,5.321,13.492,12.429
		c0,9.35-4.138,17.242-10.28,17.242c-3.394,0-5.933-2.807-5.118-6.247c0.975-4.109,2.862-8.543,2.862-11.508
		c0-2.653-1.425-4.868-4.373-4.868c-3.468,0-6.254,3.588-6.254,8.394c0,3.061,1.034,5.131,1.034,5.131s-3.549,15.038-4.172,17.672
		c-1.238,5.245-0.186,11.674-0.097,12.323c0.053,0.385,0.546,0.476,0.771,0.185c0.32-0.417,4.451-5.516,5.855-10.611
		c0.396-1.443,2.28-8.914,2.28-8.914c1.127,2.149,4.419,4.042,7.921,4.042c10.426,0,17.498-9.503,17.498-22.224
		C207.073,73.812,198.926,64.854,186.543,64.854z"/>
</g>
</svg>
