<?xml version="1.0" encoding="utf-8"?>
<!-- Generator: Adobe Illustrator 16.0.0, SVG Export Plug-In . SVG Version: 6.00 Build 0)  -->
<!DOCTYPE svg PUBLIC "-//W3C//DTD SVG 1.1//EN" "http://www.w3.org/Graphics/SVG/1.1/DTD/svg11.dtd">
<svg version="1.1" id="Layer_1" xmlns="http://www.w3.org/2000/svg" xmlns:xlink="http://www.w3.org/1999/xlink" x="0px" y="0px"
	 width="226.189px" height="49.991px" viewBox="0 0 226.189 49.991" enable-background="new 0 0 226.189 49.991"
	 xml:space="preserve">
<g>
	<g>
		<circle fill="#0096FF" cx="72.221" cy="45.81" r="3.709"/>
		<circle fill="#0096FF" cx="91.766" cy="45.81" r="3.709"/>
		<path fill="#0096FF" d="M111.312,42.101c-2.052,0-3.709,1.661-3.709,3.709c0,2.051,1.657,3.709,3.709,3.709
			c2.047,0,3.711-1.658,3.711-3.709C115.023,43.762,113.359,42.101,111.312,42.101z"/>
		<path fill="#0096FF" d="M91.766,16.051c4.352,0,7.887-3.542,7.887-7.891c0-4.351-3.535-7.888-7.887-7.888
			c-4.35,0-7.888,3.537-7.888,7.888C83.878,12.509,87.416,16.051,91.766,16.051z M91.766,3.7c2.462,0,4.463,2.001,4.463,4.461
			c0,2.461-2.001,4.462-4.463,4.462c-2.461,0-4.462-2.001-4.462-4.462C87.304,5.701,89.305,3.7,91.766,3.7z"/>
		<path fill="#0096FF" d="M109.193,33.327c0,0.545,0.117,1.066,0.357,1.568c0.24,0.497,0.822,0.747,1.749,0.747
			c0.514,0,0.923-0.121,1.23-0.364c0.311-0.241,0.55-0.544,0.724-0.906c0.17-0.363,0.289-0.757,0.36-1.181
			c0.065-0.425,0.099-0.819,0.099-1.181c0-1.333-0.332-2.438-1-3.315s-1.535-1.55-2.596-2.02c-1.062-0.471-2.246-0.743-3.547-0.818
			c-1.302-0.075-2.586,0.023-3.856,0.294c-2.603,0.546-4.694,0.539-6.271-0.021s-2.365-1.599-2.365-3.11
			c0-0.697-0.223-1.248-0.668-1.657s-0.992-0.612-1.645-0.612c-0.65,0-1.201,0.203-1.645,0.612c-0.444,0.409-0.67,0.96-0.67,1.657
			c0,1.512-0.786,2.55-2.361,3.11c-1.58,0.561-3.668,0.567-6.274,0.021c-1.267-0.271-2.552-0.369-3.853-0.294
			c-1.303,0.075-2.484,0.348-3.547,0.818c-1.061,0.47-1.929,1.142-2.597,2.02c-0.667,0.878-1.003,1.982-1.003,3.315
			c0,0.361,0.035,0.756,0.104,1.181c0.069,0.424,0.188,0.817,0.358,1.181c0.172,0.362,0.424,0.665,0.746,0.906
			c0.324,0.243,0.745,0.364,1.262,0.364c0.888,0,1.455-0.25,1.694-0.747c0.239-0.502,0.357-1.023,0.357-1.568
			c0-0.938,0.344-1.521,1.031-1.746c0.684-0.229,1.472-0.342,2.362-0.342c1.064,0,2.091,0.135,3.083,0.407
			c0.997,0.273,2.06,0.41,3.189,0.41c2.433,0,4.231-0.351,5.397-1.046c1.162-0.696,1.918-1.542,2.261-2.543h0.206
			c0.344,1.001,1.096,1.847,2.262,2.543c1.165,0.695,2.963,1.046,5.396,1.046c1.097,0,2.186-0.137,3.264-0.41
			c1.08-0.272,2.271-0.407,3.573-0.407c0.755,0,1.413,0.113,1.98,0.342C108.91,31.805,109.193,32.388,109.193,33.327z"/>
	</g>
</g>
<g>
	<g>
		<path fill="#0096FF" d="M52.753,22.892C47.37,12.332,37.36,5.772,26.635,5.772c-10.728,0-20.734,6.56-26.119,17.12L0,23.902
			l0.516,1.009C5.9,35.47,15.907,42.029,26.635,42.029c10.726,0,20.735-6.559,26.118-17.118l0.516-1.009L52.753,22.892z
			 M26.634,34.86c-6.052,0-10.958-4.906-10.958-10.956c0-6.055,4.906-10.962,10.958-10.962c6.055,0,10.959,4.907,10.959,10.962
			C37.593,29.954,32.688,34.86,26.634,34.86z"/>
		<circle fill="#0096FF" cx="26.635" cy="23.9" r="5.474"/>
	</g>
</g>
<g>
	<g>
		<path fill="#0096FF" d="M225.685,6.964l-6.571-6.477C218.796,0.176,218.369,0,217.922,0h-26.006c-0.938,0-1.698,0.759-1.698,2.4
			v23.958h3.396V3.396h22.542v5.533c0,0.562,0.456,1.018,1.019,1.018h5.622v16.412h3.394V8.877
			C226.189,7.72,226.008,7.284,225.685,6.964z"/>
		<path fill="#0096FF" d="M198.279,21.994h20.115c0.365,0,0.662-0.296,0.662-0.661c0-0.366-0.297-0.662-0.662-0.662h-20.115
			c-0.367,0-0.662,0.296-0.662,0.662C197.617,21.698,197.912,21.994,198.279,21.994z"/>
		<path fill="#0096FF" d="M198.279,15.669h20.115c0.365,0,0.662-0.296,0.662-0.662c0-0.365-0.297-0.662-0.662-0.662h-20.115
			c-0.367,0-0.662,0.297-0.662,0.662C197.617,15.373,197.912,15.669,198.279,15.669z"/>
		<path fill="#0096FF" d="M199.285,36.627h-4.023c-0.582,0-1.053,0.472-1.053,1.055v3.927c0,0.582,0.471,1.054,1.053,1.054h4.023
			c0.582,0,1.055-0.472,1.055-1.054v-3.927C200.34,37.099,199.867,36.627,199.285,36.627z"/>
		<path fill="#0096FF" d="M224.674,35.718h-4.744c-0.582,0-1.055,0.472-1.055,1.055v4.631c0,0.582,0.473,1.054,1.055,1.054h4.744
			c0.581,0,1.053-0.472,1.053-1.054v-4.631C225.727,36.189,225.255,35.718,224.674,35.718z"/>
		<path fill="#0096FF" d="M214.861,41.375h-2.638c-0.583,0-1.054,0.472-1.054,1.054v2.575c0,0.584,0.471,1.055,1.054,1.055h2.638
			c0.582,0,1.055-0.471,1.055-1.055v-2.575C215.916,41.847,215.443,41.375,214.861,41.375z"/>
		<path fill="#0096FF" d="M193.759,33.636c0.582,0,1.054-0.472,1.054-1.055v-2.575c0-0.582-0.472-1.054-1.054-1.054h-2.638
			c-0.582,0-1.055,0.472-1.055,1.054v2.575c0,0.583,0.473,1.055,1.055,1.055H193.759z"/>
		<path fill="#0096FF" d="M224.938,28.521h-1.039c-0.582,0-1.055,0.473-1.055,1.055v1.016c0,0.583,0.473,1.055,1.055,1.055h1.039
			c0.584,0,1.055-0.472,1.055-1.055v-1.016C225.992,28.994,225.521,28.521,224.938,28.521z"/>
		<path fill="#0096FF" d="M221.512,46.245h-1.58c-0.584,0-1.055,0.472-1.055,1.055v1.543c0,0.582,0.471,1.054,1.055,1.054h1.58
			c0.582,0,1.055-0.472,1.055-1.054V47.3C222.566,46.717,222.094,46.245,221.512,46.245z"/>
		<path fill="#0096FF" d="M193.018,46.757h-1.154c-0.583,0-1.055,0.471-1.055,1.053v1.128c0,0.583,0.472,1.054,1.055,1.054h1.154
			c0.582,0,1.054-0.471,1.054-1.054V47.81C194.071,47.228,193.6,46.757,193.018,46.757z"/>
		<path fill="#0096FF" d="M206.558,43.712h-1.155c-0.582,0-1.055,0.473-1.055,1.055v1.126c0,0.585,0.473,1.056,1.055,1.056h1.155
			c0.581,0,1.054-0.471,1.054-1.056v-1.126C207.611,44.185,207.139,43.712,206.558,43.712z"/>
		<path fill="#0096FF" d="M218.893,28.5c0-0.584-0.472-1.055-1.055-1.055h-2.861c-0.582,0-1.055,0.471-1.055,1.055v2.794
			c0,0.582,0.473,1.055,1.055,1.055h2.861c0.583,0,1.055-0.473,1.055-1.055V28.5z"/>
		<path fill="#0096FF" d="M209.916,30.462h-6.266c-0.582,0-1.055,0.472-1.055,1.055v6.115c0,0.584,0.473,1.056,1.055,1.056h6.266
			c0.582,0,1.054-0.472,1.054-1.056v-6.115C210.97,30.934,210.498,30.462,209.916,30.462z"/>
	</g>
</g>
<g>
	<g>
		<path fill="#0096FF" d="M136.081,13.145h-1.322c-2.11,0-3.828,1.719-3.828,3.83v25.529c0,2.111,1.718,3.829,3.828,3.829h1.322
			c2.11,0,3.828-1.718,3.828-3.829V16.975C139.909,14.863,138.191,13.145,136.081,13.145z"/>
		<path fill="#0096FF" d="M169.774,3.659h-25.531c-2.109,0-3.826,1.719-3.826,3.829v1.321c0,2.111,1.717,3.83,3.826,3.83h25.531
			c2.11,0,3.828-1.719,3.828-3.83V7.488C173.603,5.378,171.885,3.659,169.774,3.659z M171.227,8.809c0,0.801-0.65,1.453-1.452,1.453
			h-25.531c-0.799,0-1.451-0.652-1.451-1.453V7.488c0-0.8,0.652-1.452,1.451-1.452h25.531c0.802,0,1.452,0.652,1.452,1.452V8.809z"
			/>
		<path fill="#0096FF" d="M167.035,21.708l-6.355-3.666c-0.181-0.103-0.396-0.115-0.586-0.03c-0.188,0.084-0.325,0.253-0.366,0.455
			l-1.525,7.178c-0.048,0.24,0.037,0.484,0.227,0.635c0.188,0.154,0.447,0.188,0.67,0.088l2.183-0.972
			c-0.118,1.018-0.396,2.019-0.856,2.969c-1.068,2.209-2.936,3.871-5.254,4.676c-2.254,0.784-4.688,0.666-6.857-0.331
			c-0.755-0.347-1.648-0.016-1.996,0.739c-0.347,0.754-0.017,1.648,0.739,1.997c2.877,1.323,6.111,1.479,9.104,0.438
			c0.334-0.117,0.663-0.245,0.982-0.388c2.621-1.169,4.729-3.205,5.993-5.82c0.866-1.789,1.274-3.719,1.218-5.65l2.622-1.169
			c0.222-0.099,0.369-0.313,0.382-0.555C167.37,22.058,167.245,21.829,167.035,21.708z"/>
	</g>
</g>
</svg>
