<?xml version="1.0" encoding="utf-8"?>
<!-- Generator: Adobe Illustrator 16.0.0, SVG Export Plug-In . SVG Version: 6.00 Build 0)  -->
<!DOCTYPE svg PUBLIC "-//W3C//DTD SVG 1.1//EN" "http://www.w3.org/Graphics/SVG/1.1/DTD/svg11.dtd">
<svg version="1.1" id="Layer_1" xmlns="http://www.w3.org/2000/svg" xmlns:xlink="http://www.w3.org/1999/xlink" x="0px" y="0px"
	 width="130.327px" height="60.987px" viewBox="0 0 130.327 60.987" enable-background="new 0 0 130.327 60.987"
	 xml:space="preserve">
<path fill="#0897FD" d="M16.399,60.987H5.466V34.556H0v-9.11h5.466v-5.468c0-7.431,3.085-11.851,11.848-11.851h7.298v9.11h-4.56
	c-3.413,0-3.639,1.273-3.639,3.649l-0.014,4.559h8.265l-0.967,9.11h-7.297V60.987z"/>
<path fill="#0096FF" d="M130.327,28.229c0-1.581-0.631-3.002-1.761-4.019c-0.782-0.689-2.205-1.529-4.513-1.529h-16.708
	c0.682-3.781,1.406-8.699,1.442-8.975c0.023-0.194,0.036-0.384,0.021-0.578c-0.341-4.975-3.466-10.9-3.601-11.144
	c-0.293-0.553-0.762-0.988-1.337-1.236C102.673,0.258,101.503,0,100.386,0c-2.347,0-4.078,1.157-4.85,2.141
	c-0.381,0.505-0.58,1.11-0.571,1.739c0,0.066,0.162,6.406,0.183,8.387c-0.822,2.371-7.591,13.251-9.138,14.643
	c-0.394,0.336-0.954,0.745-1.584,1.178v0.001l-1.455,0.778c-0.262-1.224-0.805-2.521-2.887-2.661H63.659
	c-0.747,0-1.474,0.317-1.981,0.881c-0.521,0.55-0.771,1.96-0.71,2.71l2.178,27.757c0.109,1.399,1.278,2.499,2.699,2.499h14.62
	c1.208,0,2.366-0.71,2.565-2.357c0,0-0.003-0.562-0.008-1.528l2.801,0.01c0.208,0.096,0.61,0.354,0.881,0.529
	c1.08,0.692,2.558,1.643,4.383,1.643h24.815c4.97,0,8.312-3.843,8.312-7.426c0-0.822-0.17-1.591-0.485-2.291
	c1.597-1.429,2.519-3.385,2.519-5.268c0-0.824-0.161-1.593-0.479-2.291c1.597-1.434,2.517-3.387,2.517-5.28
	c0-0.812-0.163-1.589-0.484-2.279C129.399,32.079,130.327,30.125,130.327,28.229z M122.016,32.945c5.938,0,3.898,7.571-2.033,7.571
	c5.934,0,3.892,7.56-2.044,7.56c5.936,0,3.896,7.564-2.038,7.564c-3.11,0-15.923,0-24.815,0c-1.914,0-3.657-2.182-5.068-2.182
	c-0.602,0-1.406,0-1.879,0V31.337c1.252-0.806,2.832-1.687,3.639-2.375c1.981-1.682,10.085-14.788,10.085-16.426
	c0-1.637-0.186-8.726-0.186-8.726s0.855-1.106,2.707-1.106c0.681,0,1.483,0.149,2.433,0.545c0,0,2.985,5.605,3.288,10.065
	c0,0-1.339,9.192-2.066,12.072c0,0,15.95,0,20.015,0C129.99,25.385,127.954,32.945,122.016,32.945z"/>
<image display="none" overflow="visible" width="64" height="29" xlink:href="sprite-fb-icon.png"  transform="matrix(2.1107 0 0 2.1107 -2.3345 -0.2231)">
</image>
</svg>
