<?xml version="1.0" encoding="utf-8"?>
<!-- Generator: Adobe Illustrator 16.0.0, SVG Export Plug-In . SVG Version: 6.00 Build 0)  -->
<!DOCTYPE svg PUBLIC "-//W3C//DTD SVG 1.1//EN" "http://www.w3.org/Graphics/SVG/1.1/DTD/svg11.dtd">
<svg version="1.1" id="Layer_1" xmlns="http://www.w3.org/2000/svg" xmlns:xlink="http://www.w3.org/1999/xlink" x="0px" y="0px"
	 width="226.638px" height="45.386px" viewBox="0 0 226.638 45.386" enable-background="new 0 0 226.638 45.386"
	 xml:space="preserve">
<g>
	<g>
		<path fill="#0096FF" d="M126.083,22.612c0.568,0,1.029-0.46,1.029-1.029V18.87c0-0.568-0.461-1.029-1.029-1.029
			s-1.029,0.461-1.029,1.029v2.713C125.054,22.152,125.515,22.612,126.083,22.612z"/>
		<path fill="#0096FF" d="M126.083,14.474c0.568,0,1.029-0.461,1.029-1.029v-2.713c0-0.568-0.461-1.029-1.029-1.029
			s-1.029,0.461-1.029,1.029v2.713C125.054,14.013,125.515,14.474,126.083,14.474z"/>
		<path fill="#0096FF" d="M126.083,6.335c0.568,0,1.029-0.461,1.029-1.029V4.962h0.344c0.568,0,1.029-0.461,1.029-1.029
			s-0.461-1.029-1.029-1.029h-1.373c-0.568,0-1.029,0.461-1.029,1.029v1.373C125.054,5.874,125.515,6.335,126.083,6.335z"/>
		<path fill="#0096FF" d="M140.003,4.962h2.51c0.568,0,1.029-0.461,1.029-1.029s-0.461-1.029-1.029-1.029h-2.51
			c-0.568,0-1.03,0.461-1.03,1.029S139.435,4.962,140.003,4.962z"/>
		<path fill="#0096FF" d="M147.532,4.962h2.51c0.569,0,1.03-0.461,1.03-1.029s-0.461-1.029-1.03-1.029h-2.51
			c-0.568,0-1.029,0.461-1.029,1.029S146.963,4.962,147.532,4.962z"/>
		<path fill="#0096FF" d="M132.475,4.962h2.51c0.569,0,1.029-0.461,1.029-1.029s-0.46-1.029-1.029-1.029h-2.51
			c-0.568,0-1.029,0.461-1.029,1.029S131.907,4.962,132.475,4.962z"/>
		<path fill="#0096FF" d="M157.57,2.903h-2.51c-0.568,0-1.029,0.461-1.029,1.029s0.461,1.029,1.029,1.029h2.51
			c0.569,0,1.029-0.461,1.029-1.029S158.139,2.903,157.57,2.903z"/>
		<path fill="#0096FF" d="M163.961,2.903h-1.373c-0.568,0-1.029,0.461-1.029,1.029s0.461,1.029,1.029,1.029h0.343v0.344
			c0,0.568,0.461,1.029,1.03,1.029s1.03-0.461,1.03-1.029V3.933C164.992,3.364,164.531,2.903,163.961,2.903z"/>
		<path fill="#0096FF" d="M163.961,25.98c-0.569,0-1.03,0.461-1.03,1.029v2.712c0,0.569,0.461,1.029,1.03,1.029
			s1.03-0.46,1.03-1.029V27.01C164.992,26.441,164.531,25.98,163.961,25.98z"/>
		<path fill="#0096FF" d="M163.961,17.841c-0.569,0-1.03,0.461-1.03,1.029v2.714c0,0.568,0.461,1.029,1.03,1.029
			s1.03-0.461,1.03-1.029V18.87C164.992,18.302,164.531,17.841,163.961,17.841z"/>
		<path fill="#0096FF" d="M163.961,9.702c-0.569,0-1.03,0.462-1.03,1.029v2.713c0,0.569,0.461,1.03,1.03,1.03s1.03-0.461,1.03-1.03
			v-2.713C164.992,10.164,164.531,9.702,163.961,9.702z"/>
		<path fill="#0096FF" d="M163.961,34.118c-0.569,0-1.03,0.461-1.03,1.031v0.343h-0.343c-0.568,0-1.029,0.46-1.029,1.029
			c0,0.568,0.461,1.029,1.029,1.029h1.373c0.569,0,1.03-0.461,1.03-1.029v-1.372C164.992,34.579,164.531,34.118,163.961,34.118z"/>
		<path fill="#0096FF" d="M157.57,35.492h-2.51c-0.568,0-1.029,0.46-1.029,1.029c0,0.568,0.461,1.029,1.029,1.029h2.51
			c0.569,0,1.029-0.461,1.029-1.029C158.599,35.952,158.139,35.492,157.57,35.492z"/>
		<path fill="#0096FF" d="M150.042,35.492h-2.51c-0.568,0-1.029,0.46-1.029,1.029c0,0.568,0.461,1.029,1.029,1.029h2.51
			c0.569,0,1.03-0.461,1.03-1.029C151.072,35.952,150.611,35.492,150.042,35.492z"/>
		<path fill="#0096FF" d="M142.168,25.133h-23.273c-0.948,0-1.717,0.769-1.717,1.716V43.67c0,0.947,0.769,1.716,1.717,1.716h23.273
			c0.948,0,1.716-0.769,1.716-1.716V26.849C143.884,25.901,143.117,25.133,142.168,25.133z M140.453,41.954h-19.842V28.565h19.842
			V41.954z"/>
		<path fill="#0096FF" d="M155.872,20.476c0.058-0.008,0.113-0.021,0.169-0.04c0.268-0.098,0.459-0.337,0.494-0.621l1.061-8.572
			c0.029-0.241-0.059-0.482-0.236-0.647c-0.178-0.167-0.421-0.236-0.662-0.191l-8.479,1.644c-0.281,0.055-0.507,0.262-0.586,0.536
			c-0.079,0.273,0.003,0.568,0.212,0.765l2.6,2.427l-5.827,6.24c-0.572,0.613-0.538,1.574,0.073,2.147
			c0.342,0.317,0.791,0.449,1.22,0.397c0.344-0.043,0.674-0.199,0.929-0.472l5.825-6.239l2.601,2.428
			C155.428,20.431,155.652,20.502,155.872,20.476z"/>
	</g>
</g>
<path fill="#0096FF" d="M224.922,0h-45.985c-0.947,0-1.716,0.77-1.716,1.717v38.381c0,0.949,0.769,1.717,1.716,1.717h45.985
	c0.947,0,1.716-0.768,1.716-1.717V1.717C226.638,0.77,225.869,0,224.922,0z M219.776,3.482c0.957,0,1.734,0.775,1.734,1.734
	c0,0.957-0.777,1.732-1.734,1.732s-1.732-0.775-1.732-1.732C218.044,4.258,218.819,3.482,219.776,3.482z M213.599,3.482
	c0.957,0,1.734,0.775,1.734,1.734c0,0.957-0.777,1.732-1.734,1.732s-1.733-0.775-1.733-1.732
	C211.865,4.258,212.642,3.482,213.599,3.482z M207.421,3.482c0.957,0,1.733,0.775,1.733,1.734c0,0.957-0.776,1.732-1.733,1.732
	s-1.733-0.775-1.733-1.732C205.688,4.258,206.464,3.482,207.421,3.482z M223.206,38.383h-42.553V10.068h42.553V38.383z"/>
<path fill="#0096FF" d="M204.422,32.427c0.1,0.052,0.208,0.078,0.316,0.078c0.139,0,0.277-0.043,0.395-0.125l8.78-6.179
	c0.183-0.128,0.292-0.337,0.292-0.562v-2.603c0-0.225-0.109-0.436-0.294-0.564l-8.78-6.135c-0.209-0.146-0.483-0.163-0.711-0.045
	c-0.226,0.117-0.369,0.354-0.369,0.607v3.051c0,0.209,0.096,0.406,0.26,0.537l4.822,3.842l-4.825,3.883
	c-0.161,0.129-0.257,0.326-0.257,0.534v3.071C204.051,32.074,204.195,32.309,204.422,32.427z"/>
<path fill="#0096FF" d="M199.437,17.022c-0.1-0.052-0.208-0.078-0.316-0.078c-0.139,0-0.277,0.043-0.395,0.125l-8.78,6.179
	c-0.183,0.128-0.292,0.337-0.292,0.562v2.603c0,0.225,0.109,0.436,0.294,0.564l8.78,6.135c0.209,0.146,0.483,0.163,0.711,0.045
	c0.226-0.117,0.369-0.354,0.369-0.607v-3.051c0-0.209-0.096-0.406-0.26-0.537l-4.822-3.842l4.825-3.883
	c0.161-0.129,0.257-0.326,0.257-0.534v-3.071C199.808,17.375,199.663,17.141,199.437,17.022z"/>
<g>
	<g>
		<path fill="#0096FF" d="M104.833,2.298c-0.203-0.722-0.859-1.254-1.646-1.254h-5.927h-1.265h-9.032h-1.265h-9.031h-1.266h-9.031
			h-1.266h-7.902c-0.947,0-1.716,0.768-1.716,1.716v6.542v4.523v27.317c0,0.947,0.769,1.715,1.716,1.715h45.984
			c0.948,0,1.717-0.768,1.717-1.715V6.759V2.76C104.904,2.599,104.875,2.445,104.833,2.298z M58.919,10.879l7.46-6.403h5.026
			L61.324,13.13h-2.405V10.879z M58.919,4.476h2.19l-2.19,1.88V4.476z M81.701,4.476l-10.08,8.654h-5.028l10.081-8.654H81.701z
			 M91.998,4.476L81.917,13.13H76.89l10.081-8.654H91.998z M101.472,13.13h-3.989l3.989-3.424V13.13z M92.214,13.13h-5.028
			l10.082-8.654h4.204v0.707L92.214,13.13z M101.472,39.425H58.919V15.19h3.285h1.991h8.306h1.99h8.306h1.99h8.307h1.99h6.388
			V39.425z"/>
		<path fill="#0096FF" d="M92.688,32.62H68.138c-0.38,0-0.687,0.309-0.687,0.688s0.307,0.686,0.687,0.686h24.551
			c0.379,0,0.687-0.307,0.687-0.686S93.067,32.62,92.688,32.62z"/>
		<path fill="#0096FF" d="M92.688,26.942H68.138c-0.38,0-0.687,0.307-0.687,0.688c0,0.379,0.307,0.686,0.687,0.686h24.551
			c0.379,0,0.687-0.307,0.687-0.686C93.375,27.249,93.067,26.942,92.688,26.942z"/>
		<path fill="#0096FF" d="M92.688,21.265H68.138c-0.38,0-0.687,0.307-0.687,0.687c0,0.379,0.307,0.687,0.687,0.687h24.551
			c0.379,0,0.687-0.308,0.687-0.687C93.375,21.571,93.067,21.265,92.688,21.265z"/>
	</g>
</g>
<g>
	<g>
		<path fill="#0096FF" d="M7.219,36.386c0.043,0,0.085-0.003,0.128-0.01l7.699-1.222c0.301-0.047,0.55-0.261,0.645-0.551
			c0.095-0.291,0.019-0.609-0.198-0.825l-1.899-1.899l17.178-17.178l1.899,1.899c0.154,0.155,0.363,0.238,0.575,0.238
			c0.084,0,0.169-0.013,0.251-0.04c0.29-0.094,0.504-0.344,0.551-0.646l1.221-7.698c0.039-0.258-0.044-0.518-0.228-0.701
			c-0.185-0.184-0.444-0.27-0.703-0.229l-7.698,1.221c-0.301,0.048-0.55,0.261-0.646,0.551c-0.094,0.291-0.018,0.609,0.199,0.824
			l1.898,1.899L10.914,29.2l-1.9-1.901c-0.216-0.216-0.535-0.291-0.824-0.197c-0.291,0.094-0.504,0.343-0.552,0.645l-1.221,7.701
			c-0.041,0.255,0.044,0.517,0.228,0.7C6.799,36.301,7.006,36.386,7.219,36.386z"/>
		<path fill="#0096FF" d="M40.434,1H1.353C0.605,1,0,1.605,0,2.353v39.083c0,0.747,0.605,1.353,1.353,1.353h39.081
			c0.749,0,1.354-0.605,1.354-1.353V2.354C41.787,1.605,41.183,1,40.434,1z M39.082,40.083L2.706,40.082V3.707h36.376V40.083z"/>
	</g>
</g>
</svg>
