<?xml version="1.0" encoding="utf-8"?>
<!-- Generator: Adobe Illustrator 16.0.0, SVG Export Plug-In . SVG Version: 6.00 Build 0)  -->
<!DOCTYPE svg PUBLIC "-//W3C//DTD SVG 1.1//EN" "http://www.w3.org/Graphics/SVG/1.1/DTD/svg11.dtd">
<svg version="1.1" id="Layer_1" xmlns="http://www.w3.org/2000/svg" xmlns:xlink="http://www.w3.org/1999/xlink" x="0px" y="0px"
	 width="357.374px" height="49.235px" viewBox="0 0 357.374 49.235" enable-background="new 0 0 357.374 49.235"
	 xml:space="preserve">
<g>
	<g>
		<path fill="#0096FF" d="M283.661,27.839c0.255-0.253,0.255-0.664,0-0.917L282.739,26c-0.255-0.253-0.665-0.253-0.918,0
			s-0.253,0.665,0,0.918l0.922,0.921c0.126,0.127,0.292,0.19,0.459,0.19S283.533,27.966,283.661,27.839z"/>
		<path fill="#0096FF" d="M280.896,25.075c0.253-0.253,0.253-0.664,0-0.919l-0.921-0.921c-0.255-0.253-0.665-0.253-0.918,0
			c-0.254,0.253-0.254,0.665,0,0.918l0.921,0.922c0.127,0.127,0.294,0.189,0.459,0.189
			C280.604,25.264,280.768,25.202,280.896,25.075z"/>
		<path fill="#0096FF" d="M278.131,21.391l-0.921-0.922c-0.254-0.253-0.665-0.253-0.919,0c-0.254,0.254-0.254,0.665,0,0.919
			l0.922,0.921c0.126,0.127,0.292,0.19,0.458,0.19c0.167,0,0.331-0.063,0.46-0.189C278.384,22.056,278.384,21.645,278.131,21.391z"
			/>
		<path fill="#0096FF" d="M262.465,7.562l0.922,0.922c0.127,0.126,0.294,0.189,0.459,0.189c0.166,0,0.332-0.063,0.459-0.189
			c0.254-0.254,0.254-0.665,0-0.919l-0.922-0.922c-0.253-0.253-0.665-0.253-0.918,0C262.211,6.897,262.211,7.308,262.465,7.562z"/>
		<path fill="#0096FF" d="M259.699,4.797l0.922,0.921c0.127,0.128,0.293,0.19,0.459,0.19s0.333-0.062,0.46-0.19
			c0.252-0.254,0.252-0.664,0-0.918l-0.923-0.922c-0.253-0.253-0.664-0.253-0.918,0C259.446,4.132,259.446,4.542,259.699,4.797z"/>
		<path fill="#0096FF" d="M275.321,19.574c0.013-0.011,0.031-0.017,0.044-0.03c0.254-0.253,0.254-0.664,0-0.917l-0.467-0.467
			l1.527-1.529c0.381-0.379,0.381-0.994,0-1.375l-4.396-4.397c-0.364-0.364-1.011-0.364-1.376,0l-1.529,1.528l-0.213-0.213
			c-0.241-0.241-0.622-0.245-0.877-0.025c-0.433-0.259-0.872-0.504-1.32-0.729c0.129-0.021,0.255-0.07,0.355-0.169
			c0.253-0.253,0.253-0.665,0-0.918l-0.922-0.923c-0.254-0.253-0.664-0.253-0.918,0c-0.255,0.254-0.255,0.665,0,0.918l0.747,0.749
			c-2.62-1.188-5.48-1.825-8.443-1.825c-4.464,0-8.708,1.419-12.222,4.039l-1.138-1.137c-0.38-0.382-0.996-0.382-1.376,0
			l-4.396,4.395c-0.38,0.38-0.38,0.996,0,1.376l4.396,4.397c0.182,0.184,0.43,0.285,0.688,0.285c0.259,0,0.506-0.102,0.688-0.285
			l4.396-4.397c0.186-0.182,0.287-0.43,0.287-0.687c0-0.259-0.102-0.507-0.287-0.689l-0.922-0.923
			c2.879-2.023,6.294-3.128,9.886-3.128c3.216,0,6.29,0.884,8.964,2.519l-0.24,0.24c-0.379,0.381-0.379,0.996,0,1.375l4.397,4.397
			c0.182,0.183,0.431,0.285,0.687,0.285c0.26,0,0.508-0.103,0.688-0.285l0.241-0.24c1.635,2.675,2.519,5.748,2.519,8.963
			c0,3.593-1.105,7.009-3.13,9.886l-0.854-0.854c-0.184-0.182-0.431-0.284-0.688-0.284c-0.259,0-0.506,0.103-0.688,0.284
			l-4.396,4.396c-0.184,0.183-0.286,0.43-0.286,0.688c0,0.258,0.103,0.506,0.286,0.688l4.396,4.396
			c0.19,0.19,0.438,0.284,0.688,0.284s0.498-0.094,0.688-0.284l4.395-4.396c0.38-0.38,0.38-0.996,0-1.377l-1.205-1.205
			c2.622-3.515,4.041-7.759,4.041-12.223C278.036,26.12,277.082,22.641,275.321,19.574z M243.486,20.255l-3.018-3.019l3.018-3.018
			l3.02,3.018L243.486,20.255z M270.117,46.884l-3.02-3.018l3.02-3.019l3.017,3.019L270.117,46.884z M268.324,15.944l3.018-3.019
			l3.02,3.019l-3.02,3.017L268.324,15.944z"/>
		<path fill="#0096FF" d="M257.397,3.88c0.127,0.127,0.294,0.19,0.458,0.19c0.167,0,0.333-0.063,0.46-0.19l1.386-1.386
			c0.123-0.122,0.191-0.286,0.191-0.459s-0.068-0.339-0.191-0.459l-1.386-1.387c-0.254-0.253-0.665-0.253-0.918,0l-1.388,1.387
			c-0.121,0.12-0.189,0.286-0.189,0.459s0.068,0.337,0.189,0.459L257.397,3.88z"/>
		<path fill="#0096FF" d="M287.35,29.224l-1.385-1.386c-0.256-0.254-0.666-0.253-0.919-0.001l-1.387,1.387
			c-0.123,0.121-0.19,0.287-0.19,0.46c0,0.172,0.067,0.337,0.19,0.458l1.387,1.387c0.122,0.123,0.287,0.19,0.459,0.19
			s0.337-0.067,0.46-0.19l1.385-1.387C287.604,29.889,287.604,29.478,287.35,29.224z"/>
	</g>
</g>
<g>
	<path fill="#0096FF" d="M355.808,5.383h-41.96c-0.865,0-1.567,0.702-1.567,1.567v36.277c0,0.865,0.702,1.565,1.567,1.565h41.96
		c0.865,0,1.566-0.7,1.566-1.565V6.95C357.374,6.085,356.675,5.383,355.808,5.383z M315.412,41.661V11.217h38.831v30.444H315.412z"
		/>
	<path fill="#0096FF" d="M350.724,15.366h-31.792c-0.519,0-0.939,0.42-0.939,0.94v3.453c0,0.518,0.42,0.939,0.939,0.939h31.792
		c0.519,0,0.938-0.421,0.938-0.939v-3.453C351.661,15.786,351.242,15.366,350.724,15.366z"/>
	<path fill="#0096FF" d="M332.557,23.275h-13.72c-0.519,0-0.94,0.42-0.94,0.939v12.634c0,0.521,0.421,0.94,0.94,0.94h13.721
		c0.52,0,0.939-0.42,0.939-0.94V24.215C333.496,23.695,333.077,23.275,332.557,23.275z M331.618,35.91h-11.841V25.154h11.841V35.91z
		"/>
	<path fill="#0096FF" d="M350.724,23.275h-13.722c-0.518,0-0.94,0.42-0.94,0.939v12.634c0,0.521,0.423,0.94,0.94,0.94h13.722
		c0.519,0,0.938-0.42,0.938-0.94V24.215C351.661,23.695,351.242,23.275,350.724,23.275z M349.782,35.91h-11.841V25.154h11.841V35.91
		z"/>
</g>
<g>
	<g>
		<path fill="#0096FF" d="M146.428,40.212h-13.22l-0.988,5.796c-0.047,0.273,0.03,0.554,0.208,0.765s0.441,0.333,0.718,0.333h13.344
			c0.004,0,0.008,0,0.012,0c0.519,0,0.94-0.421,0.94-0.939c0-0.107-0.018-0.211-0.052-0.308L146.428,40.212z"/>
		<path fill="#0096FF" d="M160.615,2.129h-41.117c-0.989,0-1.792,0.833-1.792,1.863v32.478c0,1.031,0.802,1.864,1.792,1.864h41.117
			c0.988,0,1.791-0.833,1.791-1.864V3.992C162.406,2.962,161.603,2.129,160.615,2.129z M159.7,32.64h-39.286V6.38
			c0-0.908,0.729-1.645,1.63-1.645h36.022c0.902,0,1.633,0.737,1.633,1.645V32.64z"/>
		<path fill="#0096FF" d="M136.573,16.057c-0.237,0.349-0.538,0.649-0.886,0.887l6.215,6.209c0.237-0.348,0.538-0.648,0.886-0.887
			L136.573,16.057z"/>
		<path fill="#0096FF" d="M152.627,15.667l-6.192,6.552c0.356,0.227,0.663,0.52,0.91,0.861l6.195-6.556
			C153.184,16.299,152.875,16.008,152.627,15.667z"/>
		<path fill="#0096FF" d="M127.192,18.826c0.315,0.279,0.574,0.614,0.765,0.993l3.75-3.08c-0.323-0.269-0.592-0.596-0.796-0.968
			L127.192,18.826z"/>
		<path fill="#0096FF" d="M133.821,12.121c-1.145,0-2.072,0.928-2.072,2.072c0,0.272,0.056,0.529,0.15,0.767
			c0.16,0.4,0.438,0.738,0.794,0.97c0.325,0.211,0.712,0.336,1.127,0.336c0.343,0,0.663-0.092,0.948-0.241
			c0.38-0.196,0.688-0.506,0.885-0.886c0.148-0.285,0.239-0.604,0.239-0.946C135.894,13.049,134.965,12.121,133.821,12.121z"/>
		<path fill="#0096FF" d="M145.55,23.157c-0.272-0.132-0.573-0.213-0.895-0.213c-0.344,0-0.664,0.093-0.949,0.241
			c-0.38,0.197-0.688,0.506-0.885,0.886c-0.148,0.285-0.239,0.603-0.239,0.946c0,1.144,0.927,2.072,2.073,2.072
			c1.143,0,2.071-0.928,2.071-2.072c0-0.365-0.103-0.701-0.267-0.998C146.251,23.644,145.936,23.343,145.55,23.157z"/>
		<path fill="#0096FF" d="M155.31,11.647c-1.144,0-2.072,0.927-2.072,2.073c0,0.37,0.104,0.712,0.274,1.011
			c0.21,0.372,0.527,0.672,0.916,0.856c0.268,0.127,0.565,0.205,0.883,0.205c1.144,0,2.071-0.929,2.071-2.072
			C157.381,12.574,156.453,11.647,155.31,11.647z"/>
		<path fill="#0096FF" d="M126.212,19.632c-0.342-0.248-0.758-0.399-1.212-0.399c-1.145,0-2.073,0.928-2.073,2.072
			c0,1.146,0.928,2.073,2.073,2.073c1.144,0,2.071-0.928,2.071-2.073c0-0.232-0.047-0.451-0.118-0.661
			C126.814,20.234,126.556,19.881,126.212,19.632z"/>
	</g>
</g>
<path fill-rule="evenodd" clip-rule="evenodd" fill="#0096FF" d="M40.774,24.558c-2.883-1.638-9.018-7.025-7.376-10.296
	c0.375-0.749,1.288-1.141,2.568-1.168c2.029-0.043,3.171,0.215,4.392-1.465c1.286-1.771,0.718-4.44-0.842-5.674
	c-1.918-1.516-2.995-1.289-4.695-0.624c-1.22,0.477-1.932,0.826-2.163,2.418c-0.234,1.591-0.027,4.801-2.673,4.497
	c-0.344-0.038-0.439-0.095-0.951-0.572l-8.122-7.564c-0.473-0.44-0.594-0.438-1.051,0.021l-6.335,6.333
	c-0.493,0.495-0.559,0.569-0.649,0.746c-0.455,0.881,0.034,1.717,0.467,2.288c0.336,0.443,0.625,0.87,1.036,1.036
	c0.652,0.262,1.61-0.14,2.438,0.02c1.812,0.351,2.844,2.451,3.053,4.328c0.329,2.925-2.768,4.967-5.535,4.009
	c-0.82-0.284-1.654-0.868-2.039-1.53c-1.13-1.942-0.744-6.798-3.434-5.979c-1.489,0.453-7.545,6.074-8.635,8
	c-0.346,0.61-0.323,0.726,0.231,1.152c3.742,2.889,7.659,5.726,8.272,9.558c0.204,1.275,0.008,2.488-1.38,2.907
	c-0.665,0.202-1.469,0.038-2.246,0.21c-2.802,0.623-3.816,3.899-2.505,5.896c1.146,1.745,2.803,2.585,4.837,2.292
	c0.652-0.094,1.463-0.589,1.739-1.06c0.71-1.214,0.729-3.679,1.524-5.088c0.955-1.693,3.274-2.286,4.558-1.555
	c0.675,0.382,3.97,4.507,5.895,6.812c0.448,0.537,0.565,0.56,1.182,0.225c2.097-1.141,6.592-5.143,6.63-7.967
	c0.023-1.607-1.907-1.64-4.009-3.117c-2.071-1.455-2.668-3.693-1.171-5.702c0.751-1.005,1.966-1.53,3.204-1.687
	c0.562-0.07,2.319,0.569,2.598,0.947c2.197,2.972,0.878,6.685,4.378,5.896c0.52-0.118,0.629-0.189,1.084-0.721l5.893-6.849
	C41.4,25,41.382,24.903,40.774,24.558z"/>
<g>
	<g>
		<path fill="#0096FF" d="M211.4,38.123c-0.173-0.62-0.736-1.05-1.381-1.05h-3.044v-5.176c-0.771,0.129-1.562,0.2-2.367,0.2
			s-1.597-0.071-2.368-0.2v5.176h-3.041c-0.645,0-1.21,0.43-1.382,1.05l-1.08,3.883c-0.119,0.432-0.031,0.895,0.239,1.251
			c0.272,0.357,0.694,0.567,1.143,0.567h12.979c0.004,0,0.007,0,0.012,0c0.792,0,1.434-0.643,1.434-1.435
			c0-0.197-0.039-0.386-0.11-0.556L211.4,38.123z"/>
		<path fill="#0096FF" d="M219.182,7.362c-0.397-0.105-0.801-0.156-1.201-0.156c-0.185,0-0.369,0.013-0.554,0.033V3.413
			c0-0.745-0.604-1.351-1.349-1.351h-22.938c-0.746,0-1.351,0.605-1.351,1.351v3.826c-0.184-0.021-0.368-0.033-0.553-0.033
			c-0.401,0-0.803,0.051-1.2,0.156c-3.147,0.839-4.824,4.806-3.746,8.86c0.944,3.544,3.681,5.982,6.457,5.982
			c0.14,0,0.281-0.014,0.422-0.027c0.104,0.223,0.212,0.44,0.326,0.654c0.021,0.04,0.043,0.08,0.063,0.118
			c0.168,0.31,0.347,0.611,0.536,0.902c0.021,0.032,0.042,0.066,0.064,0.099c0.198,0.3,0.404,0.592,0.622,0.875
			c0.006,0.008,0.013,0.015,0.019,0.022c0.458,0.59,0.963,1.137,1.505,1.637c0.011,0.01,0.019,0.02,0.027,0.027
			c0.269,0.246,0.547,0.479,0.831,0.7c0.014,0.011,0.027,0.02,0.04,0.03c1.179,0.905,2.505,1.602,3.932,2.036
			c0.005,0.003,0.009,0.004,0.014,0.005c0.358,0.107,0.72,0.201,1.089,0.276c0.001,0,0.001,0,0.002,0l0,0
			c0.381,0.078,0.769,0.138,1.16,0.177c0.009,0.002,0.019,0.002,0.026,0.003c0.39,0.039,0.785,0.062,1.182,0.062
			c0.398,0,0.79-0.022,1.179-0.062c0.01-0.001,0.02-0.001,0.03-0.003c0.391-0.039,0.775-0.099,1.155-0.177c0.002,0,0.003,0,0.003,0
			c0.002,0,0.002,0,0.004,0c0.367-0.075,0.729-0.168,1.086-0.275c0.005-0.002,0.01-0.003,0.017-0.005
			c1.426-0.436,2.751-1.131,3.931-2.036c0.013-0.01,0.025-0.021,0.039-0.03c0.287-0.221,0.564-0.455,0.831-0.7
			c0.01-0.009,0.019-0.017,0.027-0.026c0.544-0.5,1.049-1.049,1.508-1.64c0.007-0.007,0.012-0.014,0.017-0.021
			c0.218-0.283,0.426-0.576,0.624-0.876c0.021-0.032,0.043-0.064,0.064-0.097c0.188-0.293,0.368-0.595,0.536-0.904
			c0.021-0.038,0.041-0.076,0.062-0.115c0.114-0.215,0.224-0.434,0.327-0.657c0.142,0.014,0.283,0.027,0.423,0.027
			c2.775,0,5.514-2.438,6.456-5.982C224.006,12.168,222.328,8.201,219.182,7.362z M188.509,15.632
			c-0.738-2.779,0.231-5.549,2.119-6.052c0.198-0.053,0.403-0.079,0.61-0.079c0.184,0,0.368,0.024,0.552,0.062v6.37
			c0,0.388,0.02,0.773,0.05,1.154c0.003,0.051,0.005,0.103,0.01,0.153c0.03,0.361,0.077,0.719,0.133,1.072
			c0.011,0.064,0.021,0.125,0.031,0.188c0.062,0.352,0.134,0.697,0.22,1.037c0.012,0.053,0.026,0.105,0.041,0.158
			c0.015,0.06,0.029,0.116,0.046,0.175C190.695,19.606,189.105,17.875,188.509,15.632z M211.616,13.019l-3.809,2.858l1.385,4.522
			c0.054,0.175-0.01,0.366-0.158,0.475c-0.076,0.055-0.165,0.083-0.254,0.083c-0.085,0-0.172-0.025-0.243-0.077l-3.93-2.703
			l-3.928,2.703c-0.149,0.105-0.352,0.102-0.499-0.006c-0.147-0.108-0.21-0.3-0.155-0.475l1.382-4.522l-3.808-2.858
			c-0.146-0.11-0.209-0.304-0.151-0.479c0.056-0.174,0.217-0.293,0.401-0.297l4.781-0.097l1.572-4.469
			c0.059-0.172,0.222-0.287,0.404-0.287c0.184,0,0.347,0.115,0.406,0.287l1.571,4.469l4.78,0.097
			c0.185,0.004,0.347,0.123,0.402,0.297C211.823,12.715,211.764,12.908,211.616,13.019z M220.71,15.632
			c-0.598,2.243-2.186,3.975-3.812,4.239c0.017-0.058,0.032-0.115,0.047-0.175c0.015-0.053,0.028-0.104,0.042-0.158
			c0.085-0.34,0.157-0.686,0.217-1.037c0.012-0.062,0.021-0.123,0.031-0.188c0.058-0.354,0.103-0.711,0.135-1.072
			c0.005-0.051,0.008-0.102,0.011-0.151c0.029-0.383,0.047-0.769,0.047-1.156v-6.37c0.185-0.038,0.37-0.062,0.554-0.062
			c0.207,0,0.412,0.026,0.609,0.079C220.479,10.083,221.449,12.853,220.71,15.632z"/>
	</g>
</g>
<g>
	<g>
		<path fill="#0096FF" d="M83.67,37.314l-0.952,1.951c5.115,0.648,8.206,2.285,8.206,3.497c0,1.542-4.989,3.782-12.806,3.782
			s-12.803-2.24-12.803-3.782c0-1.433,4.308-3.462,11.184-3.744l1.615,3.265l11.104-22.429h-0.013
			c1.095-1.888,1.731-4.072,1.731-6.408c0-7.077-5.74-12.815-12.816-12.815c-7.077,0-12.817,5.738-12.817,12.815
			c0,2.336,0.637,4.521,1.726,6.408H67.02l8.486,17.154c-6.438,0.415-12.251,2.374-12.251,5.754c0,3.835,7.477,5.842,14.863,5.842
			s14.864-2.007,14.864-5.842C92.982,39.908,88.837,38.068,83.67,37.314z M72.735,11.868c0-2.974,2.41-5.386,5.383-5.386
			c2.977,0,5.386,2.412,5.386,5.386c0,2.972-2.409,5.382-5.386,5.382C75.146,17.25,72.735,14.84,72.735,11.868z"/>
	</g>
</g>
</svg>
