<?xml version="1.0" encoding="utf-8"?>
<!-- Generator: Adobe Illustrator 15.0.2, SVG Export Plug-In . SVG Version: 6.00 Build 0)  -->
<!DOCTYPE svg PUBLIC "-//W3C//DTD SVG 1.1//EN" "http://www.w3.org/Graphics/SVG/1.1/DTD/svg11.dtd" [
	<!ENTITY ns_extend "http://ns.adobe.com/Extensibility/1.0/">
	<!ENTITY ns_ai "http://ns.adobe.com/AdobeIllustrator/10.0/">
	<!ENTITY ns_graphs "http://ns.adobe.com/Graphs/1.0/">
	<!ENTITY ns_vars "http://ns.adobe.com/Variables/1.0/">
	<!ENTITY ns_imrep "http://ns.adobe.com/ImageReplacement/1.0/">
	<!ENTITY ns_sfw "http://ns.adobe.com/SaveForWeb/1.0/">
	<!ENTITY ns_custom "http://ns.adobe.com/GenericCustomNamespace/1.0/">
	<!ENTITY ns_adobe_xpath "http://ns.adobe.com/XPath/1.0/">
]>
<svg version="1.1" id="Layer_1" xmlns:x="&ns_extend;" xmlns:i="&ns_ai;" xmlns:graph="&ns_graphs;"
	 xmlns="http://www.w3.org/2000/svg" xmlns:xlink="http://www.w3.org/1999/xlink" x="0px" y="0px" width="97.333px"
	 height="95.667px" viewBox="0 0 97.333 95.667" enable-background="new 0 0 97.333 95.667" xml:space="preserve">
<metadata>
	<sfw  xmlns="&ns_sfw;">
		<slices></slices>
		<sliceSourceBounds  y="-554.342" x="602.708" width="93.789" height="93.844" bottomLeftOrigin="true"></sliceSourceBounds>
	</sfw>
</metadata>
<path id="direction" fill="#EAEAEA" d="M95.974,2.547c0.454-0.926,0.067-1.313-0.859-0.857L3.017,47.048
	C2.091,47.504,2.177,48,3.21,48h44.781c1.034,0,1.676,0.598,1.676,1.63v44.878c0,1.033,0.474,1.119,0.931,0.193L95.974,2.547z
	 M27.458,41c-1.033,0-1.12,0.188-0.192-0.269l55.37-26.916c0.926-0.455,1.087-0.091,0.357,0.64L56.799,40.163
	C56.067,40.893,54.626,41,53.592,41H27.458z"/>
</svg>
