<?xml version="1.0" encoding="utf-8"?>
<!-- Generator: Adobe Illustrator 16.0.0, SVG Export Plug-In . SVG Version: 6.00 Build 0)  -->
<!DOCTYPE svg PUBLIC "-//W3C//DTD SVG 1.1//EN" "http://www.w3.org/Graphics/SVG/1.1/DTD/svg11.dtd">
<svg version="1.1" id="_x31_0_1_" xmlns="http://www.w3.org/2000/svg" xmlns:xlink="http://www.w3.org/1999/xlink" x="0px" y="0px"
	 width="360px" height="357.999px" viewBox="1 4.001 360 357.999" enable-background="new 1 4.001 360 357.999"
	 xml:space="preserve">
<g id="bg">
	<g>
		<rect x="1" y="4.001" fill="#0078FF" width="360" height="357.999"/>
	</g>
</g>
<g>
	<g opacity="0.1">
		<g>
			<rect x="54.306" y="2.69" fill="#FFFFFF" width="27.817" height="358.31"/>
		</g>
		<g>
			<rect x="92.031" y="2.69" fill="#FFFFFF" width="27.82" height="358.31"/>
		</g>
		<g>
			<rect x="129.759" y="2.69" fill="#FFFFFF" width="27.817" height="358.31"/>
		</g>
		<g>
			<rect x="167.484" y="2.69" fill="#FFFFFF" width="27.818" height="358.31"/>
		</g>
		<g>
			<rect x="205.229" y="2.69" fill="#FFFFFF" width="27.818" height="358.31"/>
		</g>
		<g>
			<rect x="242.955" y="2.69" fill="#FFFFFF" width="27.818" height="358.31"/>
		</g>
		<g>
			<rect x="280.68" y="2.69" fill="#FFFFFF" width="27.821" height="358.31"/>
		</g>
	</g>
	<g>
		<rect x="54.289" y="32.742" fill="#57C8E8" width="254.23" height="27.882"/>
	</g>
	<g>
		<rect x="54.289" y="70.838" fill="#57C8E8" width="178.77" height="27.882"/>
	</g>
	<g>
		<rect x="242.967" y="70.838" fill="#57C8E8" width="65.553" height="27.882"/>
	</g>
	<g>
		<rect x="129.75" y="187.014" fill="#57C8E8" width="178.77" height="27.882"/>
	</g>
	<g>
		<rect x="54.289" y="187.014" fill="#57C8E8" width="65.553" height="27.882"/>
	</g>
	<g>
		<rect x="54.289" y="224.771" fill="#57C8E8" width="65.553" height="27.881"/>
	</g>
	<g>
		<rect x="129.803" y="224.771" fill="#57C8E8" width="65.553" height="27.881"/>
	</g>
	<g>
		<rect x="205.317" y="224.771" fill="#57C8E8" width="65.553" height="27.881"/>
	</g>
	<g>
		<rect x="280.831" y="224.771" fill="#57C8E8" width="27.688" height="27.881"/>
	</g>
	<g>
		<rect x="242.967" y="261.561" fill="#57C8E8" width="65.553" height="27.881"/>
	</g>
	<g>
		<rect x="167.453" y="261.561" fill="#57C8E8" width="65.553" height="27.881"/>
	</g>
	<g>
		<rect x="91.938" y="261.561" fill="#57C8E8" width="65.553" height="27.881"/>
	</g>
	<g>
		<rect x="54.289" y="261.561" fill="#57C8E8" width="27.688" height="27.881"/>
	</g>
	<g>
		<rect x="54.289" y="299.82" fill="#57C8E8" width="27.688" height="27.883"/>
	</g>
	<g>
		<rect x="92.046" y="299.82" fill="#57C8E8" width="27.688" height="27.883"/>
	</g>
	<g>
		<rect x="129.803" y="299.82" fill="#57C8E8" width="27.688" height="27.883"/>
	</g>
	<g>
		<rect x="167.561" y="299.82" fill="#57C8E8" width="27.688" height="27.883"/>
	</g>
	<g>
		<rect x="205.317" y="299.82" fill="#57C8E8" width="27.688" height="27.883"/>
	</g>
	<g>
		<rect x="243.074" y="299.82" fill="#57C8E8" width="27.688" height="27.883"/>
	</g>
	<g>
		<rect x="280.831" y="299.82" fill="#57C8E8" width="27.688" height="27.883"/>
	</g>
	<g>
		<rect x="54.289" y="109.564" fill="#57C8E8" width="141.021" height="27.881"/>
	</g>
	<g>
		<rect x="205.229" y="109.564" fill="#57C8E8" width="103.291" height="27.881"/>
	</g>
	<g>
		<rect x="167.498" y="148.289" fill="#57C8E8" width="141.021" height="27.881"/>
	</g>
	<g>
		<rect x="54.289" y="148.289" fill="#57C8E8" width="103.291" height="27.881"/>
	</g>
</g>
<path fill="#FFFFFF" d="M25.793,327.711v-7.718l-8.007,11.973l0.012-0.006c-1.042,1.539-1.65,3.396-1.65,5.396
	c0,5.326,4.319,9.646,9.645,9.646s9.645-4.319,9.645-9.646S31.119,327.711,25.793,327.711z M25.793,342.682v-4.776h-4.685
	l4.685-7.165v4.776h4.685L25.793,342.682z"/>
<g opacity="0.9" enable-background="new    ">
	<path fill="#FFFFFF" d="M167.611,180.293c4.056,0,6.978-2.922,6.978-8.59c0-5.67-3.098-8.765-7.152-8.765
		c-4.056,0-6.978,2.921-6.978,8.591C160.459,177.197,163.555,180.293,167.611,180.293z"/>
	<path fill="#FFFFFF" d="M208.669,214.922c0,5.932,2.528,8.461,6.41,8.461c3.662,0,5.713-2.924,5.713-2.924v-13.473
		c0,0-1.613-0.959-4.753-0.959C211.504,206.027,208.669,208.861,208.669,214.922z"/>
	<path fill="#FFFFFF" d="M183.5,96.623c-47.705,0-86.377,38.672-86.377,86.377c0,47.705,38.672,86.377,86.377,86.377
		s86.378-38.672,86.378-86.377C269.878,135.294,231.205,96.623,183.5,96.623z M213.007,151.775c1.396,0,2.354,0.958,2.354,2.354
		s-1.003,2.442-2.398,2.442s-2.398-0.96-2.398-2.355S211.611,151.775,213.007,151.775z M208.82,161.15
		c0.916-0.218,2.312-0.394,3.619-0.394c1.745,0,2.225,0.568,2.225,2.225v16.746l2.398,0.566c0.828,0.217,1.002,0.523,1.002,1.004
		c0,0.609-0.392,1.002-1.134,1.002h-7.979c-0.741,0-1.135-0.393-1.135-1.002c0-0.48,0.218-0.787,1.004-0.961l2.703-0.609v-16.223
		l-2.834-0.392c-0.784-0.131-1.003-0.392-1.003-0.916C207.687,161.672,207.905,161.368,208.82,161.15z M167.96,160.54
		c6.061,0,9.899,3.837,9.899,10.638c0,6.979-4.579,11.514-10.771,11.514c-6.062,0-9.899-3.838-9.899-10.641
		C157.188,165.075,161.768,160.54,167.96,160.54z M143.583,181.297c0-0.48,0.218-0.787,1.396-1.092l1.874-0.521l-1.962-18.403
		c-0.262-2.399-0.35-4.884-0.35-4.884h-0.086l-7.98,23.939c-0.566,1.744-1.221,2.139-2.268,2.139s-1.7-0.395-2.268-2.139
		l-7.98-23.939h-0.087c0,0-0.044,2.441-0.305,4.84l-2.007,18.447l1.876,0.521c1.177,0.305,1.396,0.611,1.396,1.092
		c0,0.609-0.393,1.002-1.135,1.002h-6.715c-0.741,0-1.134-0.393-1.134-1.002c0-0.48,0.218-0.787,1.177-1.092l1.745-0.521
		l2.833-24.16l-2.049-0.479c-0.959-0.219-1.264-0.654-1.264-1.266c0-0.48,0.348-0.828,1.046-0.828h5.188
		c0.96,0,1.484,0.348,1.744,1.177l6.848,20.583c0.828,2.529,1.265,4.186,1.265,4.186h0.087c0,0,0.48-1.744,1.309-4.186l6.846-20.583
		c0.262-0.829,0.785-1.177,1.744-1.177h5.233c0.698,0,1.046,0.348,1.046,0.828c0,0.611-0.306,1.047-1.264,1.266l-2.051,0.479
		l2.836,24.16l1.744,0.521c0.959,0.305,1.177,0.611,1.177,1.092c0,0.609-0.393,1.002-1.134,1.002h-7.238
		C143.975,182.299,143.583,181.906,143.583,181.297z M167.808,221.77c0,1.178-0.306,1.658-0.916,2.094
		c-1.221,0.871-3.837,1.961-8.415,1.961c-8.635,0-13.955-5.232-13.955-14.607c0-9.508,5.975-15.48,15.611-15.48
		c3.663,0,6.062,0.652,6.803,1.395c0.436,0.436,0.566,0.828,0.566,2.836v0.521c0,0.916,0,1.482-0.044,2.879
		c-0.042,0.785-0.436,1.09-1.002,1.09c-0.567,0-0.916-0.305-1.091-1.09l-1.047-4.273c0,0-1.438-0.916-4.971-0.916
		c-7.021,0-11.468,4.447-11.468,12.516c0,7.936,4.753,12.689,11.206,12.689c3.795,0,5.495-0.785,5.495-0.785v-8.982l-4.536-0.83
		c-0.959-0.174-1.221-0.566-1.221-1.176c0-0.523,0.35-0.873,1.047-0.873h6.541c0.959,0,1.396,0.436,1.396,1.396V221.77z
		 M186.515,207.379c-0.654,0-0.872-0.393-1.7-0.393c-1.396,0-2.922,0.828-4.229,2.791v13.082l2.921,0.611
		c0.786,0.174,1.004,0.479,1.004,0.957c0,0.613-0.394,1.004-1.134,1.004h-8.504c-0.741,0-1.135-0.391-1.135-1.004
		c0-0.479,0.219-0.783,1.004-0.957l2.703-0.611v-16.223l-2.834-0.391c-0.784-0.133-1.002-0.393-1.002-0.916s0.218-0.83,1.133-1.049
		c0.916-0.217,2.312-0.391,3.4-0.391c1.746,0,2.225,0.566,2.225,2.223v1.354l0.088,0.041c1.221-2.311,3.227-3.924,5.713-3.924
		c1.352,0,1.874,0.697,1.874,1.613C188.041,206.506,187.212,207.379,186.515,207.379z M200.034,225.432h-7.979
		c-0.742,0-1.135-0.391-1.135-1.004c0-0.479,0.219-0.783,1.004-0.957l2.704-0.611v-16.223l-2.835-0.391
		c-0.785-0.133-1.004-0.393-1.004-0.916s0.219-0.83,1.135-1.049c0.915-0.217,2.311-0.391,3.619-0.391
		c1.744,0,2.223,0.566,2.223,2.223v16.746l2.399,0.568c0.829,0.217,1.003,0.521,1.003,1
		C201.168,225.041,200.776,225.432,200.034,225.432z M193.668,197.35c0-1.396,1.047-2.443,2.441-2.443
		c1.396,0,2.354,0.961,2.354,2.355c0,1.396-1.003,2.443-2.398,2.443S193.668,198.744,193.668,197.35z M192.205,182.691
		c-2.791,0-5.102-0.523-6.323-1.221c-0.741-0.436-1.003-0.916-1.003-1.744v-26.295l-2.528-0.394
		c-0.786-0.129-1.004-0.392-1.004-0.915c0-0.522,0.218-0.827,1.135-1.046c0.915-0.218,2.267-0.393,3.313-0.393
		c1.744,0,2.224,0.566,2.224,2.225v8.154c0,1.045-0.131,2.005-0.218,2.791l0.087,0.043c0,0,1.875-3.357,6.802-3.357
		c5.277,0,8.723,3.488,8.723,10.378C203.412,178.244,198.964,182.691,192.205,182.691z M226.373,225.17
		c-0.784,0.219-2.093,0.436-3.184,0.436c-1.526,0-2.18-0.654-2.18-2.178v-0.916l-0.087-0.045c0,0-1.875,3.357-6.804,3.357
		c-5.275,0-8.721-3.488-8.721-10.334c0-7.369,4.447-11.818,11.207-11.818c2.704,0,4.187,0.48,4.187,0.48l0.087-0.088
		c-0.044-0.916-0.087-1.832-0.087-2.836v-4.664l-2.835-0.393c-0.785-0.131-1.003-0.393-1.003-0.916s0.218-0.828,1.134-1.047
		c0.916-0.217,2.311-0.393,3.619-0.393c1.744,0,2.225,0.568,2.225,2.225v26.906l2.441,0.262c0.829,0.086,1.091,0.348,1.091,0.871
		C227.464,224.646,227.158,224.951,226.373,225.17z M230.101,182.299h-7.675c-0.74,0-1.134-0.393-1.134-1.002
		c0-0.48,0.218-0.83,1.003-1.004l2.399-0.566v-26.295l-2.53-0.394c-0.785-0.129-1.003-0.392-1.003-0.915
		c0-0.522,0.218-0.827,1.134-1.046c0.916-0.218,2.268-0.393,3.314-0.393c1.744,0,2.225,0.566,2.225,2.225v26.818l2.397,0.566
		c0.785,0.174,1.003,0.523,1.003,1.004C231.234,181.906,230.843,182.299,230.101,182.299z M246.367,180.248
		c3.27,0,4.229-0.871,5.058-0.871c0.567,0,0.872,0.307,0.872,0.828c0,0.35-0.13,0.611-0.393,0.873
		c-0.697,0.697-3.097,1.613-6.454,1.613c-6.191,0-9.985-3.795-9.985-10.641c0-7.108,4.403-11.511,9.854-11.511
		c4.71,0,7.85,3.139,7.85,8.808c0,1.482-0.741,2.268-2.18,2.268h-12.297C238.735,177.283,241.657,180.248,246.367,180.248z"/>
	<path fill="#FFFFFF" d="M193.731,162.981c-3.664,0-5.713,2.921-5.713,2.921v13.475c0,0,1.613,0.959,4.753,0.959
		c4.535,0,7.37-2.834,7.37-8.896C200.142,165.512,197.611,162.981,193.731,162.981z"/>
	<path fill="#FFFFFF" d="M244.797,162.894c-3.271,0-5.495,2.702-5.975,6.67h11.207C249.942,165.118,247.675,162.894,244.797,162.894
		z"/>
</g>
</svg>
