<?xml version="1.0" encoding="utf-8"?>
<!-- Generator: Adobe Illustrator 16.0.0, SVG Export Plug-In . SVG Version: 6.00 Build 0)  -->
<!DOCTYPE svg PUBLIC "-//W3C//DTD SVG 1.1//EN" "http://www.w3.org/Graphics/SVG/1.1/DTD/svg11.dtd">
<svg version="1.1" id="_x31_2_1_" xmlns="http://www.w3.org/2000/svg" xmlns:xlink="http://www.w3.org/1999/xlink" x="0px" y="0px"
	 width="360px" height="357.999px" viewBox="1 1.001 360 357.999" enable-background="new 1 1.001 360 357.999"
	 xml:space="preserve">
<g id="bg">
	<g>
		<rect x="1" y="1.001" fill="#E8E8E8" width="360" height="357.999"/>
	</g>
</g>
<g id="dropdown_1_">
	<g id="bg_1_">
		<g>
			<path fill="#FFFFFF" d="M293.004,85.954H278.03l-8.521-9.938l-8.521,9.938H68.025c-1.104,0-2,0.896-2,1.999v184.059
				c0,1.104,0.896,2.002,2,2.002h224.979c1.104,0,2-0.896,2-2.002V87.953C295.004,86.85,294.109,85.954,293.004,85.954z"/>
		</g>
	</g>
	<g id="Buy_It_Now">
		<g>
			<path fill="#6D6D6D" d="M119.172,244.547h4.578c0.905,0,1.582,0.038,2.026,0.113c0.445,0.074,0.845,0.232,1.195,0.473
				c0.35,0.241,0.646,0.559,0.879,0.957c0.234,0.398,0.353,0.846,0.353,1.34c0,0.536-0.146,1.028-0.435,1.479
				c-0.289,0.447-0.681,0.783-1.176,1.008c0.698,0.203,1.234,0.55,1.609,1.039c0.375,0.488,0.562,1.064,0.562,1.729
				c0,0.521-0.121,1.025-0.363,1.52c-0.241,0.492-0.572,0.886-0.991,1.18c-0.42,0.294-0.937,0.477-1.552,0.543
				c-0.385,0.042-1.314,0.067-2.789,0.078h-3.897L119.172,244.547L119.172,244.547z M121.484,246.453v2.648H123
				c0.9,0,1.461-0.015,1.68-0.039c0.396-0.047,0.707-0.186,0.934-0.41c0.228-0.228,0.341-0.524,0.341-0.896
				c0-0.354-0.099-0.642-0.293-0.861c-0.195-0.223-0.486-0.355-0.871-0.402c-0.229-0.026-0.889-0.039-1.978-0.039H121.484z
				 M121.484,251.008v3.062h2.142c0.833,0,1.361-0.023,1.586-0.07c0.344-0.062,0.624-0.215,0.84-0.457
				c0.216-0.242,0.324-0.566,0.324-0.973c0-0.344-0.083-0.637-0.25-0.875c-0.167-0.239-0.408-0.414-0.724-0.523
				c-0.314-0.109-0.999-0.164-2.051-0.164H121.484z"/>
			<path fill="#6D6D6D" d="M136.164,256v-1.242c-0.303,0.442-0.699,0.792-1.191,1.047c-0.492,0.256-1.012,0.383-1.559,0.383
				c-0.558,0-1.058-0.121-1.5-0.367c-0.443-0.243-0.764-0.588-0.961-1.029c-0.198-0.441-0.298-1.057-0.298-1.836v-5.25h2.195v3.812
				c0,1.168,0.041,1.883,0.121,2.146c0.08,0.263,0.229,0.472,0.441,0.625s0.483,0.229,0.812,0.229c0.375,0,0.711-0.104,1.008-0.31
				s0.5-0.461,0.609-0.767c0.109-0.306,0.164-1.051,0.164-2.237v-3.5h2.195V256H136.164z"/>
			<path fill="#6D6D6D" d="M139.438,247.703h2.336l1.984,5.891l1.938-5.891h2.273l-2.93,7.984l-0.523,1.443
				c-0.192,0.484-0.376,0.854-0.551,1.109c-0.175,0.255-0.375,0.462-0.603,0.619c-0.227,0.16-0.505,0.283-0.836,0.371
				c-0.331,0.09-0.705,0.135-1.121,0.135c-0.422,0-0.836-0.045-1.241-0.135l-0.195-1.719c0.344,0.067,0.654,0.104,0.93,0.104
				c0.511,0,0.889-0.149,1.133-0.449c0.245-0.3,0.433-0.682,0.562-1.146L139.438,247.703z"/>
			<path fill="#6D6D6D" d="M153.766,256v-11.453h2.312V256H153.766z"/>
			<path fill="#6D6D6D" d="M162.07,247.703v1.75h-1.5v3.344c0,0.678,0.015,1.071,0.043,1.184c0.029,0.113,0.095,0.205,0.195,0.277
				c0.102,0.073,0.226,0.109,0.371,0.109c0.203,0,0.498-0.07,0.883-0.211l0.188,1.703c-0.51,0.219-1.088,0.328-1.734,0.328
				c-0.396,0-0.752-0.066-1.07-0.199c-0.317-0.133-0.551-0.305-0.698-0.516c-0.148-0.213-0.251-0.496-0.31-0.855
				c-0.047-0.256-0.069-0.771-0.069-1.547v-3.617h-1.009v-1.75h1.009v-1.648l2.202-1.281v2.932L162.07,247.703L162.07,247.703z"/>
			<path fill="#6D6D6D" d="M168.078,256v-11.453h2.25l4.688,7.648v-7.648h2.148V256h-2.32l-4.617-7.469V256H168.078z"/>
			<path fill="#6D6D6D" d="M179.086,251.734c0-0.729,0.18-1.437,0.539-2.117c0.358-0.682,0.869-1.203,1.526-1.562
				c0.658-0.359,1.396-0.539,2.208-0.539c1.255,0,2.283,0.407,3.086,1.225c0.803,0.814,1.203,1.845,1.203,3.09
				c0,1.255-0.404,2.296-1.215,3.121c-0.812,0.824-1.83,1.236-3.06,1.236c-0.763,0-1.486-0.172-2.176-0.516
				c-0.69-0.344-1.216-0.848-1.574-1.512S179.086,252.688,179.086,251.734z M181.336,251.852c0,0.823,0.194,1.453,0.586,1.893
				c0.391,0.438,0.872,0.654,1.445,0.654c0.57,0,1.053-0.219,1.439-0.654c0.389-0.438,0.582-1.073,0.582-1.906
				c0-0.812-0.193-1.438-0.582-1.875s-0.869-0.654-1.439-0.654c-0.573,0-1.057,0.219-1.445,0.654
				C181.531,250.398,181.336,251.027,181.336,251.852z"/>
			<path fill="#6D6D6D" d="M190.915,256l-2.625-8.297h2.133l1.556,5.438l1.431-5.438h2.116l1.384,5.438l1.586-5.438h2.164
				L197.993,256h-2.109l-1.43-5.336L193.047,256H190.915z"/>
		</g>
	</g>
	<g id="div">
		<g>
			<rect x="66.019" y="180.003" fill="#EDEDED" width="228.981" height="0.999"/>
		</g>
	</g>
	<g id="roll">
		<g>
			<rect x="66" y="180.003" fill="#0063D2" width="229" height="45.998"/>
		</g>
	</g>
	<g id="Price_High_to_Low">
		<g>
			<path fill="#FFFFFF" d="M123.609,209v-11.453h3.711c1.406,0,2.323,0.059,2.75,0.172c0.656,0.172,1.206,0.547,1.648,1.121
				c0.442,0.575,0.664,1.319,0.664,2.23c0,0.703-0.127,1.294-0.383,1.771c-0.256,0.479-0.58,0.855-0.974,1.131
				c-0.393,0.272-0.793,0.452-1.198,0.543c-0.553,0.107-1.353,0.162-2.398,0.162h-1.508V209H123.609z M125.922,199.484v3.25h1.266
				c0.912,0,1.521-0.062,1.828-0.18c0.307-0.121,0.548-0.31,0.723-0.562c0.176-0.254,0.262-0.553,0.262-0.891
				c0-0.416-0.123-0.762-0.367-1.031c-0.244-0.271-0.555-0.439-0.93-0.508c-0.276-0.053-0.831-0.078-1.664-0.078H125.922
				L125.922,199.484z"/>
			<path fill="#FFFFFF" d="M136.367,209h-2.195v-8.297h2.039v1.18c0.349-0.558,0.663-0.925,0.94-1.102
				c0.278-0.178,0.596-0.266,0.949-0.266c0.5,0,0.982,0.137,1.445,0.412l-0.68,1.914c-0.37-0.238-0.714-0.357-1.031-0.357
				c-0.308,0-0.568,0.084-0.781,0.254c-0.213,0.169-0.381,0.476-0.504,0.918c-0.123,0.441-0.184,1.369-0.184,2.781L136.367,209
				L136.367,209z"/>
			<path fill="#FFFFFF" d="M140.492,199.578v-2.031h2.194v2.031H140.492z M140.492,209v-8.297h2.194V209H140.492z"/>
			<path fill="#FFFFFF" d="M152.172,203.156l-2.164,0.391c-0.073-0.433-0.238-0.758-0.496-0.977
				c-0.258-0.219-0.592-0.328-1.004-0.328c-0.547,0-0.983,0.188-1.309,0.566c-0.326,0.377-0.488,1.008-0.488,1.895
				c0,0.984,0.166,1.68,0.496,2.086s0.774,0.609,1.332,0.609c0.417,0,0.758-0.118,1.022-0.355c0.266-0.236,0.453-0.645,0.562-1.223
				l2.155,0.367c-0.224,0.987-0.653,1.735-1.288,2.242c-0.636,0.504-1.487,0.758-2.556,0.758c-1.213,0-2.181-0.383-2.901-1.148
				c-0.722-0.766-1.082-1.825-1.082-3.18c0-1.37,0.361-2.438,1.086-3.199c0.724-0.762,1.703-1.145,2.938-1.145
				c1.01,0,1.814,0.217,2.41,0.65C151.481,201.6,151.912,202.266,152.172,203.156z"/>
			<path fill="#FFFFFF" d="M158.641,206.359l2.188,0.367c-0.281,0.801-0.726,1.412-1.332,1.832
				c-0.607,0.418-1.366,0.629-2.277,0.629c-1.443,0-2.51-0.474-3.203-1.414c-0.547-0.756-0.82-1.709-0.82-2.859
				c0-1.375,0.359-2.452,1.078-3.23c0.72-0.776,1.627-1.168,2.728-1.168c1.233,0,2.208,0.407,2.922,1.225
				c0.714,0.814,1.055,2.062,1.022,3.744h-5.5c0.017,0.651,0.193,1.158,0.531,1.521s0.76,0.543,1.267,0.543
				c0.344,0,0.633-0.094,0.866-0.279C158.345,207.08,158.521,206.775,158.641,206.359z M158.766,204.141
				c-0.016-0.636-0.18-1.117-0.492-1.449c-0.312-0.33-0.692-0.496-1.141-0.496c-0.479,0-0.875,0.177-1.188,0.523
				c-0.312,0.348-0.466,0.823-0.461,1.422H158.766z"/>
			<path fill="#FFFFFF" d="M167.203,209v-11.453h2.312v4.508h4.531v-4.508h2.312V209h-2.312v-5.008h-4.531V209H167.203z"/>
			<path fill="#FFFFFF" d="M178.734,199.578v-2.031h2.195v2.031H178.734z M178.734,209v-8.297h2.195V209H178.734z"/>
			<path fill="#FFFFFF" d="M182.977,209.547l2.508,0.305c0.041,0.293,0.14,0.492,0.289,0.604c0.209,0.154,0.537,0.232,0.984,0.232
				c0.572,0,1.002-0.086,1.289-0.258c0.191-0.113,0.338-0.3,0.438-0.555c0.067-0.184,0.104-0.52,0.104-1.008v-1.211
				c-0.656,0.896-1.484,1.344-2.484,1.344c-1.114,0-1.998-0.473-2.646-1.414c-0.512-0.745-0.768-1.672-0.768-2.781
				c0-1.391,0.334-2.453,1.004-3.188s1.502-1.102,2.496-1.102c1.025,0,1.873,0.448,2.539,1.352v-1.164h2.057v7.445
				c0,0.979-0.081,1.711-0.242,2.193c-0.162,0.484-0.391,0.864-0.682,1.143c-0.291,0.274-0.682,0.492-1.168,0.646
				c-0.485,0.156-1.104,0.234-1.848,0.234c-1.406,0-2.404-0.241-2.992-0.725c-0.588-0.479-0.883-1.093-0.883-1.832
				C182.969,209.739,182.971,209.65,182.977,209.547z M184.938,204.68c0,0.881,0.17,1.524,0.514,1.936
				c0.341,0.408,0.762,0.611,1.262,0.611c0.536,0,0.989-0.209,1.357-0.629c0.369-0.418,0.557-1.039,0.557-1.863
				c0-0.857-0.179-1.495-0.531-1.914c-0.354-0.416-0.803-0.625-1.344-0.625c-0.525,0-0.96,0.205-1.301,0.613
				C185.107,203.218,184.938,203.841,184.938,204.68z"/>
			<path fill="#FFFFFF" d="M195.141,197.547v4.211c0.709-0.828,1.555-1.242,2.539-1.242c0.506,0,0.961,0.094,1.367,0.281
				s0.712,0.428,0.918,0.719c0.205,0.293,0.346,0.614,0.422,0.969c0.075,0.354,0.113,0.904,0.113,1.648V209h-2.195v-4.383
				c0-0.87-0.041-1.422-0.125-1.656s-0.229-0.421-0.44-0.559c-0.212-0.139-0.476-0.207-0.793-0.207
				c-0.364,0-0.689,0.089-0.978,0.266c-0.287,0.178-0.496,0.444-0.629,0.801c-0.133,0.357-0.199,0.885-0.199,1.582V209h-2.195
				v-11.453H195.141z"/>
			<path fill="#FFFFFF" d="M210.977,200.703v1.75h-1.5v3.344c0,0.678,0.016,1.071,0.043,1.184c0.028,0.113,0.095,0.205,0.195,0.277
				c0.102,0.073,0.225,0.109,0.371,0.109c0.203,0,0.497-0.07,0.883-0.211l0.188,1.703c-0.513,0.219-1.091,0.328-1.734,0.328
				c-0.396,0-0.753-0.066-1.069-0.199c-0.317-0.133-0.552-0.305-0.699-0.516c-0.147-0.213-0.252-0.496-0.31-0.855
				c-0.047-0.256-0.069-0.771-0.069-1.547v-3.617h-1.008v-1.75h1.008v-1.648l2.203-1.281v2.932L210.977,200.703L210.977,200.703z"/>
			<path fill="#FFFFFF" d="M211.993,204.734c0-0.729,0.18-1.437,0.539-2.117c0.358-0.682,0.866-1.203,1.526-1.562
				c0.657-0.359,1.396-0.539,2.207-0.539c1.254,0,2.282,0.407,3.086,1.225c0.801,0.814,1.203,1.845,1.203,3.09
				c0,1.255-0.406,2.296-1.216,3.121c-0.812,0.824-1.83,1.236-3.06,1.236c-0.762,0-1.485-0.172-2.176-0.516
				c-0.689-0.344-1.215-0.848-1.574-1.512C212.172,206.496,211.993,205.688,211.993,204.734z M214.243,204.852
				c0,0.823,0.194,1.453,0.586,1.893c0.391,0.438,0.872,0.654,1.444,0.654c0.571,0,1.054-0.219,1.44-0.654
				c0.388-0.438,0.582-1.073,0.582-1.906c0-0.812-0.194-1.438-0.582-1.875c-0.389-0.438-0.869-0.654-1.44-0.654
				c-0.572,0-1.056,0.219-1.444,0.654C214.439,203.398,214.243,204.027,214.243,204.852z"/>
			<path fill="#FFFFFF" d="M226.797,209v-11.359h2.312v9.432h5.75V209H226.797z"/>
			<path fill="#FFFFFF" d="M235.984,204.734c0-0.729,0.182-1.437,0.539-2.117c0.359-0.682,0.869-1.203,1.527-1.562
				s1.395-0.539,2.207-0.539c1.256,0,2.283,0.407,3.086,1.225c0.803,0.814,1.203,1.845,1.203,3.09c0,1.255-0.404,2.296-1.215,3.121
				c-0.812,0.824-1.83,1.236-3.061,1.236c-0.761,0-1.484-0.172-2.176-0.516c-0.688-0.344-1.215-0.848-1.574-1.512
				C236.164,206.496,235.984,205.688,235.984,204.734z M238.234,204.852c0,0.823,0.195,1.453,0.586,1.893
				c0.393,0.438,0.873,0.654,1.445,0.654s1.053-0.219,1.441-0.654c0.388-0.438,0.582-1.073,0.582-1.906
				c0-0.812-0.194-1.438-0.582-1.875c-0.391-0.438-0.869-0.654-1.441-0.654s-1.055,0.219-1.445,0.654
				C238.432,203.398,238.234,204.027,238.234,204.852z"/>
			<path fill="#FFFFFF" d="M247.812,209l-2.625-8.297h2.133l1.557,5.438l1.43-5.438h2.117l1.383,5.438l1.586-5.438h2.164
				L254.891,209h-2.107l-1.432-5.336L249.945,209H247.812z"/>
		</g>
	</g>
	<g id="Price_Low_to_High">
		<g>
			<path fill="#6D6D6D" d="M123.609,163v-11.453h3.711c1.406,0,2.323,0.057,2.75,0.172c0.656,0.172,1.206,0.545,1.648,1.121
				c0.442,0.576,0.664,1.319,0.664,2.23c0,0.703-0.127,1.294-0.383,1.773c-0.256,0.479-0.58,0.855-0.974,1.129
				c-0.393,0.274-0.793,0.455-1.198,0.543c-0.553,0.109-1.353,0.164-2.398,0.164h-1.508V163H123.609z M125.922,153.484v3.25h1.266
				c0.912,0,1.521-0.06,1.828-0.18c0.307-0.12,0.548-0.307,0.723-0.562c0.176-0.255,0.262-0.552,0.262-0.89
				c0-0.417-0.123-0.76-0.367-1.031c-0.244-0.271-0.555-0.44-0.93-0.508c-0.276-0.052-0.831-0.078-1.664-0.078L125.922,153.484
				L125.922,153.484z"/>
			<path fill="#6D6D6D" d="M136.367,163h-2.195v-8.297h2.039v1.18c0.349-0.557,0.663-0.924,0.94-1.102
				c0.278-0.178,0.596-0.266,0.949-0.266c0.5,0,0.982,0.138,1.445,0.414l-0.68,1.914c-0.37-0.24-0.714-0.359-1.031-0.359
				c-0.308,0-0.568,0.084-0.781,0.254c-0.213,0.17-0.381,0.475-0.504,0.918c-0.123,0.443-0.184,1.37-0.184,2.781L136.367,163
				L136.367,163z"/>
			<path fill="#6D6D6D" d="M140.492,153.578v-2.031h2.194v2.031H140.492z M140.492,163v-8.297h2.194V163H140.492z"/>
			<path fill="#6D6D6D" d="M152.172,157.156l-2.164,0.391c-0.073-0.432-0.238-0.758-0.496-0.977
				c-0.258-0.219-0.592-0.328-1.004-0.328c-0.547,0-0.983,0.189-1.309,0.566c-0.326,0.377-0.488,1.009-0.488,1.895
				c0,0.984,0.166,1.68,0.496,2.086c0.33,0.406,0.774,0.609,1.332,0.609c0.417,0,0.758-0.119,1.022-0.355
				c0.266-0.236,0.453-0.645,0.562-1.223l2.155,0.367c-0.224,0.99-0.653,1.737-1.288,2.242c-0.636,0.505-1.487,0.758-2.556,0.758
				c-1.213,0-2.181-0.383-2.901-1.148c-0.722-0.765-1.082-1.826-1.082-3.18c0-1.37,0.361-2.436,1.086-3.199
				c0.724-0.763,1.703-1.145,2.938-1.145c1.01,0,1.814,0.217,2.41,0.652C151.481,155.602,151.912,156.266,152.172,157.156z"/>
			<path fill="#6D6D6D" d="M158.641,160.359l2.188,0.367c-0.281,0.802-0.726,1.413-1.332,1.832
				c-0.607,0.419-1.366,0.629-2.277,0.629c-1.443,0-2.51-0.471-3.203-1.414c-0.547-0.755-0.82-1.708-0.82-2.859
				c0-1.375,0.359-2.452,1.078-3.23c0.72-0.778,1.627-1.168,2.728-1.168c1.233,0,2.208,0.408,2.922,1.223
				c0.714,0.815,1.055,2.062,1.022,3.746h-5.5c0.017,0.651,0.193,1.158,0.531,1.52c0.338,0.362,0.76,0.543,1.267,0.543
				c0.344,0,0.633-0.094,0.866-0.281C158.345,161.08,158.521,160.776,158.641,160.359z M158.766,158.141
				c-0.016-0.635-0.18-1.119-0.492-1.449s-0.692-0.496-1.141-0.496c-0.479,0-0.875,0.174-1.188,0.523
				c-0.312,0.349-0.466,0.823-0.461,1.422H158.766z"/>
			<path fill="#6D6D6D" d="M167.258,163v-11.359h2.312v9.43h5.75V163H167.258z"/>
			<path fill="#6D6D6D" d="M176.445,158.734c0-0.729,0.181-1.435,0.539-2.117c0.359-0.682,0.869-1.203,1.527-1.562
				c0.658-0.359,1.396-0.539,2.207-0.539c1.255,0,2.284,0.408,3.087,1.223c0.801,0.815,1.202,1.845,1.202,3.09
				c0,1.255-0.405,2.295-1.215,3.121c-0.812,0.826-1.83,1.238-3.06,1.238c-0.76,0-1.485-0.172-2.176-0.516
				c-0.689-0.344-1.215-0.848-1.574-1.512C176.624,160.496,176.445,159.688,176.445,158.734z M178.695,158.852
				c0,0.823,0.195,1.453,0.586,1.891c0.392,0.438,0.873,0.656,1.445,0.656c0.572,0,1.053-0.219,1.442-0.656
				c0.389-0.438,0.582-1.073,0.582-1.906c0-0.812-0.193-1.438-0.582-1.875c-0.39-0.438-0.869-0.656-1.442-0.656
				c-0.573,0-1.055,0.219-1.445,0.656C178.891,157.399,178.695,158.029,178.695,158.852z"/>
			<path fill="#6D6D6D" d="M188.273,163l-2.625-8.297h2.135l1.555,5.438l1.43-5.438h2.117l1.383,5.438l1.586-5.438h2.164
				L195.352,163h-2.107l-1.432-5.336L190.407,163H188.273z"/>
			<path fill="#6D6D6D" d="M207.422,154.703v1.75h-1.5v3.344c0,0.677,0.014,1.072,0.043,1.184c0.028,0.112,0.094,0.205,0.195,0.277
				c0.101,0.072,0.225,0.109,0.37,0.109c0.202,0,0.497-0.07,0.884-0.211l0.188,1.703c-0.511,0.219-1.088,0.328-1.732,0.328
				c-0.396,0-0.753-0.066-1.07-0.199c-0.318-0.133-0.551-0.305-0.699-0.516c-0.146-0.211-0.252-0.496-0.309-0.855
				c-0.047-0.255-0.07-0.771-0.07-1.547v-3.617h-1.008v-1.75h1.008v-1.648l2.203-1.281v2.93L207.422,154.703L207.422,154.703z"/>
			<path fill="#6D6D6D" d="M208.438,158.734c0-0.729,0.182-1.435,0.539-2.117c0.359-0.682,0.868-1.203,1.527-1.562
				c0.658-0.359,1.395-0.539,2.207-0.539c1.255,0,2.283,0.408,3.086,1.223c0.803,0.815,1.203,1.845,1.203,3.09
				c0,1.255-0.405,2.295-1.215,3.121c-0.812,0.826-1.83,1.238-3.061,1.238c-0.761,0-1.484-0.172-2.176-0.516
				c-0.689-0.344-1.215-0.848-1.574-1.512C208.617,160.496,208.438,159.688,208.438,158.734z M210.688,158.852
				c0,0.823,0.195,1.453,0.586,1.891c0.393,0.438,0.873,0.656,1.445,0.656s1.053-0.219,1.441-0.656
				c0.388-0.438,0.582-1.073,0.582-1.906c0-0.812-0.194-1.438-0.582-1.875c-0.391-0.438-0.869-0.656-1.441-0.656
				s-1.055,0.219-1.445,0.656C210.884,157.399,210.688,158.029,210.688,158.852z"/>
			<path fill="#6D6D6D" d="M223.188,163v-11.453h2.312v4.508h4.53v-4.508h2.312V163h-2.312v-5.008h-4.53V163H223.188z"/>
			<path fill="#6D6D6D" d="M234.719,153.578v-2.031h2.195v2.031H234.719z M234.719,163v-8.297h2.195V163H234.719z"/>
			<path fill="#6D6D6D" d="M238.961,163.547l2.508,0.305c0.041,0.292,0.139,0.492,0.289,0.602c0.208,0.156,0.536,0.234,0.984,0.234
				c0.57,0,1.002-0.086,1.287-0.258c0.193-0.115,0.34-0.299,0.438-0.555c0.067-0.182,0.103-0.518,0.103-1.008v-1.211
				c-0.655,0.896-1.483,1.344-2.483,1.344c-1.114,0-1.998-0.471-2.647-1.414c-0.512-0.745-0.767-1.672-0.767-2.781
				c0-1.391,0.334-2.453,1.004-3.188c0.669-0.734,1.501-1.102,2.496-1.102c1.024,0,1.872,0.451,2.539,1.352v-1.164h2.056v7.445
				c0,0.979-0.082,1.711-0.242,2.195c-0.162,0.484-0.39,0.865-0.681,1.141c-0.292,0.276-0.682,0.492-1.168,0.648
				c-0.487,0.156-1.104,0.234-1.848,0.234c-1.406,0-2.404-0.241-2.992-0.723c-0.589-0.482-0.883-1.092-0.883-1.832
				C238.954,163.74,238.956,163.651,238.961,163.547z M240.922,158.68c0,0.88,0.17,1.525,0.512,1.934
				c0.342,0.409,0.762,0.613,1.262,0.613c0.537,0,0.99-0.209,1.359-0.629c0.369-0.419,0.555-1.041,0.555-1.863
				c0-0.859-0.178-1.498-0.529-1.914c-0.354-0.417-0.805-0.625-1.346-0.625c-0.524,0-0.959,0.205-1.301,0.613
				C241.092,157.217,240.922,157.841,240.922,158.68z"/>
			<path fill="#6D6D6D" d="M251.125,151.547v4.211c0.708-0.828,1.555-1.242,2.539-1.242c0.505,0,0.961,0.094,1.366,0.281
				s0.713,0.427,0.919,0.719c0.203,0.292,0.346,0.615,0.422,0.969c0.074,0.354,0.111,0.904,0.111,1.648V163h-2.193v-4.383
				c0-0.87-0.042-1.422-0.125-1.656c-0.084-0.234-0.23-0.42-0.441-0.559c-0.211-0.139-0.476-0.207-0.793-0.207
				c-0.365,0-0.688,0.088-0.977,0.266c-0.287,0.177-0.496,0.444-0.629,0.801c-0.135,0.357-0.199,0.884-0.199,1.582V163h-2.195
				v-11.453H251.125z"/>
		</g>
	</g>
	<g id="div_1_">
		<g>
			<rect x="66.019" y="134" fill="#EDEDED" width="228.981" height="1.002"/>
		</g>
	</g>
	<g id="Nearest_to_You">
		<g>
			<path fill="#6D6D6D" d="M119.188,117v-11.453h2.25l4.688,7.648v-7.648h2.147V117h-2.319l-4.617-7.469V117H119.188z"/>
			<path fill="#6D6D6D" d="M135.508,114.359l2.188,0.367c-0.28,0.802-0.725,1.413-1.332,1.832c-0.606,0.419-1.365,0.629-2.276,0.629
				c-1.443,0-2.51-0.471-3.203-1.414c-0.547-0.755-0.82-1.708-0.82-2.859c0-1.375,0.359-2.452,1.078-3.23
				c0.719-0.778,1.627-1.168,2.728-1.168c1.233,0,2.208,0.408,2.922,1.223c0.714,0.814,1.055,2.062,1.022,3.746h-5.5
				c0.017,0.651,0.193,1.158,0.531,1.52c0.338,0.362,0.76,0.543,1.266,0.543c0.345,0,0.634-0.094,0.867-0.281
				S135.388,114.776,135.508,114.359z M135.633,112.141c-0.016-0.635-0.18-1.119-0.492-1.449c-0.312-0.33-0.693-0.496-1.141-0.496
				c-0.479,0-0.875,0.174-1.188,0.522c-0.312,0.349-0.466,0.823-0.461,1.422H135.633z"/>
			<path fill="#6D6D6D" d="M141.242,111.234l-1.992-0.359c0.224-0.802,0.608-1.396,1.155-1.781c0.548-0.385,1.359-0.578,2.438-0.578
				c0.979,0,1.708,0.116,2.188,0.348c0.479,0.231,0.815,0.526,1.012,0.883c0.197,0.357,0.293,1.012,0.293,1.965l-0.023,2.562
				c0,0.729,0.035,1.267,0.105,1.613c0.069,0.346,0.202,0.717,0.395,1.113h-2.172c-0.057-0.146-0.127-0.362-0.211-0.648
				c-0.037-0.13-0.062-0.216-0.078-0.258c-0.375,0.365-0.775,0.638-1.203,0.82c-0.427,0.182-0.883,0.273-1.366,0.273
				c-0.854,0-1.527-0.232-2.021-0.695c-0.493-0.463-0.738-1.049-0.738-1.758c0-0.469,0.112-0.887,0.336-1.254
				c0.225-0.367,0.538-0.648,0.941-0.844c0.403-0.196,0.986-0.366,1.746-0.512c1.026-0.193,1.737-0.373,2.133-0.539v-0.219
				c0-0.422-0.104-0.723-0.312-0.902c-0.208-0.179-0.603-0.27-1.181-0.27c-0.391,0-0.694,0.077-0.914,0.23
				C141.556,110.577,141.377,110.849,141.242,111.234z M144.18,113.016c-0.281,0.094-0.727,0.206-1.336,0.336
				c-0.609,0.13-1.008,0.258-1.195,0.383c-0.287,0.203-0.43,0.461-0.43,0.773c0,0.307,0.115,0.573,0.344,0.797
				s0.521,0.336,0.875,0.336c0.396,0,0.773-0.13,1.133-0.391c0.267-0.198,0.44-0.44,0.523-0.727c0.057-0.188,0.086-0.544,0.086-1.07
				V113.016L144.18,113.016z"/>
			<path fill="#6D6D6D" d="M150.602,117h-2.194v-8.297h2.038v1.18c0.35-0.557,0.663-0.924,0.941-1.102
				c0.278-0.178,0.595-0.266,0.949-0.266c0.5,0,0.981,0.138,1.444,0.414l-0.68,1.914c-0.37-0.24-0.713-0.359-1.031-0.359
				c-0.307,0-0.567,0.084-0.78,0.254c-0.213,0.17-0.381,0.475-0.504,0.918c-0.123,0.443-0.185,1.37-0.185,2.781L150.602,117
				L150.602,117z"/>
			<path fill="#6D6D6D" d="M159.531,114.359l2.188,0.367c-0.281,0.802-0.725,1.413-1.332,1.832s-1.366,0.629-2.277,0.629
				c-1.442,0-2.51-0.471-3.202-1.414c-0.548-0.755-0.82-1.708-0.82-2.859c0-1.375,0.358-2.452,1.078-3.23
				c0.719-0.778,1.627-1.168,2.727-1.168c1.234,0,2.208,0.408,2.922,1.223c0.714,0.814,1.056,2.062,1.023,3.746h-5.5
				c0.016,0.651,0.192,1.158,0.531,1.52c0.338,0.362,0.76,0.543,1.266,0.543c0.344,0,0.633-0.094,0.867-0.281
				C159.235,115.08,159.412,114.776,159.531,114.359z M159.656,112.141c-0.016-0.635-0.18-1.119-0.491-1.449
				c-0.312-0.33-0.693-0.496-1.142-0.496c-0.479,0-0.875,0.174-1.188,0.522c-0.313,0.349-0.466,0.823-0.461,1.422H159.656z"/>
			<path fill="#6D6D6D" d="M162.852,114.633l2.203-0.336c0.094,0.427,0.284,0.751,0.57,0.973s0.688,0.332,1.203,0.332
				c0.567,0,0.995-0.104,1.28-0.312c0.193-0.146,0.289-0.341,0.289-0.586c0-0.167-0.052-0.305-0.155-0.414
				c-0.109-0.104-0.354-0.201-0.734-0.289c-1.771-0.391-2.893-0.748-3.367-1.07c-0.656-0.448-0.983-1.07-0.983-1.867
				c0-0.719,0.283-1.323,0.852-1.812c0.568-0.489,1.448-0.734,2.641-0.734c1.136,0,1.979,0.185,2.531,0.555
				c0.552,0.37,0.933,0.917,1.142,1.641l-2.07,0.383c-0.088-0.323-0.256-0.57-0.504-0.742s-0.601-0.258-1.06-0.258
				c-0.578,0-0.991,0.081-1.241,0.242c-0.168,0.115-0.25,0.263-0.25,0.445c0,0.156,0.072,0.289,0.219,0.398
				c0.198,0.146,0.881,0.352,2.051,0.617c1.17,0.265,1.986,0.591,2.449,0.977c0.458,0.391,0.688,0.935,0.688,1.633
				c0,0.76-0.317,1.414-0.953,1.961c-0.635,0.547-1.575,0.82-2.819,0.82c-1.13,0-2.025-0.229-2.685-0.688
				C163.489,116.043,163.055,115.419,162.852,114.633z"/>
			<path fill="#6D6D6D" d="M176.328,108.703v1.75h-1.5v3.344c0,0.677,0.014,1.072,0.043,1.184c0.028,0.112,0.094,0.205,0.194,0.277
				c0.102,0.072,0.226,0.109,0.371,0.109c0.203,0,0.498-0.07,0.883-0.211l0.188,1.703c-0.51,0.219-1.088,0.328-1.734,0.328
				c-0.396,0-0.752-0.066-1.069-0.199c-0.318-0.133-0.552-0.305-0.699-0.516c-0.148-0.211-0.251-0.496-0.31-0.855
				c-0.047-0.255-0.069-0.771-0.069-1.547v-3.617h-1.008v-1.75h1.008v-1.648l2.203-1.281v2.93L176.328,108.703L176.328,108.703z"/>
			<path fill="#6D6D6D" d="M186.102,108.703v1.75h-1.5v3.344c0,0.677,0.016,1.072,0.043,1.184c0.028,0.112,0.095,0.205,0.195,0.277
				c0.102,0.072,0.225,0.109,0.371,0.109c0.203,0,0.497-0.07,0.883-0.211l0.188,1.703c-0.513,0.219-1.091,0.328-1.734,0.328
				c-0.396,0-0.753-0.066-1.069-0.199c-0.317-0.133-0.552-0.305-0.699-0.516c-0.147-0.211-0.252-0.496-0.31-0.855
				c-0.047-0.255-0.069-0.771-0.069-1.547v-3.617h-1.008v-1.75h1.008v-1.648l2.203-1.281v2.93L186.102,108.703L186.102,108.703z"/>
			<path fill="#6D6D6D" d="M187.118,112.734c0-0.729,0.18-1.435,0.539-2.117c0.358-0.682,0.866-1.203,1.526-1.562
				c0.657-0.359,1.396-0.539,2.207-0.539c1.254,0,2.282,0.408,3.086,1.223c0.801,0.814,1.203,1.845,1.203,3.09
				c0,1.255-0.406,2.295-1.216,3.121c-0.812,0.826-1.83,1.238-3.06,1.238c-0.762,0-1.485-0.172-2.176-0.516
				c-0.689-0.344-1.215-0.848-1.574-1.512C187.297,114.496,187.118,113.688,187.118,112.734z M189.368,112.852
				c0,0.823,0.194,1.453,0.586,1.891c0.391,0.438,0.872,0.656,1.444,0.656c0.571,0,1.054-0.219,1.44-0.656
				c0.388-0.438,0.582-1.073,0.582-1.906c0-0.812-0.194-1.438-0.582-1.875c-0.389-0.438-0.869-0.656-1.44-0.656
				c-0.572,0-1.056,0.219-1.444,0.656C189.564,111.399,189.368,112.029,189.368,112.852z"/>
			<path fill="#6D6D6D" d="M204.868,117v-4.82l-4.195-6.633h2.711l2.695,4.531l2.641-4.531h2.664l-4.211,6.648V117H204.868z"/>
			<path fill="#6D6D6D" d="M212.008,112.734c0-0.729,0.18-1.435,0.539-2.117c0.358-0.682,0.868-1.203,1.527-1.562
				c0.656-0.359,1.395-0.539,2.205-0.539c1.257,0,2.283,0.408,3.088,1.223c0.802,0.814,1.201,1.845,1.201,3.09
				c0,1.255-0.403,2.295-1.215,3.121c-0.811,0.826-1.83,1.238-3.059,1.238c-0.761,0-1.486-0.172-2.176-0.516
				c-0.69-0.344-1.217-0.848-1.574-1.512S212.008,113.688,212.008,112.734z M214.258,112.852c0,0.823,0.195,1.453,0.586,1.891
				s0.872,0.656,1.445,0.656c0.57,0,1.053-0.219,1.439-0.656c0.39-0.438,0.582-1.073,0.582-1.906c0-0.812-0.192-1.438-0.582-1.875
				c-0.389-0.438-0.869-0.656-1.439-0.656c-0.573,0-1.057,0.219-1.445,0.656S214.258,112.029,214.258,112.852z"/>
			<path fill="#6D6D6D" d="M227.75,117v-1.242c-0.305,0.443-0.699,0.792-1.191,1.047c-0.492,0.255-1.012,0.383-1.559,0.383
				c-0.559,0-1.059-0.123-1.5-0.367c-0.443-0.245-0.766-0.588-0.961-1.031c-0.198-0.443-0.297-1.055-0.297-1.836v-5.25h2.193v3.812
				c0,1.167,0.041,1.881,0.121,2.145c0.08,0.263,0.229,0.471,0.441,0.625c0.213,0.154,0.482,0.23,0.812,0.23
				c0.375,0,0.711-0.103,1.008-0.309c0.298-0.206,0.5-0.461,0.608-0.766c0.109-0.305,0.164-1.051,0.164-2.238v-3.5h2.195V117H227.75
				z"/>
		</g>
	</g>
	<g id="icon">
		<g>
			<polygon fill="#D5D5D5" points="98.797,241.859 86.68,250.852 90.358,251.668 86.006,259.023 98.123,249.624 94.445,248.809 			
				"/>
		</g>
	</g>
	<g id="icon_1_">
		<g>
			<path fill="#F4F4F4" d="M92.608,198.141c-0.092-0.121-0.242-0.093-0.335,0.025l-4.429,5.559c-0.092,0.119-0.044,0.34,0.107,0.34
				h3.043v3.586c0,0.218,0.177,0.396,0.393,0.396h2.214c0.216,0,0.393-0.178,0.393-0.396v-3.586h2.938
				c0.151,0,0.199-0.205,0.107-0.323L92.608,198.141z M92.471,193.995c-5.243,0-9.508,4.267-9.508,9.51
				c0,5.242,4.265,9.509,9.508,9.509c5.243,0,9.508-4.267,9.508-9.509C101.979,198.262,97.714,193.995,92.471,193.995z
				 M92.471,210.562c-3.892,0-7.058-3.168-7.058-7.06c0-3.894,3.166-7.06,7.058-7.06c3.892,0,7.058,3.166,7.058,7.06
				C99.529,207.395,96.363,210.562,92.471,210.562z"/>
		</g>
	</g>
	<g id="icon_2_">
		<g>
			<path fill="#D5D5D5" d="M96.931,156.939h-2.938v-3.587c0-0.216-0.177-0.394-0.393-0.394h-2.214c-0.216,0-0.393,0.178-0.393,0.394
				v3.587H87.95c-0.151,0-0.199,0.22-0.107,0.339l4.429,5.558c0.093,0.119,0.243,0.147,0.335,0.028l4.43-5.601
				C97.13,157.145,97.082,156.939,96.931,156.939z M92.471,147.99c-5.243,0-9.508,4.266-9.508,9.509s4.265,9.507,9.508,9.507
				c5.243,0,9.508-4.264,9.508-9.507S97.714,147.99,92.471,147.99z M92.471,164.556c-3.892,0-7.058-3.166-7.058-7.057
				c0-3.892,3.166-7.059,7.058-7.059c3.892,0,7.058,3.167,7.058,7.059C99.529,161.39,96.363,164.556,92.471,164.556z"/>
		</g>
	</g>
	<g id="icon_3_">
		<g>
			<path fill="#D5D5D5" d="M92.482,101.977c-3.57,0-6.467,2.856-6.467,6.381c0,3.523,6.467,11.617,6.467,11.617
				s6.468-8.094,6.468-11.617C98.949,104.833,96.053,101.977,92.482,101.977z M92.482,110.909c-1.429,0-2.586-1.143-2.586-2.552
				c0-1.409,1.158-2.553,2.586-2.553c1.429,0,2.587,1.145,2.587,2.553C95.069,109.766,93.911,110.909,92.482,110.909z"/>
		</g>
	</g>
</g>
</svg>
