<?xml version="1.0" encoding="utf-8"?>
<!-- Generator: Adobe Illustrator 16.0.0, SVG Export Plug-In . SVG Version: 6.00 Build 0)  -->
<!DOCTYPE svg PUBLIC "-//W3C//DTD SVG 1.1//EN" "http://www.w3.org/Graphics/SVG/1.1/DTD/svg11.dtd">
<svg version="1.1" id="_x31_0_1_" xmlns="http://www.w3.org/2000/svg" xmlns:xlink="http://www.w3.org/1999/xlink" x="0px" y="0px"
	 width="360px" height="358px" viewBox="0 0 360 358" enable-background="new 0 0 360 358" xml:space="preserve">
<g id="bg">
	<g>
		<rect y="0.001" fill="#DDDDDD" width="360" height="357.999"/>
	</g>
</g>
<g id="share_1_">
	<g id="inactive_1_">
		<g id="Share">
			<g>
				<path fill="#6F6F6F" d="M156.344,117.273l2.25-0.219c0.135,0.755,0.41,1.311,0.824,1.664c0.414,0.354,0.973,0.531,1.676,0.531
					c0.745,0,1.306-0.158,1.684-0.473c0.377-0.315,0.566-0.684,0.566-1.105c0-0.271-0.08-0.501-0.238-0.691
					c-0.159-0.19-0.437-0.355-0.832-0.496c-0.271-0.094-0.888-0.26-1.852-0.5c-1.24-0.307-2.109-0.685-2.609-1.133
					c-0.703-0.63-1.055-1.398-1.055-2.305c0-0.583,0.165-1.129,0.496-1.637c0.331-0.508,0.807-0.895,1.43-1.16
					c0.622-0.266,1.374-0.398,2.254-0.398c1.438,0,2.52,0.315,3.246,0.945s1.108,1.471,1.145,2.523l-2.312,0.102
					c-0.099-0.588-0.312-1.012-0.637-1.27c-0.326-0.258-0.814-0.387-1.465-0.387c-0.672,0-1.198,0.138-1.578,0.414
					c-0.245,0.177-0.367,0.414-0.367,0.711c0,0.271,0.114,0.502,0.344,0.695c0.292,0.245,1,0.5,2.125,0.766s1.957,0.541,2.496,0.824
					c0.539,0.283,0.961,0.672,1.266,1.164c0.305,0.492,0.457,1.1,0.457,1.824c0,0.656-0.183,1.271-0.547,1.844
					c-0.365,0.573-0.88,0.999-1.547,1.277c-0.667,0.279-1.498,0.418-2.492,0.418c-1.448,0-2.56-0.334-3.336-1.004
					C156.958,119.53,156.495,118.555,156.344,117.273z"/>
				<path fill="#6F6F6F" d="M169.773,109.547v4.211c0.708-0.828,1.555-1.242,2.539-1.242c0.505,0,0.961,0.094,1.367,0.281
					c0.406,0.187,0.712,0.427,0.918,0.719c0.206,0.292,0.346,0.615,0.422,0.969c0.075,0.354,0.113,0.904,0.113,1.648V121h-2.195
					v-4.383c0-0.87-0.042-1.422-0.125-1.656s-0.23-0.42-0.441-0.559s-0.476-0.207-0.793-0.207c-0.365,0-0.69,0.088-0.977,0.266
					c-0.287,0.177-0.496,0.444-0.629,0.801c-0.133,0.357-0.199,0.884-0.199,1.582V121h-2.195v-11.453H169.773z"/>
				<path fill="#6F6F6F" d="M179,115.234l-1.992-0.359c0.224-0.802,0.609-1.396,1.156-1.781c0.547-0.385,1.359-0.578,2.438-0.578
					c0.979,0,1.709,0.116,2.188,0.348c0.479,0.231,0.815,0.526,1.012,0.883s0.293,1.012,0.293,1.965l-0.022,2.562
					c0,0.729,0.035,1.267,0.104,1.613c0.07,0.346,0.202,0.717,0.396,1.113H182.4c-0.059-0.146-0.129-0.362-0.211-0.648
					c-0.037-0.13-0.062-0.216-0.078-0.258c-0.375,0.365-0.776,0.638-1.203,0.82c-0.427,0.182-0.883,0.273-1.367,0.273
					c-0.854,0-1.527-0.232-2.02-0.695s-0.738-1.049-0.738-1.758c0-0.469,0.112-0.887,0.336-1.254
					c0.224-0.367,0.538-0.648,0.941-0.844c0.403-0.196,0.986-0.366,1.746-0.512c1.026-0.193,1.737-0.373,2.133-0.539v-0.219
					c0-0.422-0.104-0.723-0.312-0.902c-0.208-0.179-0.602-0.27-1.18-0.27c-0.391,0-0.695,0.077-0.914,0.23
					C179.314,114.577,179.135,114.849,179,115.234z M181.938,117.016c-0.28,0.094-0.727,0.206-1.336,0.336
					c-0.608,0.13-1.008,0.258-1.194,0.383c-0.287,0.203-0.43,0.461-0.43,0.773c0,0.307,0.115,0.573,0.344,0.797
					s0.521,0.336,0.875,0.336c0.396,0,0.773-0.13,1.133-0.391c0.266-0.198,0.44-0.44,0.522-0.727
					c0.059-0.188,0.086-0.544,0.086-1.07V117.016z"/>
				<path fill="#6F6F6F" d="M188.359,121h-2.195v-8.297h2.039v1.18c0.349-0.557,0.663-0.924,0.941-1.102
					c0.277-0.178,0.595-0.266,0.948-0.266c0.5,0,0.981,0.138,1.445,0.414l-0.681,1.914c-0.369-0.24-0.713-0.359-1.03-0.359
					c-0.308,0-0.567,0.084-0.781,0.254c-0.214,0.17-0.382,0.475-0.504,0.918c-0.122,0.443-0.185,1.37-0.185,2.781V121H188.359z"/>
				<path fill="#6F6F6F" d="M197.289,118.359l2.188,0.367c-0.281,0.802-0.726,1.413-1.332,1.832
					c-0.605,0.419-1.365,0.629-2.276,0.629c-1.442,0-2.511-0.471-3.203-1.414c-0.547-0.755-0.82-1.708-0.82-2.859
					c0-1.375,0.359-2.452,1.078-3.23c0.72-0.778,1.628-1.168,2.728-1.168c1.233,0,2.207,0.408,2.922,1.223
					c0.714,0.814,1.055,2.063,1.022,3.746h-5.5c0.017,0.651,0.192,1.158,0.531,1.52c0.339,0.362,0.761,0.543,1.267,0.543
					c0.344,0,0.633-0.094,0.866-0.281C196.993,119.08,197.169,118.776,197.289,118.359z M197.414,116.141
					c-0.016-0.635-0.18-1.119-0.492-1.449c-0.312-0.33-0.691-0.496-1.141-0.496c-0.479,0-0.875,0.174-1.188,0.522
					c-0.313,0.349-0.466,0.823-0.461,1.422H197.414z"/>
			</g>
		</g>
	</g>
	<g id="active_1_">
		<g id="linkedin_btn_1_">
			<g id="bg_xA0_Image_11_">
				
					<image overflow="visible" enable-background="new    " width="62" height="45" id="bg_xA0_Image_10_" xlink:href="5AB15CD6DDA59C18.png"  transform="matrix(1 0 0 1 168 241)">
				</image>
			</g>
			<g id="Post">
				<g>
					<path fill="#6F6F6F" d="M182.945,268v-9.307h3.016c1.143,0,1.889,0.048,2.234,0.141c0.533,0.141,0.979,0.443,1.34,0.911
						c0.359,0.468,0.539,1.071,0.539,1.812c0,0.571-0.104,1.053-0.311,1.441c-0.209,0.391-0.473,0.695-0.791,0.917
						c-0.32,0.224-0.645,0.369-0.975,0.44c-0.449,0.09-1.1,0.134-1.949,0.134h-1.225V268H182.945z M184.825,260.27v2.641h1.028
						c0.739,0,1.234-0.049,1.484-0.146c0.249-0.097,0.445-0.248,0.587-0.457c0.142-0.207,0.214-0.447,0.214-0.724
						c0-0.338-0.101-0.617-0.3-0.838c-0.198-0.22-0.45-0.356-0.755-0.412c-0.225-0.042-0.676-0.063-1.354-0.063H184.825
						L184.825,260.27z"/>
					<path fill="#6F6F6F" d="M191.191,264.534c0-0.593,0.146-1.166,0.438-1.722c0.292-0.554,0.705-0.978,1.24-1.27
						s1.134-0.438,1.794-0.438c1.021,0,1.854,0.33,2.507,0.992s0.979,1.5,0.979,2.512c0,1.02-0.33,1.865-0.987,2.535
						c-0.658,0.672-1.486,1.006-2.484,1.006c-0.618,0-1.208-0.14-1.769-0.418c-0.561-0.279-0.986-0.688-1.278-1.229
						C191.338,265.966,191.191,265.309,191.191,264.534z M193.02,264.629c0,0.669,0.16,1.182,0.478,1.536s0.708,0.533,1.174,0.533
						s0.854-0.179,1.171-0.533s0.475-0.871,0.475-1.549c0-0.66-0.158-1.168-0.475-1.523c-0.316-0.354-0.705-0.532-1.171-0.532
						s-0.856,0.178-1.174,0.532C193.18,263.448,193.02,263.961,193.02,264.629z"/>
					<path fill="#6F6F6F" d="M198.917,266.076l1.79-0.272c0.076,0.347,0.23,0.61,0.463,0.79s0.559,0.271,0.979,0.271
						c0.461,0,0.809-0.085,1.041-0.255c0.155-0.117,0.234-0.275,0.234-0.476c0-0.136-0.043-0.248-0.127-0.337
						c-0.089-0.084-0.288-0.162-0.597-0.234c-1.439-0.316-2.353-0.606-2.736-0.869c-0.532-0.363-0.8-0.869-0.8-1.518
						c0-0.584,0.23-1.074,0.691-1.473c0.461-0.396,1.177-0.598,2.146-0.598c0.922,0,1.607,0.15,2.057,0.451
						c0.448,0.301,0.758,0.744,0.928,1.332l-1.684,0.312c-0.072-0.264-0.208-0.464-0.408-0.604c-0.201-0.141-0.488-0.209-0.86-0.209
						c-0.47,0-0.806,0.064-1.009,0.195c-0.137,0.094-0.203,0.214-0.203,0.362c0,0.127,0.059,0.233,0.178,0.323
						c0.16,0.119,0.716,0.285,1.666,0.502c0.95,0.216,1.613,0.479,1.99,0.793c0.371,0.316,0.559,0.76,0.559,1.326
						c0,0.618-0.259,1.148-0.773,1.594c-0.518,0.443-1.28,0.666-2.293,0.666c-0.918,0-1.646-0.187-2.181-0.559
						C199.434,267.221,199.082,266.716,198.917,266.076z"/>
					<path fill="#6F6F6F" d="M209.866,261.259v1.423h-1.22v2.717c0,0.55,0.013,0.871,0.035,0.961
						c0.023,0.092,0.076,0.166,0.158,0.226c0.083,0.06,0.184,0.089,0.303,0.089c0.164,0,0.403-0.057,0.717-0.171l0.152,1.384
						c-0.414,0.178-0.885,0.268-1.408,0.268c-0.322,0-0.612-0.055-0.871-0.162c-0.258-0.107-0.446-0.247-0.567-0.419
						c-0.12-0.171-0.204-0.403-0.25-0.695c-0.038-0.207-0.058-0.626-0.058-1.257v-2.938h-0.818v-1.422h0.818v-1.341l1.789-1.041
						v2.382h1.22V261.259z"/>
				</g>
			</g>
			<g id="bg_xA0_Image_9_">
				
					<image overflow="visible" enable-background="new    " width="45" height="45" id="bg_xA0_Image_8_" xlink:href="5AB15CD6DDA59C19.png"  transform="matrix(1 0 0 1 125 241)">
				</image>
			</g>
			<g id="icon">
				<g>
					<path fill="#FFFFFF" d="M154.069,257.867c-3.542,0-4.081,2.146-4.081,2.146l-0.021-1.973h-3.959v12.975h3.989l-0.002-8.252
						c0,0,1.524-1.553,2.704-1.553c1.548,0,2.3,1.172,2.3,2.887v6.918h3.985v-7.406
						C158.984,259.689,156.881,257.867,154.069,257.867z M141.045,251.673c-1.443,0-2.388,0.97-2.388,2.241
						c0,1.244,0.916,2.355,2.333,2.355h0.028c1.472,0,2.389-1.111,2.389-2.355C143.379,252.643,142.49,251.673,141.045,251.673z
						 M139.003,271.016h3.992v-12.994h-3.992V271.016z"/>
				</g>
			</g>
		</g>
		<g id="twitter_btn_1_">
			<g id="bg_xA0_Image_7_">
				
					<image overflow="visible" enable-background="new    " width="62" height="45" id="bg_xA0_Image_6_" xlink:href="5AB15CD6DDA59C1F.png"  transform="matrix(1 0 0 1 168 199)">
				</image>
			</g>
			<g id="Tweet">
				<g>
					<path fill="#6F6F6F" d="M184.041,226v-7.73h-2.762v-1.574h7.396v1.574h-2.755V226H184.041z"/>
					<path fill="#6F6F6F" d="M190.166,226l-2.133-6.741h1.732l1.264,4.418l1.162-4.418h1.72l1.124,4.418l1.288-4.418h1.759
						L195.917,226h-1.714l-1.161-4.336L191.898,226H190.166z"/>
					<path fill="#6F6F6F" d="M202.925,223.854l1.777,0.299c-0.229,0.652-0.589,1.147-1.082,1.488
						c-0.493,0.342-1.11,0.512-1.851,0.512c-1.172,0-2.041-0.383-2.604-1.149c-0.443-0.612-0.666-1.388-0.666-2.323
						c0-1.117,0.292-1.99,0.876-2.623c0.584-0.634,1.322-0.949,2.215-0.949c1.003,0,1.794,0.33,2.374,0.992s0.857,1.678,0.832,3.045
						h-4.469c0.013,0.528,0.156,0.939,0.432,1.233c0.274,0.294,0.617,0.44,1.028,0.44c0.278,0,0.514-0.075,0.704-0.229
						C202.682,224.438,202.827,224.193,202.925,223.854z M203.025,222.052c-0.012-0.517-0.146-0.909-0.398-1.178
						s-0.562-0.403-0.927-0.403c-0.39,0-0.711,0.144-0.966,0.426c-0.254,0.283-0.379,0.67-0.375,1.155H203.025z"/>
					<path fill="#6F6F6F" d="M210.155,223.854l1.776,0.299c-0.229,0.652-0.59,1.147-1.082,1.488
						c-0.494,0.342-1.109,0.512-1.851,0.512c-1.173,0-2.04-0.383-2.603-1.149c-0.444-0.612-0.668-1.388-0.668-2.323
						c0-1.117,0.293-1.99,0.877-2.623c0.584-0.634,1.321-0.949,2.215-0.949c1.004,0,1.795,0.33,2.375,0.992
						c0.578,0.662,0.855,1.678,0.83,3.045h-4.469c0.014,0.528,0.156,0.939,0.433,1.233s0.618,0.44,1.028,0.44
						c0.278,0,0.515-0.075,0.705-0.229C209.912,224.438,210.059,224.193,210.155,223.854z M210.257,222.052
						c-0.013-0.517-0.146-0.909-0.399-1.178s-0.562-0.403-0.928-0.403c-0.39,0-0.711,0.144-0.965,0.426
						c-0.254,0.283-0.379,0.67-0.374,1.155H210.257z"/>
					<path fill="#6F6F6F" d="M216.572,219.259v1.423h-1.219v2.717c0,0.55,0.012,0.871,0.035,0.961
						c0.022,0.092,0.075,0.166,0.157,0.226c0.083,0.06,0.185,0.089,0.302,0.089c0.166,0,0.404-0.057,0.719-0.171l0.151,1.384
						c-0.415,0.178-0.885,0.268-1.409,0.268c-0.322,0-0.611-0.055-0.869-0.162s-0.447-0.247-0.568-0.419
						c-0.12-0.171-0.204-0.403-0.25-0.695c-0.038-0.207-0.059-0.626-0.059-1.257v-2.938h-0.817v-1.423h0.817v-1.34l1.791-1.041
						v2.381h1.219V219.259z"/>
				</g>
			</g>
			<g id="bg_xA0_Image_5_">
				
					<image overflow="visible" enable-background="new    " width="45" height="45" id="bg_xA0_Image_4_" xlink:href="5AB15CD6DDA59C1A.png"  transform="matrix(1 0 0 1 125 199)">
				</image>
			</g>
			<g id="twitter">
				<g>
					<path fill="#FFFFFF" d="M161.013,220.682c-0.475,0.168-1.407,0.014-2.79-0.268v-0.048c0-0.009,0-0.009,0.009,0
						c1.617-0.591,2.405-1.181,2.691-1.981c-1.055,0.409-2.094,0.522-3.125,0.141c-0.188-1.412-0.754-2.275-1.916-3.439
						c-0.016-0.008-0.137-0.027-0.153-0.044c-0.981-0.909-2.134-1.344-3.46-1.292l-0.041-0.094c0.008-0.008,0.017-0.008,0.025-0.008
						c1.202-0.273,1.914-0.555,2.126-0.859c0.074-0.247-0.015-0.383-0.278-0.417c-0.605,0.076-1.162,0.204-1.661,0.399
						c0.631-0.399,0.875-0.681,0.736-0.824c-0.622,0.017-1.292,0.332-1.996,0.953c0.261-0.443,0.36-0.684,0.295-0.726
						c-0.335,0.229-0.63,0.478-0.884,0.74c-0.532,0.587-0.957,1.132-1.284,1.626l-0.016,0.042c-0.842,1.353-1.432,2.713-1.783,4.101
						l-0.131,0.103l-0.024,0.024c-0.507-0.631-1.112-1.155-1.84-1.584c-0.859-0.552-1.865-1.078-3.027-1.59
						c-1.268-0.646-2.552-1.182-3.853-1.598c-0.008,1.438,0.911,2.585,2.327,3.418l-0.208,0.025
						c-0.499-0.01-0.981,0.173-1.448,0.317c0.09,1.336,1.047,2.148,2.863,2.658l-0.008,0.024c-0.711-0.041-1.3,0.312-1.758,0.82
						c0.597,1.157,1.652,1.604,3.182,1.562c-0.303,0.153-0.54,0.323-0.695,0.512c-0.278,0.289-0.368,0.631-0.278,1.021
						c0.327,0.588,0.916,0.857,1.783,0.816l0.049,0.061c-0.008,0.009-0.016,0.018-0.024,0.025c-1.497,1.53-3.304,2.219-5.423,2.074
						l-0.033,0.018c-1.292-0.009-2.674-0.621-4.171-1.847c1.505,2.144,3.501,3.797,5.971,4.767c2.83,0.929,5.66,0.892,8.481,0.1
						h0.049c2.74-0.783,5.063-2.391,6.976-4.822c0.884-1.275,1.44-2.279,1.661-3.445c1.431,0.049,2.462-0.567,3.1-1.437
						L161.013,220.682z"/>
				</g>
			</g>
		</g>
		<g id="fb_btn_1_">
			<g id="bg_xA0_Image_3_">
				
					<image overflow="visible" enable-background="new    " width="62" height="45" id="bg_xA0_Image_2_" xlink:href="5AB15CD6DDA59C1B.png"  transform="matrix(1 0 0 1 168 157)">
				</image>
			</g>
			<g id="Like">
				<g>
					<path fill="#6F6F6F" d="M182.997,184v-9.229h1.879v7.661h4.672V184H182.997z"/>
					<path fill="#6F6F6F" d="M190.874,176.345v-1.65h1.784v1.65H190.874z M190.874,184v-6.741h1.784V184H190.874z"/>
					<path fill="#6F6F6F" d="M194.423,184v-9.306h1.783v4.938l2.089-2.374h2.196l-2.306,2.463l2.471,4.278h-1.924l-1.694-3.028
						l-0.832,0.87V184H194.423z"/>
					<path fill="#6F6F6F" d="M205.62,181.854l1.776,0.299c-0.229,0.652-0.59,1.147-1.082,1.488
						c-0.494,0.342-1.109,0.512-1.851,0.512c-1.173,0-2.04-0.383-2.603-1.149c-0.444-0.612-0.668-1.388-0.668-2.323
						c0-1.117,0.293-1.992,0.877-2.625c0.584-0.632,1.322-0.949,2.216-0.949c1.003,0,1.794,0.331,2.374,0.993
						c0.579,0.663,0.855,1.676,0.831,3.043h-4.47c0.014,0.529,0.156,0.94,0.433,1.234s0.618,0.441,1.028,0.441
						c0.278,0,0.515-0.076,0.705-0.229C205.377,182.436,205.521,182.193,205.62,181.854z M205.723,180.052
						c-0.014-0.517-0.146-0.909-0.4-1.178s-0.562-0.403-0.928-0.403c-0.39,0-0.711,0.142-0.965,0.425
						c-0.254,0.283-0.379,0.668-0.373,1.155L205.723,180.052L205.723,180.052z"/>
				</g>
			</g>
			<g id="bg_xA0_Image_1_">
				
					<image overflow="visible" enable-background="new    " width="45" height="45" id="bg_xA0_Image" xlink:href="5AB15CD6DDA59C16.png"  transform="matrix(1 0 0 1 125 157)">
				</image>
			</g>
			<g id="icon_1_">
				<g>
					<path fill="#FFFFFF" d="M151.915,172.085c0.47,0,3.079,0,3.079,0v-4.021l-4.106-0.013c-4.418,0-4.98,3.959-4.98,5.688v2.248
						h-2.912v3.995H146v8.949h4.008c0,0,0.021-4.222,0.021-8.949h4.058l0.848-4.032h-4.906l-0.037-1.99
						C149.991,173.136,151.101,172.085,151.915,172.085z"/>
				</g>
			</g>
		</g>
		<g id="highlight">
			<g>
				<rect x="126" y="74.001" fill="#4B5155" width="102.998" height="84"/>
			</g>
		</g>
		<g id="Shape_2">
			<g>
				<path fill="#6F767B" d="M173.3,115.502c-0.693,2.518-0.847,5.118-0.52,7.568l0.758,0.009c0.327-2.374,1.117-4.598,2.274-6.537
					c1.156-1.938,2.674-3.584,4.396-4.842c1.72-1.26,3.644-2.131,5.591-2.582c1.848-0.431,3.708-0.481,5.479-0.209v5.049
					l9.308-9.306l-9.308-9.308v5.046c-2.854,0.353-5.602,1.242-8.021,2.589c-2.508,1.393-4.671,3.258-6.361,5.41
					C175.206,110.541,173.988,112.982,173.3,115.502z M191.93,125.954h-26.943v-17.886h7.855l4.809-6.074h-18.657v29.95h39.009
					v-19.826l-6.073,5.569V125.954L191.93,125.954z"/>
			</g>
		</g>
	</g>
</g>
</svg>
