<?xml version="1.0" encoding="utf-8"?>
<!-- Generator: Adobe Illustrator 16.0.0, SVG Export Plug-In . SVG Version: 6.00 Build 0)  -->
<!DOCTYPE svg PUBLIC "-//W3C//DTD SVG 1.1//EN" "http://www.w3.org/Graphics/SVG/1.1/DTD/svg11.dtd">
<svg version="1.1" id="_x39__1_" xmlns="http://www.w3.org/2000/svg" xmlns:xlink="http://www.w3.org/1999/xlink" x="0px" y="0px"
	 width="363px" height="361px" viewBox="0 0 363 361" enable-background="new 0 0 363 361" xml:space="preserve">
<g id="bg">
	<g>
		<rect y="0.006" fill="#00E98F" width="363" height="360.983"/>
	</g>
</g>
<g>
	<path fill="#FFFFFF" d="M161.92,179.854"/>
	<g>
		<path fill="#FFFFFF" d="M193.188,195.99c-2.412,1.633-6.861,5.691-10.347,5.833c-3.116-0.142-7.897-4.2-10.31-5.833
			c-8.529-5.767-16.193,0.997-19.579,10.261c-8.556,23.378-7.038,35.619-5.582,37.8c4.687,7.042,14.922,3.591,18.969-2.448
			c3.002-4.479,6.869-10.603,6.869-10.603h9.633h9.706c0,0,3.863,6.124,6.866,10.603c4.046,6.039,14.274,9.552,18.964,2.511
			c1.453-2.182,2.965-14.51-5.59-37.888C207.111,190.714,199.354,191.821,193.188,195.99z M166.756,226.638
			c-6.156,0-11.141-4.989-11.141-11.142c0-6.159,4.985-11.137,11.141-11.137c6.153,0,11.139,4.978,11.139,11.137
			C177.895,221.648,172.909,226.638,166.756,226.638z M190.785,218.952c-1.99,0-3.604-1.607-3.604-3.604
			c0-1.991,1.613-3.605,3.604-3.605c1.992,0,3.605,1.614,3.605,3.605C194.391,217.345,192.777,218.952,190.785,218.952z
			 M198.521,226.696c-1.99,0-3.604-1.621-3.604-3.614c0-1.991,1.614-3.603,3.604-3.603c1.994,0,3.61,1.611,3.61,3.603
			C202.132,225.075,200.516,226.696,198.521,226.696z M198.521,211.221c-1.99,0-3.604-1.613-3.604-3.609
			c0-1.984,1.614-3.604,3.604-3.604c1.994,0,3.61,1.619,3.61,3.604C202.132,209.607,200.516,211.221,198.521,211.221z
			 M206.26,218.952c-1.996,0-3.609-1.607-3.609-3.604c0-1.991,1.613-3.605,3.609-3.605c1.989,0,3.602,1.614,3.602,3.605
			C209.861,217.345,208.249,218.952,206.26,218.952z"/>
		<path fill="#FFFFFF" d="M166.756,209.026c-3.576,0-6.473,2.897-6.473,6.47c0,3.575,2.897,6.477,6.473,6.477
			c3.575,0,6.477-2.901,6.477-6.477C173.232,211.924,170.331,209.026,166.756,209.026z"/>
		<path fill="#FFFFFF" d="M165,160v3.911l0,0v5.451c-1-0.288-1.47-0.43-2.24-0.43c-4.448,0-7.99,3.89-7.99,8.672
			c0,4.78,3.659,8.671,8.107,8.671c4.211,0,7.936-3.601,8.083-7.771c1.126,0.83,7.083,5.832,9.781,15.613
			c0.004,0.018,0.237,1.883,1.74,1.883h0.054c0.014,0,0.358-0.211,0.696-0.443c0.309-0.213,0.672-0.758,0.646-1.684
			c-0.021-0.137-3.046-14.697-13.808-22.5c0.001-1.372,0.02-4.373,0.031-7.373H262v-4H165z M162.916,181.555
			c-2.019,0-3.661-1.771-3.661-3.95s1.643-3.952,3.661-3.952c2.02,0,3.662,1.773,3.662,3.952S164.936,181.555,162.916,181.555z"/>
	</g>
	<rect x="258" y="151" fill="#FFFFFF" width="4" height="13"/>
	<rect x="102" y="139" fill="#FFFFFF" width="4" height="12"/>
	<rect x="102" y="146" fill="#FFFFFF" width="160" height="5"/>
	<rect x="258" y="126" fill="#FFFFFF" width="4" height="13"/>
	<rect x="102" y="121" fill="#FFFFFF" width="160" height="5"/>
	<rect x="102" y="134" fill="#FFFFFF" width="160" height="5"/>
</g>
</svg>
